<?xml version="1.0" encoding="UTF-8"?>
<svg xmlns="http://www.w3.org/2000/svg" xmlns:xlink="http://www.w3.org/1999/xlink" width="80px" height="80px" viewBox="0 0 80 80" version="1.1">
<g id="surface1">
<path style=" stroke:none;fill-rule:nonzero;fill:rgb(96.470588%,75.294119%,25.098041%);fill-opacity:1;" d="M 38.5625 9.550781 C 37.898438 15.410156 40.792969 20.910156 47.253906 26.042969 C 53.714844 31.179688 55.855469 35.953125 53.675781 40.367188 C 51.0625 44.953125 50.171875 49.660156 51.007812 54.488281 C 59.589844 46.015625 60.476562 37.953125 53.675781 30.292969 C 60.675781 36.898438 60.347656 44.964844 52.6875 54.488281 C 49.511719 58.792969 48.953125 63.300781 51.007812 68.019531 C 56.15625 59.609375 59.375 52.371094 60.664062 46.304688 C 62.394531 38.167969 60.65625 32.140625 55.453125 28.21875 C 43.796875 21.039062 38.167969 14.816406 38.5625 9.550781 Z M 38.5625 9.550781 "/>
<path style=" stroke:none;fill-rule:nonzero;fill:rgb(96.470588%,75.294119%,25.098041%);fill-opacity:1;" d="M 60.6875 46.785156 C 61.675781 42.488281 62.167969 39.359375 62.167969 37.402344 C 62.167969 35.789062 62.992188 31.246094 65.03125 29.304688 C 66.773438 27.648438 72.308594 21.601562 72.144531 15.96875 C 68.9375 23.609375 63.179688 27 54.859375 26.144531 C 60.984375 30.554688 62.925781 37.433594 60.6875 46.785156 Z M 60.6875 46.785156 "/>
<path style=" stroke:none;fill-rule:nonzero;fill:rgb(96.470588%,75.294119%,25.098041%);fill-opacity:1;" d="M 60.664062 20.414062 C 60.664062 17.6875 58.796875 15.476562 56.492188 15.476562 C 54.1875 15.476562 52.316406 17.6875 52.316406 20.414062 C 52.316406 23.140625 54.1875 25.351562 56.492188 25.351562 C 58.796875 25.351562 60.664062 23.140625 60.664062 20.414062 Z M 60.664062 20.414062 "/>
<path style=" stroke:none;fill-rule:nonzero;fill:rgb(0%,48.627451%,56.862748%);fill-opacity:1;" d="M 36.8125 9.910156 C 35.519531 9.921875 34.230469 10.011719 32.953125 10.183594 C 32.558594 13.417969 29.816406 15.847656 26.558594 15.851562 C 24.886719 15.820312 23.292969 15.144531 22.109375 13.960938 C 19.242188 15.582031 16.652344 17.648438 14.4375 20.089844 C 16.203125 22.820312 15.660156 26.433594 13.171875 28.523438 C 11.871094 29.578125 10.207031 30.085938 8.539062 29.933594 C 7.386719 33.019531 6.738281 36.273438 6.617188 39.5625 C 9.722656 40.523438 11.628906 43.636719 11.066406 46.835938 C 10.746094 48.492188 9.789062 49.953125 8.402344 50.910156 C 9.515625 54.03125 11.128906 56.953125 13.171875 59.558594 C 14.046875 59.171875 14.992188 58.980469 15.949219 59.003906 C 18.140625 59.109375 20.125 60.320312 21.222656 62.21875 C 22.074219 63.703125 22.304688 65.460938 21.859375 67.109375 C 24.707031 68.761719 27.804688 69.945312 31.03125 70.613281 C 32.183594 68.347656 34.558594 66.972656 37.097656 67.097656 C 37.710938 67.136719 38.3125 67.265625 38.890625 67.476562 C 40.515625 68.070312 41.832031 69.292969 42.546875 70.867188 C 44.949219 70.425781 47.292969 69.703125 49.523438 68.707031 C 48.664062 67.0625 48.1875 64.984375 48.171875 62.832031 C 48.1875 61.507812 48.378906 60.199219 48.730469 59.003906 C 47.945312 59.5 47.128906 59.949219 46.285156 60.339844 C 45.34375 60.769531 44.375 61.132812 43.382812 61.421875 C 42.394531 61.714844 41.382812 61.933594 40.359375 62.082031 C 39.335938 62.226562 38.304688 62.300781 37.273438 62.300781 C 36.238281 62.300781 35.207031 62.226562 34.183594 62.082031 C 33.160156 61.933594 32.148438 61.714844 31.160156 61.421875 C 30.167969 61.132812 29.199219 60.769531 28.257812 60.339844 C 27.320312 59.910156 26.410156 59.414062 25.542969 58.855469 C 24.671875 58.296875 23.84375 57.679688 23.0625 57 C 22.28125 56.324219 21.550781 55.59375 20.875 54.8125 C 20.199219 54.03125 19.578125 53.203125 19.019531 52.335938 C 18.460938 51.464844 17.964844 50.558594 17.535156 49.617188 C 17.105469 48.679688 16.746094 47.707031 16.453125 46.71875 C 16.164062 45.726562 15.941406 44.714844 15.796875 43.691406 C 15.648438 42.667969 15.574219 41.636719 15.574219 40.605469 C 15.574219 39.570312 15.648438 38.539062 15.796875 37.515625 C 15.941406 36.492188 16.164062 35.484375 16.453125 34.492188 C 16.746094 33.5 17.105469 32.53125 17.535156 31.589844 C 17.964844 30.652344 18.460938 29.742188 19.019531 28.875 C 19.578125 28.003906 20.199219 27.175781 20.875 26.394531 C 21.550781 25.617188 22.28125 24.882812 23.0625 24.207031 C 23.84375 23.53125 24.671875 22.910156 25.542969 22.351562 C 26.410156 21.792969 27.320312 21.296875 28.257812 20.867188 C 29.199219 20.441406 30.167969 20.078125 31.160156 19.785156 C 32.148438 19.496094 33.160156 19.277344 34.183594 19.128906 C 35.207031 18.980469 36.238281 18.90625 37.273438 18.90625 C 37.625 18.90625 37.980469 18.917969 38.335938 18.933594 C 38.492188 18.945312 38.648438 18.957031 38.804688 18.96875 C 37.628906 16.609375 36.914062 13.367188 36.8125 9.910156 Z M 36.8125 9.910156 "/>
<path style=" stroke:none;fill-rule:nonzero;fill:rgb(96.470588%,75.294119%,25.098041%);fill-opacity:1;" d="M 53.132812 12.535156 C 53.617188 11.726562 54.511719 10.101562 54.464844 9.246094 C 54.453125 9.007812 54.140625 8.691406 54.125 8.453125 C 54.09375 8.003906 54.808594 7.730469 55.433594 8.070312 C 55.714844 8.226562 56.027344 8.664062 56.238281 8.90625 C 56.804688 9.570312 57.421875 9.960938 58.648438 9.15625 C 59.082031 8.875 59.671875 8.160156 60.179688 8.113281 C 60.824219 8.058594 60.277344 9.808594 60.113281 10.667969 C 60.070312 10.890625 60.109375 11.257812 60.171875 11.476562 C 60.21875 11.640625 60.277344 11.78125 60.390625 11.96875 C 60.511719 12.164062 60.730469 12.457031 60.859375 12.644531 C 61.34375 13.355469 61.972656 14.527344 60.257812 14.410156 C 58.222656 14.273438 58.976562 11.761719 58.976562 11.761719 C 58.976562 11.761719 59.273438 10.1875 58.269531 11.535156 C 57.265625 12.882812 56.71875 11.855469 56.71875 11.28125 C 56.71875 10.710938 55.574219 9.660156 55.257812 11.191406 C 54.996094 12.429688 55.203125 12.742188 54.78125 13.335938 C 54.578125 13.621094 54.171875 14.074219 53.832031 14.148438 C 53.414062 14.234375 53.085938 13.90625 52.921875 13.566406 C 52.789062 13.289062 52.972656 12.804688 53.132812 12.535156 Z M 53.132812 12.535156 "/>
<path style=" stroke:none;fill-rule:nonzero;fill:rgb(0%,48.627451%,56.862748%);fill-opacity:1;" d="M 47.636719 9.125 C 47.566406 9.121094 47.492188 9.121094 47.421875 9.125 C 46.464844 9.164062 45.421875 9.703125 45.375 10.671875 C 45.355469 11.089844 45.65625 11.425781 45.824219 11.839844 C 45.953125 12.160156 45.902344 12.738281 45.84375 13.082031 C 45.789062 13.398438 45.714844 13.75 45.628906 14.082031 C 45.546875 14.417969 45.28125 14.929688 45.226562 15.273438 C 45.195312 15.480469 45.210938 15.726562 45.335938 15.984375 C 45.472656 16.261719 45.859375 16.617188 46.148438 16.730469 C 47.148438 17.136719 48.699219 16.71875 49.328125 16.179688 C 49.921875 15.667969 50.492188 14.820312 50.058594 14.003906 C 49.847656 13.605469 49.210938 13.1875 48.910156 12.851562 C 48.597656 12.496094 48.707031 12.335938 48.902344 12.132812 C 49.035156 12 49.242188 11.765625 49.3125 11.589844 C 49.511719 11.09375 49.425781 10.375 48.820312 9.609375 C 48.574219 9.300781 48.128906 9.144531 47.636719 9.125 Z M 47.40625 10.40625 C 47.777344 10.414062 47.964844 10.714844 48.054688 11.054688 C 48.085938 11.171875 48.109375 11.367188 48.070312 11.480469 C 47.910156 11.914062 47.175781 12.347656 46.925781 12.253906 C 46.820312 12.21875 46.855469 11.980469 46.859375 11.859375 C 46.863281 11.5625 46.808594 11.238281 46.757812 11.003906 C 46.714844 10.820312 46.800781 10.585938 46.972656 10.507812 C 47.136719 10.4375 47.28125 10.40625 47.40625 10.40625 Z M 47.101562 13.65625 C 47.4375 13.636719 47.90625 13.753906 47.90625 13.753906 C 47.90625 13.753906 49.097656 14.582031 48.011719 15.285156 C 46.925781 15.988281 46.566406 15.5625 46.734375 15.09375 C 46.847656 14.785156 46.832031 14.3125 46.804688 14.035156 C 46.792969 13.902344 46.84375 13.695312 46.96875 13.671875 C 47.007812 13.660156 47.054688 13.65625 47.101562 13.65625 Z M 47.101562 13.65625 "/>
<path style=" stroke:none;fill-rule:nonzero;fill:rgb(0%,48.627451%,56.862748%);fill-opacity:1;" d="M 68.199219 12.578125 C 68.289062 12.101562 67.738281 11.183594 67.152344 10.871094 C 66.175781 10.347656 64.8125 10.441406 64.394531 10.953125 C 64.105469 11.308594 64.21875 11.710938 64.34375 12.199219 C 64.578125 13.136719 64.015625 14.710938 64 15.6875 C 63.988281 16.261719 64.121094 16.769531 64.488281 17.09375 C 64.820312 17.382812 65.582031 17.480469 66.023438 17.539062 C 66.238281 17.566406 66.453125 17.589844 66.652344 17.605469 C 67.097656 17.632812 67.824219 17.457031 68.148438 17.15625 C 68.3125 17.003906 68.890625 16.460938 68.65625 16.039062 C 68.53125 15.816406 68.292969 15.625 68.054688 15.503906 C 67.734375 15.347656 67.1875 15.707031 66.828125 15.800781 C 66.777344 15.816406 66.722656 15.828125 66.671875 15.835938 C 66.390625 15.894531 65.921875 15.855469 65.679688 15.699219 C 65.40625 15.519531 65.628906 14.816406 65.980469 14.695312 C 66.027344 14.679688 66.078125 14.667969 66.128906 14.660156 C 66.496094 14.613281 67.082031 15 67.4375 14.90625 C 67.824219 14.808594 68.179688 14.507812 68.074219 14.117188 C 68.03125 13.9375 67.832031 13.699219 67.6875 13.589844 C 67.476562 13.433594 67.273438 13.414062 67.105469 13.449219 C 66.808594 13.511719 66.363281 13.828125 66.082031 13.726562 C 65.828125 13.636719 65.488281 13.15625 65.605469 12.851562 C 65.667969 12.6875 65.789062 12.539062 65.925781 12.445312 C 66.167969 12.277344 66.675781 12.5 66.921875 12.6875 C 67.214844 12.914062 68.105469 13.070312 68.199219 12.578125 Z M 68.199219 12.578125 "/>
<path style=" stroke:none;fill-rule:nonzero;fill:rgb(96.470588%,75.294119%,25.098041%);fill-opacity:1;" d="M 22.164062 34.945312 L 26.792969 30.222656 C 26.792969 30.222656 29.1875 27.78125 32.175781 29.546875 C 32.601562 29.800781 33.175781 30.359375 33.433594 30.78125 C 35.304688 33.8125 32.558594 36.257812 32.558594 36.257812 L 27.40625 41.246094 C 27.40625 41.246094 24.585938 43.902344 21.84375 41.265625 C 19.832031 39.328125 20.675781 37.101562 21.265625 36.058594 C 21.460938 35.714844 21.886719 35.230469 22.164062 34.945312 Z M 22.164062 34.945312 "/>
<path style=" stroke:none;fill-rule:nonzero;fill:rgb(96.470588%,75.294119%,25.098041%);fill-opacity:1;" d="M 27.417969 46.277344 C 27.417969 46.277344 26.640625 45.5625 27.140625 44.597656 C 27.640625 43.636719 28.746094 43.84375 28.746094 43.84375 C 28.746094 43.84375 31.363281 44.3125 32.753906 45.601562 C 32.753906 45.601562 34.566406 46.777344 33.878906 48.609375 C 33.195312 50.4375 31.40625 50.152344 30.964844 49.742188 C 30.527344 49.332031 27.417969 46.277344 27.417969 46.277344 Z M 27.417969 46.277344 "/>
<path style=" stroke:none;fill-rule:nonzero;fill:rgb(0%,48.627451%,56.862748%);fill-opacity:1;" d="M 34.589844 36.832031 C 32.378906 36.832031 30.585938 38.597656 30.585938 40.777344 C 30.585938 42.957031 32.378906 44.722656 34.589844 44.722656 C 36.804688 44.722656 38.597656 42.957031 38.597656 40.777344 C 38.597656 39.839844 38.257812 38.929688 37.640625 38.21875 C 37.78125 38.445312 37.855469 38.707031 37.855469 38.976562 C 37.855469 39.777344 37.207031 40.425781 36.402344 40.425781 C 35.601562 40.425781 34.949219 39.777344 34.949219 38.976562 C 34.949219 38.175781 35.601562 37.527344 36.402344 37.527344 C 36.65625 37.527344 36.902344 37.59375 37.121094 37.71875 C 36.40625 37.144531 35.511719 36.832031 34.589844 36.832031 Z M 34.589844 36.832031 "/>
<path style=" stroke:none;fill-rule:nonzero;fill:rgb(96.470588%,75.294119%,25.098041%);fill-opacity:1;" d="M 40.1875 43.132812 L 37.628906 44.738281 C 37.628906 44.738281 35.257812 45.828125 35.039062 48.242188 C 34.882812 50.832031 35.054688 52.042969 35.777344 52.445312 C 36.238281 52.824219 36.976562 53.269531 38.539062 51.808594 C 40.101562 50.351562 46.667969 43.625 46.667969 43.625 C 46.667969 43.625 48.371094 42.121094 48.546875 39.691406 C 48.71875 37.261719 47.648438 35.757812 47.300781 35.296875 C 46.957031 34.832031 42.3125 30.191406 42.3125 30.191406 C 42.3125 30.191406 39.203125 27.304688 36.300781 30.113281 C 36.109375 30.300781 35.835938 30.644531 35.695312 30.875 C 33.539062 34.425781 37.050781 36.769531 38.265625 37.089844 C 39.515625 37.421875 42.273438 38.0625 42.167969 40.082031 C 42.101562 41.335938 41.128906 42.382812 40.1875 43.132812 Z M 40.1875 43.132812 "/>
</g>
</svg>
