<svg width="400" height="400" xmlns="http://www.w3.org/2000/svg" version="1.1"><g stroke="null" stroke-width="0" id="svgg"><path stroke="null" fill-rule="evenodd" fill="#fcba14" d="M164.2 47.267c-2.96 7.557-2.585 22.303.835 32.78 4.995 15.308 12.217 24.208 39.018 48.092 27.54 24.542 35.976 39.387 35.984 63.32.003 8.507-.118 9.83-1.711 18.674-5.45 30.259-4.02 58.244 3.77 73.709 1.342 2.664 1.199 2.584 2.827 1.589 21.52-13.157 41.202-39.348 45.5-60.55 7.88-38.88-20.366-76.794-88.85-119.254-17.775-11.022-29.913-29.48-35.874-54.552-1.027-4.317-1.164-4.667-1.5-3.81m212.471 2.338c-.01.062-.15 1.947-.31 4.187-.721 10.168-4.692 21.597-10.565 30.408-8.522 12.788-18.261 21.461-37.823 33.682-18.085 11.298-26.075 15.086-46.027 21.815-9.374 3.16-11.52 4.002-11.52 4.518 0 .146 2.117 2.116 4.702 4.378 14.83 12.967 20.67 24.205 22.804 43.888.454 4.178.443 4.152.99 2.325 4.217-14.074 11.867-25.077 27.724-39.88 19.189-17.91 32.381-35.08 43.75-56.942 7.32-14.073 10.969-36.74 7.56-46.967-.33-.993-1.189-1.935-1.283-1.409M258.1 85.027c-12.56 3.451-19.828 19.65-14.639 32.622 8.231 20.574 31.893 19.475 39.22-1.822 5.507-16.006-9.59-34.922-24.582-30.801M207.46 197.259c-4.675.71-.424-1.453-49.92 25.392-45.549 24.705-43.967 23.949-50.077 23.949-22.684.002-30.74-29.075-11.458-41.355 2-1.273 2.477-2.258 1.544-3.192-1.636-1.634-8.662 3.746-11.797 9.033-10.49 17.692 2.344 39.547 22.72 38.693 6.281-.264 5.292.214 51.648-24.939 46.525-25.241 44.493-24.238 49.535-24.463 16.2-.726 25.87 15.84 18.171 31.128-6.247 12.407-23.058 17.36-34.586 10.194-1.835-1.142-3.077-1.156-3.433-.04-.98 3.09 9.456 6.862 17.64 6.377 23.263-1.378 35.085-29.92 18.636-44.992-4.816-4.413-12.321-6.745-18.623-5.786m88.48 35.677c-4.047 22.934-16.46 41.114-41.458 60.715-8.655 6.786-9.742 8.12-11.5 14.104-4.293 14.61-1.547 30.658 7.71 45.053 2.314 3.598 1.88 3.602 4.914-.044 17.996-21.622 31.62-58.56 38.897-105.456 2.109-13.59 3.168-24.192 1.437-14.373m19.373 13.272c-4.334 1.388-6.7 6.97-4.787 11.293 2.335 5.28-1.245 15.607-11.062 31.906-4.53 7.516-5.354 9.3-5.363 11.588-.018 4.658 4.894 9.391 10.249 9.876 8.227.746 14.067-8.92 15.632-25.88.566-6.137 1.261-8.128 3.797-10.88 4.45-4.827 10.518-.666 11.644 7.98 1.446 11.127 11.494 13.378 16.302 3.65 2.544-5.144 4.615-7.485 6.116-6.91 1.552.596 2.752 6.869 2.258 11.804-1.694 16.906 11.686 29.763 21.65 20.805 4.05-3.642 3.088-7.933-4.432-19.756-4.488-7.057-5.033-8.553-5.032-13.822 0-4.296.837-8.372 2.752-13.41 3.64-9.583.245-18.412-6.068-15.775-1.938.81-5.94 3.978-7.77 6.15-5.065 6.016-9.409 8.276-15.883 8.262-6.747-.014-10.87-2.254-15.477-8.407-4.97-6.637-10.393-9.8-14.527-8.476" id="path0"/><path stroke="null" fill-rule="evenodd" fill="#d8dbc3" d="M282.563 12.102c.42.08 1.107.08 1.527 0 .42-.081.077-.147-.763-.147-.84 0-1.185.066-.764.147m12.986 5.363c.633.653 1.227 1.188 1.32 1.188.094 0-.347-.535-.981-1.188-.635-.655-1.23-1.19-1.323-1.19-.093 0 .35.535.982 1.19m-32.594.275c0 .058.497.555 1.104 1.104l1.104.996-.998-1.102c-.93-1.029-1.21-1.26-1.21-.998m6.6 2.016-.998 1.103 1.104-.998c.607-.549 1.104-1.045 1.104-1.104 0-.262-.28-.03-1.21.998m-37.397 10.61c.001.933.067 1.275.145.758.078-.515.077-1.28-.005-1.697-.08-.417-.144.005-.141.939m103.705-.655c-.14.143-.254.647-.254 1.12 0 .618.104.757.369.492.201-.203.316-.707.253-1.12-.062-.412-.227-.633-.368-.49M202.27 34.44c.004.747.074 1.012.156.59.08-.422.077-1.033-.008-1.358-.085-.325-.152.02-.148.768m115.78 3.904c0 .84.065 1.184.147.764a4.88 4.88 0 0 0 0-1.528c-.082-.42-.148-.076-.148.764m-1.063 1.528a12.07 12.07 0 0 1-.27 1.528c-.163.653-.117.76.199.467.23-.212.349-.89.271-1.528-.078-.63-.167-.842-.2-.468M202.61 41.91c.004.745.073 1.011.154.589.082-.423.08-1.034-.006-1.359-.085-.323-.152.022-.148.77m-1.018 2.036c.004.746.072 1.012.154.59.081-.422.079-1.033-.007-1.357-.086-.326-.152.019-.148.766m116.79 2.376c.003.747.073 1.013.155.59.08-.422.077-1.033-.008-1.358-.086-.324-.153.022-.149.768m-1.017 2.037c.004.746.074 1.012.155.59.08-.423.078-1.034-.008-1.359-.085-.323-.15.023-.147.77M202.95 49.376c.004.748.073 1.014.154.591.082-.422.078-1.034-.006-1.358-.085-.325-.152.021-.148.767m157.524.171c0 .653.069.92.154.593a2.75 2.75 0 0 0 0-1.186c-.085-.328-.154-.06-.154.594m16.005.158c-.107.274-.113.694-.018.934.097.24.187.076.203-.365.019-.578.172-.743.553-.598.302.116.438.06.319-.133-.303-.492-.84-.41-1.058.162M201.93 51.415c.003.747.072 1.013.154.59.081-.422.077-1.034-.007-1.358-.086-.325-.152.021-.148.768m-10.014 1.428c.423.081 1.034.079 1.359-.006.324-.086-.02-.152-.768-.148-.748.003-1.013.072-.592.153m14.94.34c.42.081 1.032.078 1.357-.006.324-.086-.02-.152-.768-.148-.746.003-1.012.071-.59.153m111.87 1.118c0 .84.067 1.185.148.765a4.88 4.88 0 0 0 0-1.528c-.081-.42-.147-.077-.147.764m-110.347-.096a7.505 7.505 0 0 0 1.868 0c.514-.078.094-.141-.933-.141-1.028 0-1.448.063-.934.14m-10.69.338c.422.082 1.033.08 1.358-.006.325-.086-.02-.152-.768-.148-.746.004-1.012.074-.59.155m120.013 1.967c.003.747.072 1.013.154.59.081-.422.079-1.033-.007-1.358-.085-.325-.151.02-.147.767m61.104.17c0 .654.07.921.154.594a2.75 2.75 0 0 0 .001-1.187c-.084-.327-.153-.06-.153.595m-175.525.338c0 .655.07.922.156.595a2.79 2.79 0 0 0 0-1.187c-.086-.327-.156-.06-.156.593m162.092-.113c-.124.125-.224.392-.221.595.004.231.1.217.263-.039.143-.225 1.248-.461 2.456-.53l2.2-.122-2.237-.065c-1.228-.036-2.336.037-2.46.16m-163.105 1.98c.004.748.074 1.013.156.592.08-.423.077-1.034-.008-1.359-.085-.324-.152.02-.148.768m122.044-.603c.604.076 1.673.077 2.377.003.705-.074.212-.135-1.095-.136-1.306-.001-1.883.058-1.28.134M161.88 61.94c.003.933.07 1.275.147.758.078-.515.077-1.28-.005-1.697-.08-.416-.144.006-.141.94m157.181.34c.005.746.074 1.012.155.59.082-.422.078-1.034-.006-1.358-.087-.325-.153.02-.15.768M153.4 63.807c0 1.026.064 1.447.141.934a7.515 7.515 0 0 0 0-1.867c-.078-.513-.142-.093-.142.934m164.65.679c0 .84.067 1.184.149.764a4.88 4.88 0 0 0 0-1.528c-.082-.42-.148-.076-.148.764m-114.421.17c.002.747.071 1.013.153.59.081-.423.079-1.034-.007-1.358-.085-.325-.151.021-.147.767M76.99 65.06c.326.085.861.085 1.188-.001.328-.086.06-.155-.594-.155-.653 0-.92.069-.594.154M202.61 66.69c.004.748.073 1.014.154.59.082-.422.08-1.033-.006-1.357-.086-.325-.152.021-.148.767m158.882-.17c0 .654.07.921.154.595a2.755 2.755 0 0 0 0-1.189c-.085-.326-.154-.058-.154.595m17.315 1.018c0 .655.069.922.154.596a2.755 2.755 0 0 0 .001-1.19c-.084-.325-.153-.058-.153.595m-87.587-.095a7.515 7.515 0 0 0 1.867 0c.514-.078.093-.142-.933-.142-1.027 0-1.447.064-.934.142M153.389 68.9c-.001.84.065 1.184.145.764a4.805 4.805 0 0 0 0-1.528c-.08-.42-.146-.076-.146.764m85.547-.446c.326.086.86.086 1.188 0 .327-.085.06-.155-.595-.155-.653 0-.92.07-.593.154m80.463 1.974c.003.746.073 1.012.155.59.08-.422.078-1.033-.008-1.358-.085-.325-.151.02-.147.768m-1.019 2.037c.005.746.075 1.012.156.59.08-.422.078-1.033-.007-1.358-.086-.325-.153.02-.149.768m-219.32-.277a2.75 2.75 0 0 0 1.188 0c.327-.085.06-.154-.594-.154s-.921.07-.594.154m3.055 0a2.75 2.75 0 0 0 1.188 0c.328-.085.06-.154-.593-.154-.654 0-.922.07-.595.154m-38.449 1.634c-.825.84-1.423 1.528-1.329 1.528.093 0 .844-.688 1.67-1.528.823-.84 1.421-1.528 1.329-1.528-.093 0-.845.688-1.67 1.528m139.284.34c.004.747.073 1.012.154.59s.078-1.033-.006-1.358c-.086-.325-.152.02-.148.768m73.396.594-.997 1.103 1.101-.998c.609-.549 1.105-1.045 1.105-1.104 0-.262-.28-.03-1.21.998m43.342 3.48c.01 1.185.058 1.265.366.629.245-.51.242-.92-.013-1.359-.304-.523-.363-.4-.353.73m-.96 2.206c0 .84.067 1.184.148.764a4.88 4.88 0 0 0 0-1.528c-.081-.42-.148-.076-.148.764m-57.561 3.98c.603.075 1.673.077 2.377.003.704-.073.211-.135-1.096-.137-1.307 0-1.883.06-1.281.134m-75.956 7.33c0 .06.496.556 1.102 1.103l1.104.999-.997-1.104c-.93-1.029-1.21-1.26-1.21-.997m168.557 6.768-3.048 3.142 3.139-3.048c2.915-2.832 3.293-3.233 3.048-3.233-.051.001-1.464 1.415-3.141 3.14m-174.33 6.474c0 .058.497.555 1.104 1.102l1.105.998-.998-1.103c-.93-1.028-1.21-1.259-1.21-.996m104.308 1.591c0 .653.07.92.155.593a2.79 2.79 0 0 0 0-1.187c-.085-.327-.155-.06-.155.595m-42.431 1.866c.003.749.072 1.015.154.592.081-.422.079-1.034-.007-1.358-.084-.325-.15.021-.146.767m-56.104 2.718c.633.654 1.227 1.188 1.321 1.188.094 0-.347-.534-.981-1.188s-1.229-1.189-1.323-1.189c-.093 0 .349.534.983 1.188m98.535-.17c0 .654.07.922.155.594a2.79 2.79 0 0 0 0-1.187c-.085-.328-.155-.06-.155.593m-92.595 5.772c.73.746 1.403 1.357 1.496 1.357.095 0-.426-.61-1.156-1.357s-1.403-1.358-1.496-1.358c-.093 0 .427.61 1.156 1.358m89.868 2.893c-.406.836-.667 1.52-.58 1.52.23 0 1.602-2.758 1.448-2.91-.07-.072-.46.553-.868 1.39m-85.963.672c.634.653 1.229 1.188 1.322 1.188.093 0-.35-.535-.982-1.188-.634-.654-1.229-1.19-1.321-1.19-.095 0 .347.536.981 1.19m53.982 6.45c1.014 1.027 1.92 1.868 2.014 1.868.094 0-.66-.84-1.674-1.868-1.014-1.026-1.92-1.867-2.014-1.867-.093 0 .66.84 1.675 1.867m27.16-.339c-.824.84-1.422 1.528-1.33 1.528.093 0 .845-.688 1.67-1.528.825-.84 1.423-1.528 1.329-1.528-.093 0-.844.688-1.67 1.528m-72.314 1.634c0 .058.496.555 1.104 1.103l1.104.997-.999-1.103c-.928-1.03-1.208-1.26-1.208-.997m4.414 4.137c.634.653 1.228 1.188 1.321 1.188.093 0-.348-.535-.981-1.188-.634-.653-1.229-1.187-1.322-1.187-.094 0 .348.534.982 1.187m7.299 6.96c2.235 2.241 4.14 4.075 4.233 4.075.094 0-1.659-1.834-3.893-4.074-2.235-2.241-4.14-4.074-4.233-4.074-.093 0 1.658 1.833 3.893 4.074m124.072 2.97-1.17 1.273 1.273-1.17c.7-.642 1.273-1.215 1.273-1.272 0-.26-.288-.015-1.376 1.17m-85.707 1.782c.73.748 1.402 1.359 1.496 1.359.093-.001-.428-.612-1.157-1.36-.73-.747-1.403-1.358-1.497-1.358-.093 0 .427.61 1.157 1.358m76.036 7.894-1.684 1.782 1.782-1.684c.98-.927 1.783-1.73 1.783-1.783 0-.254-.315.027-1.88 1.684m-50.405 1.104c1.203 1.213 2.264 2.206 2.357 2.206.093 0-.815-.993-2.018-2.206-1.203-1.215-2.264-2.208-2.358-2.208-.093 0 .815.993 2.018 2.208m-15.956.678c1.013 1.028 1.92 1.868 2.013 1.868.093 0-.66-.84-1.676-1.868-1.013-1.027-1.92-1.867-2.012-1.867-.095-.001.66.839 1.674 1.866m-235.872.744a2.79 2.79 0 0 0 1.188 0c.327-.086.06-.156-.594-.156s-.921.07-.594.156m297.136 2.226-1.342 1.444 1.444-1.342c1.341-1.249 1.599-1.544 1.341-1.544-.056 0-.705.65-1.443 1.442m-136.205-.18c.515.079 1.28.076 1.697-.004.417-.082-.005-.145-.939-.143-.933.002-1.275.068-.758.146m129.594 6.462-3.22 3.31 3.311-3.218c1.822-1.771 3.311-3.26 3.311-3.31.001-.247-.411.144-3.4 3.218m10.87-1.104c-.824.84-1.423 1.528-1.33 1.528.093 0 .845-.687 1.67-1.528.825-.84 1.423-1.527 1.329-1.527-.094 0-.845.687-1.67 1.527m34.63.34c.633.653 1.228 1.188 1.32 1.188.095 0-.347-.535-.98-1.188-.635-.654-1.23-1.189-1.322-1.189-.093 0 .348.535.981 1.19m-238.754-.61c.423.08 1.034.078 1.358-.007.325-.085-.021-.151-.767-.148-.748.004-1.014.074-.59.156m2.715 0c.422.08 1.033.077 1.358-.008.325-.085-.02-.151-.768-.148-.747.004-1.012.074-.59.156m85.297 5.36c.633.654 1.227 1.189 1.32 1.189.094 0-.347-.535-.981-1.188-.635-.653-1.23-1.188-1.323-1.188-.093 0 .349.534.982 1.187m-110.53.933-1 1.104 1.105-.997c1.028-.93 1.259-1.21.997-1.21-.059 0-.555.497-1.103 1.103m50.762 1.019c.833.886 1.558 1.612 1.613 1.612.255 0-.015-.305-1.514-1.711l-1.612-1.513 1.514 1.612m11.206 2.885-1.856 1.952 1.953-1.855c1.813-1.724 2.107-2.049 1.855-2.049-.052 0-.93.879-1.952 1.952m176.674 14.344c0 1.586.058 2.235.13 1.442a19.5 19.5 0 0 0 0-2.886c-.072-.793-.13-.144-.13 1.443m-120.53.678c0 1.4.06 1.973.133 1.273.074-.7.074-1.845 0-2.545-.072-.7-.132-.127-.132 1.273m19.316-.679c-.001.653.069.92.154.593a2.79 2.79 0 0 0 0-1.188c-.085-.327-.155-.06-.155.594m-143.583 5.43c0 1.215.063 1.712.138 1.105.075-.608.075-1.6 0-2.207s-.138-.11-.138 1.103m268.255-.593-1.342 1.443 1.444-1.342c1.342-1.248 1.599-1.544 1.342-1.544-.056 0-.706.65-1.444 1.443m-291.37 1.612c0 .654.069.92.154.594a2.75 2.75 0 0 0 0-1.188c-.085-.327-.154-.06-.154.593m224.713 3.208c-.024 1.014.083 1.553.269 1.358.171-.18.19-.918.038-1.68l-.269-1.36-.038 1.682m-58.016 1.545c-.001.653.069.92.154.593a2.79 2.79 0 0 0 0-1.187c-.085-.329-.155-.061-.155.593m-32.249-.106c.329.086.863.086 1.19 0 .326-.085.06-.155-.594-.155-.653 0-.92.07-.595.156m4.588.006c.423.08 1.034.078 1.359-.008.325-.085-.02-.151-.768-.147-.748.002-1.013.072-.592.154m-12.564 2.33c-1.317.714-1.168.96.17.281 1.279-.652 1.505-.82 1.074-.8-.17.007-.731.24-1.244.519m27.231 4.304c.831.888 1.557 1.613 1.612 1.613.255.001-.014-.304-1.514-1.711l-1.612-1.515 1.515 1.613m-35.38.11c-1.269.688-1.192.975.085.314.56-.289 1.018-.598 1.018-.687 0-.218-.035-.207-1.102.373m32.847 2.182c.73.747 1.402 1.358 1.496 1.358.092 0-.43-.61-1.158-1.358-.73-.747-1.402-1.359-1.496-1.359-.093.001.427.613 1.157 1.36m148.363 0c.73.747 1.403 1.358 1.496 1.358.093 0-.426-.61-1.156-1.358-.73-.747-1.403-1.359-1.496-1.359-.094.001.427.613 1.156 1.36m-179.173.533c-1.27.69-1.193.976.084.316.56-.291 1.018-.6 1.018-.69 0-.217-.035-.205-1.102.373m97.94 1.164c0 .654.07.922.156.595a2.79 2.79 0 0 0-.001-1.188c-.087-.327-.157-.06-.157.593m-108.125.535c-1.27.687-1.193.975.084.314.56-.29 1.018-.6 1.018-.687 0-.22-.036-.208-1.102.372m44.795 3.026c.31.65.625 1.124.7 1.05.154-.155-.877-2.234-1.108-2.234-.086 0 .098.532.408 1.184m-42.758-.31c-1.27.688-1.193.975.084.314.559-.29 1.017-.599 1.017-.688 0-.217-.036-.206-1.102.373m-13.92 3.735c-1.27.688-1.193.975.084.315.56-.29 1.018-.6 1.018-.689 0-.217-.037-.204-1.104.374m120.01 2.182c0 .654.07.921.155.594a2.79 2.79 0 0 0-.001-1.188c-.087-.327-.157-.06-.157.594m-117.972.534c-1.268.688-1.19.976.086.315.56-.29 1.019-.6 1.019-.688 0-.219-.037-.206-1.104.373m56.881 2.692c.004.933.069 1.274.148.759.077-.517.075-1.28-.005-1.698-.08-.418-.144.003-.142.938m66.803 3.253c-.25 1.712-.285 2.895-.09 3.09.195.194.407-.81.555-2.626.307-3.78.056-4.032-.465-.464m-131.83-1.532c-1.27.69-1.192.976.085.317.56-.29 1.019-.6 1.019-.689 0-.218-.037-.205-1.104.373m-80.266 2.693c.002 1.307.063 1.8.137 1.096.072-.705.07-1.775-.004-2.378-.074-.602-.135-.026-.133 1.28m-3.402 0c.002 1.12.065 1.539.142.929.075-.61.074-1.526-.004-2.036s-.14-.012-.138 1.109m79.934-.655c-1.27.689-1.193.975.084.316.56-.29 1.019-.6 1.019-.689 0-.218-.037-.205-1.104.373m-10.186 1.699c-1.27.687-1.192.975.085.314.56-.29 1.017-.599 1.017-.686 0-.22-.037-.207-1.103.373m203.257.569-.995 1.103 1.102-.999c1.029-.928 1.26-1.208.998-1.208-.058 0-.555.496-1.104 1.104m-58.144 1.442c.005.374.132 1.062.28 1.528l.273.85.008-.85c.007-.466-.12-1.154-.281-1.528l-.292-.678.01.678m-143.074.704c-1.269.69-1.191.975.086.315.56-.29 1.018-.599 1.018-.688 0-.219-.037-.207-1.103.372m-10.185 1.697c-1.269.688-1.191.975.086.315.56-.29 1.02-.6 1.02-.689 0-.217-.038-.205-1.105.373m153.28 1.843c0 .653.07.92.156.593a2.79 2.79 0 0 0 .001-1.188c-.084-.327-.154-.06-.154.595m-157.015.193c-1.268.69-1.192.976.085.316.56-.29 1.019-.6 1.019-.689 0-.217-.036-.205-1.103.373m95.566.825c0 .654.07.922.154.595a2.75 2.75 0 0 0 0-1.188c-.085-.327-.154-.06-.154.594m-89.794-.144c-1.269.688-1.191.975.086.315.56-.29 1.018-.6 1.018-.687 0-.219-.037-.206-1.104.373m-3.734 2.037c-1.27.688-1.193.975.084.315.56-.29 1.019-.6 1.019-.688 0-.219-.035-.206-1.102.373m-57.631.275c0 .364 1.01 2.246 1.205 2.246.093 0-.082-.496-.39-1.103-.63-1.239-.815-1.497-.815-1.142m47.446 1.422c-1.27.69-1.193.976.084.315.56-.29 1.019-.599 1.019-.688 0-.217-.036-.206-1.103.373m91.569 1.25-1.685 1.782 1.783-1.686c1.656-1.565 1.937-1.88 1.684-1.88-.053 0-.855.803-1.782 1.783m11.841 2.12c.001 1.495.061 2.063.134 1.265.071-.799.07-2.02-.003-2.716-.072-.696-.132-.043-.13 1.45m-9.295.086-1.857 1.951 1.953-1.855c1.813-1.723 2.107-2.048 1.855-2.048-.051 0-.93.878-1.95 1.952m-134.264.085c.73.747 1.403 1.358 1.496 1.358.094 0-.427-.61-1.156-1.357-.73-.746-1.403-1.358-1.496-1.358-.093 0 .426.612 1.156 1.36m42.184-.826c-1.27.689-1.193.975.084.316.56-.29 1.019-.6 1.019-.69 0-.217-.036-.204-1.103.374m60.245 1.91c-.552.552-.513.839.15 1.093.437.166.476.114.178-.245-.28-.338-.275-.56.02-.856.22-.22.322-.4.23-.4-.094 0-.353.183-.578.407m-104.805 1.29c.73.747 1.402 1.358 1.496 1.358.093 0-.428-.61-1.157-1.358-.73-.746-1.403-1.358-1.497-1.358-.093 0 .427.61 1.157 1.357m30.64.534c-1.27.689-1.192.977.085.316.56-.29 1.018-.6 1.018-.688 0-.219-.037-.206-1.103.373m66.781 1.25-1.34 1.443 1.443-1.342c1.342-1.248 1.6-1.543 1.342-1.543-.056 0-.705.649-1.444 1.442m-60.244 1.781c1.013 1.029 1.92 1.87 2.013 1.87.093 0-.66-.841-1.675-1.869-1.014-1.025-1.92-1.865-2.013-1.865-.095 0 .66.84 1.674 1.866m78.68-.94c.606.074 1.6.074 2.207 0 .607-.076.11-.138-1.104-.138s-1.71.062-1.104.137m-98.796 1.7c.793.072 2.092.072 2.885 0 .795-.072.145-.13-1.442-.13-1.588 0-2.237.058-1.443.13m128.87 2.637c0 1.307.062 1.8.136 1.096.072-.705.07-1.775-.004-2.377-.074-.602-.135-.027-.133 1.28m-29.56-.944c.516.078 1.28.077 1.698-.005.417-.08-.005-.144-.939-.141-.935.002-1.276.069-.76.146m-20.809 2.727-2.196 2.29 2.291-2.196c1.26-1.209 2.292-2.24 2.292-2.292 0-.25-.346.069-2.386 2.197m-78.5-1.026c.793.072 2.092.072 2.885 0 .795-.07.145-.13-1.442-.13-1.588 0-2.237.06-1.443.13m20.625 1.11c.73.747 1.402 1.358 1.496 1.358.094 0-.427-.611-1.156-1.357-.73-.748-1.402-1.359-1.496-1.359-.093 0 .428.611 1.157 1.359m4.583-.573c0 .058.497.555 1.103 1.102l1.105.998-.997-1.103c-.93-1.03-1.21-1.26-1.21-.998m45.987 2.694-1.342 1.443 1.443-1.342c1.342-1.25 1.6-1.545 1.342-1.545-.056 0-.705.65-1.443 1.443m112.278-.58c-.569 1.25-.46 1.515.154.38.288-.53.46-1.026.382-1.104-.078-.078-.32.248-.537.724m72.408.92-.996 1.103 1.103-.999c1.028-.928 1.26-1.208.998-1.208-.059 0-.555.496-1.104 1.104m-52.34.594c0 .84.067 1.184.148.764a4.88 4.88 0 0 0 0-1.528c-.081-.42-.147-.076-.147.764m-74.364 1.357c0 .655.069.922.154.595a2.75 2.75 0 0 0 0-1.188c-.085-.327-.154-.06-.154.593m52.035 1.699c-.29.56-.45 1.018-.356 1.018.093 0 .407-.458.697-1.018.29-.56.45-1.019.357-1.019-.093 0-.406.459-.696 1.019m89.54.338c0 .655.069.922.154.595a2.75 2.75 0 0 0 0-1.189c-.085-.326-.154-.059-.154.594m-18.603.426-.998 1.102 1.103-.997c1.028-.93 1.259-1.21.996-1.21-.06 0-.556.497-1.103 1.105m-321 1.527-1.17 1.274 1.273-1.17c1.184-1.09 1.429-1.376 1.17-1.376-.057 0-.63.573-1.273 1.273m230.012 6.96-.998 1.103 1.103-.997c.607-.548 1.103-1.045 1.103-1.103 0-.263-.28-.032-1.21.996m8.49 7.13-1 1.104 1.105-.997c.607-.549 1.103-1.045 1.103-1.104 0-.263-.28-.033-1.21.996m-16.635 1.019-.996 1.103 1.102-.996c.608-.55 1.104-1.046 1.104-1.104 0-.263-.28-.032-1.21.997m12.576 3.395-2.708 2.8 2.8-2.707c2.602-2.516 2.957-2.894 2.709-2.894-.051 0-1.312 1.26-2.801 2.8m-5.265 5.262-2.195 2.292 2.292-2.197c1.26-1.208 2.291-2.24 2.291-2.291 0-.25-.346.067-2.387 2.196m-4.08 3.735-1.17 1.274 1.273-1.17c1.184-1.09 1.428-1.376 1.17-1.376-.058 0-.63.573-1.273 1.273m97.892.594c.002.935.068 1.276.146.76.08-.516.077-1.28-.004-1.698-.081-.417-.145.006-.142.939m-.358 8.32c0 .653.07.92.155.593a2.79 2.79 0 0 0 0-1.188c-.086-.327-.156-.06-.156.594m-300.973.244c.603.075 1.672.076 2.378.003.704-.073.211-.135-1.096-.137-1.308 0-1.883.059-1.281.134m188.676 2.895-1.684 1.781 1.782-1.683c.98-.927 1.783-1.729 1.783-1.782 0-.254-.315.028-1.88 1.684M85.394 310.117c.633.655 1.228 1.19 1.322 1.19.093 0-.35-.535-.983-1.19-.633-.653-1.227-1.188-1.322-1.188-.093 0 .35.535.983 1.188m296.71 1.104-1.17 1.273 1.273-1.17c1.185-1.088 1.43-1.376 1.17-1.376-.058-.001-.63.572-1.273 1.272m-141.131 6.026c.004.747.074 1.013.155.59.08-.422.077-1.033-.009-1.358-.084-.325-.15.022-.146.768m122.917 7.979c0 1.027.065 1.447.142.933a7.505 7.505 0 0 0 0-1.867c-.077-.514-.14-.094-.14.934m-122.918.849c.004.746.074 1.012.155.59.08-.422.077-1.033-.009-1.358-.084-.325-.15.02-.146.768m29.523 3.407c-.783 1.58-1.351 2.873-1.26 2.873.225 0 2.958-5.473 2.807-5.624-.067-.067-.763 1.17-1.547 2.75m-38.32-.012c.002 1.495.062 2.063.133 1.264.073-.798.071-2.02-.001-2.715-.075-.696-.134-.043-.132 1.45m-35.843-.942c.61.076 1.526.074 2.037-.003.51-.077.01-.14-1.11-.137-1.12.001-1.538.065-.927.14m8.148 0c.61.076 1.526.074 2.037-.003.51-.077.01-.14-1.11-.137-1.12.001-1.538.065-.927.14m-106.434 4.847c0 .84.065 1.184.147.764a4.88 4.88 0 0 0 0-1.53c-.082-.42-.148-.076-.148.765m239.343 9.75a7.515 7.515 0 0 0 1.868 0c.514-.078.094-.142-.934-.142-1.026 0-1.446.064-.933.141m-90.733 2.943c0 .364 1.01 2.246 1.205 2.246.094 0-.083-.497-.39-1.103-.63-1.24-.815-1.498-.815-1.143m6.686 9.216c-.523.46-.817.84-.653.84.164 0 .658-.383 1.096-.85 1.014-1.08.79-1.075-.444.01m61.652 12.552c.003.933.068 1.274.147.759.077-.516.075-1.28-.005-1.697-.08-.418-.144.003-.142.938m-192.852 1.76c.327.087.862.087 1.189 0 .326-.085.059-.153-.595-.153-.653 0-.92.068-.594.154m192.856 1.804c0 1.026.064 1.446.141.933a7.515 7.515 0 0 0 0-1.868c-.077-.513-.14-.093-.14.935m-61.284 62.418c.521.331 4.017.29 4.358-.052.132-.13-.895-.234-2.28-.232-1.444.003-2.33.124-2.079.284m94.383 0c.522.331 4.018.29 4.359-.052.13-.13-.896-.234-2.282-.232-1.443.003-2.33.124-2.077.284" id="path1"/><path stroke="null" fill-rule="evenodd" fill="#247cc4" d="M279.338 12.726c-3.532.951-7.463 3.483-10.719 6.906-2.337 2.454-2.182 2.422-3.41.688-5.088-7.19-17.253-9.367-24.855-4.45-7.697 4.979-9.902 13.762-5.942 23.655.575 1.432 1.043 2.66 1.043 2.73 0 .067-.916.612-2.037 1.209-11.51 6.135-7.82 23.427 5.26 24.648 3.534.33 4.766-.24 29.369-13.587l23.255-12.616h3.396c13.124 0 15.345 17.515 2.962 23.358-2.806 1.324-7.132 1.525-10.15.472-2.76-.963-2.76-.968.591-5.497 1.66-2.241 3.019-4.266 3.024-4.5.011-.554-.55-.547-.764.01-1.041 2.71-15.059 19.485-18.695 22.368-2.804 2.226-5.723 1.277-11.01-3.576-.797-.73-1.56-1.215-1.697-1.073-.792.82 6.969 6.245 9.649 6.743 2.005.373 6.22-3.39 12.96-11.568 1.576-1.914 2.893-3.48 2.926-3.48.034 0 .694.305 1.467.68 8.523 4.117 18.98-1.457 20.44-10.897 1.151-7.443-4.18-13.91-11.533-13.99-3.27-.034-3.097-.117-27.805 13.275-24.23 13.135-25.246 13.6-28.667 13.153-12.333-1.614-15.33-17.85-4.323-23.428 2.114-1.072 1.923-1.103 2.706.433.364.712 1.629 2.571 2.81 4.13 2.912 3.846 2.9 3.833 3.35 3.683.229-.077-.313-.992-1.277-2.158-9.355-11.315-11.056-23.024-4.438-30.543 7.148-8.122 20.776-7.289 27.72 1.694l1.482 1.915 2.354-2.553c8.097-8.786 17.803-9.95 25.661-3.076 3.893 3.406 5.602 11.085 3.618 16.256-.17.444-.107.583.22.473.997-.333 1.64-6.048 1.043-9.277-1.58-8.545-11.37-14.525-19.982-12.207M157.62 18.682c-8.31.878-20.447 6.802-20.657 10.083-.02.32-.076 3.103-.122 6.184-.227 14.957-4.044 22.057-15.604 29.028-2.627 1.584-6.09 3.692-7.698 4.685-8.786 5.431-18.982 4.823-31.485-1.878-4.515-2.42-5.124-2.33-11.022 1.631-7.078 4.753-11.455 9.696-14.742 16.65-1.947 4.118-1.84 5.616.668 9.347 5.501 8.182 8.2 17.73 7.085 25.073-.321 2.122-.944 3.678-3.74 9.336-1.846 3.735-3.986 8.242-4.757 10.016-4.064 9.356-14.985 15.606-27.294 15.619-4.434.005-5.715 1.115-8.445 7.32-3.44 7.825-4.42 13.293-3.688 20.604.623 6.22 1.03 6.849 5.79 8.936 9.156 4.011 16.097 10.028 19.556 16.95 1.591 3.187 1.645 3.43 2.523 11.544.223 2.053.695 5.415 1.052 7.47 1.702 9.832 1.823 11.115 1.378 14.643-1.06 8.391-5.03 14.839-13.246 21.514-4.433 3.6-4.703 4.504-3.294 11.02 1.923 8.893 4.633 14.09 10.622 20.368 3.192 3.343 4.042 3.613 8.321 2.637 15.06-3.437 24.972-1.002 32.864 8.073 1.543 1.774 4.585 5.06 6.76 7.3 10.196 10.503 12.14 19.16 7.636 34-1.54 5.075-1.338 5.652 3.801 10.815 5.392 5.414 10.582 8.58 17.23 10.506 6.8 1.97 7.09 1.897 11.948-3.038 8.931-9.074 18.759-13.508 25.597-11.551 5.636 1.613 15.327 3.932 19.18 4.59 10.304 1.761 17.286 8.855 21.889 22.239 2.128 6.188 2.275 6.329 7.92 7.527 8.181 1.736 14.943 1.436 22.276-.987 6.33-2.093 6.763-2.606 7.67-9.087 1.249-8.911 3.703-14.9 7.928-19.34 1.68-1.767 1.667-1.673.384-2.902-5.713-5.474-10.036-17.31-9.776-26.768l.105-3.831-3.564.777c-88.613 19.329-168.802-57.189-153.93-146.883 7.11-42.886 36.99-80.627 76.769-96.965 3.757-1.544 3.53-1.15 2.72-4.723-3.757-16.572 2.757-41.72 14.745-56.932l.988-1.254-1.286-.356c-1.47-.407-7.158-.403-11.05.008m177.858 2.772c-.116 1.353-.684 10.023-1.265 19.266-.579 9.243-1.075 16.826-1.102 16.85-.555.508-2.275-.486-2.78-1.605-.745-1.654-.945-1.652-1.885.02l-.756 1.345-2.574.098-2.576.098-1.243 11.823c-1.188 11.301-1.642 14.199-1.65 10.555-.02-9.173-2.101-49.076-2.535-48.64-.132.13-2.893 24.423-2.893 25.438 0 .15-.573.32-1.273.378-1.174.098-1.36.266-2.368 2.144l-1.094 2.037-.01-3.99c-.005-2.426-.142-3.988-.349-3.988-.212 0-.34 1.924-.34 5.093 0 5.938.07 6.015 1.959 2.206l1.43-2.884h1.36c.863 0 1.36-.155 1.36-.425.002-1.216 2.03-18.693 2.19-18.852.103-.103.187.234.187.75 0 2.75 2.094 49.253 2.223 49.383.422.421.666-1.352 2.123-15.379l1.57-15.135h2.441c2.357 0 2.464-.036 3.103-1.045l.663-1.047.739 1.253c.535.909.912 1.207 1.371 1.087.489-.127.768.157 1.212 1.236.913 2.22 1.048 1.183 2.06-15.914.508-8.59 1.024-15.73 1.144-15.868.177-.201 2.105 27.145 2.07 29.364-.007.486.293.594 1.654.594h1.664l.61-1.698c.76-2.11.963-2.116 1.653-.036.645 1.943.915 2.061 4.68 2.07l2.629.003.463-1.103.463-1.103.228 2.375c.586 6.077.639 6.149 2.031 2.706.795-1.956.876-2.036 2.38-2.337 1.391-.277 1.576-.422 1.72-1.358.19-1.215 1.548-17.026 1.546-17.993 0-.36.09-.56.202-.45.11.11.76 9.458 1.442 20.772.749 12.395 1.376 20.602 1.581 20.65.257.06 3.047-19.172 3.203-22.074.017-.31.945-.424 3.438-.424 2.192 0 3.342-.122 3.207-.34-.325-.524-7.297-.443-7.313.086-.07 2.118-2.309 17.2-2.458 16.55-.108-.467-.738-10.152-1.401-21.522-1.517-26.012-1.464-25.856-2.93-8.83-1.32 15.308-1.049 13.934-2.797 14.199-1.278.192-1.506.373-2.09 1.649-.754 1.65-.72 1.747-1.135-3.245-.291-3.51-.634-3.803-1.49-1.278-.849 2.492-.842 2.489-3.852 2.164l-2.625-.283-.847-2.292c-.465-1.26-.962-2.291-1.106-2.291-.143 0-.623 1.03-1.065 2.291-.958 2.73-3.01 3.722-3.01 1.454 0-1.182-1.905-30.745-2.227-34.556-.115-1.354-.33-2.461-.48-2.461-.148 0-.365 1.107-.48 2.46m-118.357.852c0 .866-1.632 25.612-1.877 28.454-.246 2.862-1.627 3.383-2.508.946-.512-1.417-1.034-1.337-1.56.238-.388 1.155-.42 1.17-2.74 1.338l-2.348.17-.898 8.828c-.493 4.854-.969 9.208-1.057 9.675-.202 1.072-.11 2.675-1.213-21.022-.563-12.1-1.038-19.537-1.251-19.607-.215-.072-.71 3.53-1.306 9.478a1778.4 1778.4 0 0 1-1.143 11.187c-.18 1.59-.186 1.598-1.565 1.7-1.152.085-1.42.244-1.603.95-.275 1.071-.607-.441-.742-3.368-.1-2.17-.752-2.657-1.08-.806-.458 2.58-.324 2.476-3.22 2.476h-2.642l-.81-2.037c-1-2.518-1.172-2.526-1.867-.084-.474 1.664-1.102 2.964-1.183 2.446-.012-.084-.585-6.71-1.273-14.724-.77-8.975-1.389-14.617-1.613-14.691-.245-.082-.669 4.76-1.304 14.91-.981 15.694-1.076 16.594-1.593 15.25-.194-.505-.49-.73-.806-.608-.346.134-.716-.295-1.22-1.407-.772-1.706-.992-1.605-1.482.681-.196.917-.213.922-3.504 1.019-4.435.13-4.316.747.168.872l3.474.097.456-1.116.457-1.115.234.935c.152.602.46.933.87.933.425 0 .816.451 1.18 1.36.762 1.905 1.142 1.694 1.374-.765.185-1.946 1.516-22.005 1.577-23.767.074-2.065.43.978 1.289 11.018.517 6.053 1.053 11.186 1.19 11.41.601.97 1.568.423 1.98-1.123.503-1.88.625-1.89 1.465-.106l.67 1.422 3.05-.087c1.677-.048 3.145-.24 3.261-.428.232-.375.65 2.195.65 4 0 1.787.62 1.338 1.242-.897l.567-2.037h2.848l.187-1.612c.103-.886.46-4.473.793-7.97.333-3.494.682-6.28.774-6.186.092.091.58 9.338 1.083 20.548 1.159 25.74 1.1 25.575 2.85 8.122 1.488-14.857 1.037-13.241 3.697-13.241 2.043 0 2.195-.053 2.395-.847.273-1.095.746-1.086 1.022.02.163.647.405.84.956.763.595-.084.807.139 1.093 1.144.194.687.506 1.298.693 1.359.26.082 1.976-21.168 2.184-27.025.075-2.145.407 1.002 1.23 11.685 1.007 13.08.89 12.453 2.351 12.617 1.025.116 1.861-1.033 2.7-3.705.483-1.543-.426-.708-1.208 1.108-.63 1.466-.952 1.853-1.484 1.782-.647-.085-.739-.826-1.932-15.536-1.45-17.89-1.213-15.618-1.633-15.618-.187 0-.34.269-.34.597m123.47 133.155c-8.774 2.365-15.697 9.398-16.115 16.366l-.155 2.601 1.875 3.51c5.71 10.68 5.266 20.727-1.787 40.53-4.052 11.374-3.86 14.83 1.115 20.089 11.699 12.37 39.007 7.241 51.01-9.58 6.881-9.644 2.563-20.393-11.387-28.344-5.965-3.4-6.152-4.467-1.574-8.964 4.395-4.317 6.046-7.825 6.533-13.868 1.12-13.91-15.138-26.216-29.514-22.34m-155.82 1.402c-7.76 1.135-16.356 6.126-23.578 13.692l-3.411 3.571-2.059-2.489c-13.415-16.218-38.6-18.03-52.83-3.8-7.702 7.703-11.116 18.723-9.211 29.736.744 4.308.82 4.517 1.502 4.208.31-.142.997-.25 1.525-.242.817.011.932-.093.762-.703-9.674-34.706 35.24-54.695 57.212-25.46 2.945 3.917 3.03 3.925 5.894.488 14.682-17.6 31.748-20.984 47.178-9.35 8.612 6.492 11.606 17.2 8.465 30.27-.16.672 1.257 1.455 2.655 1.466 1.391.01 1.92-14.573.705-19.428-3.506-13.996-19.646-24.178-34.808-21.96m164.931 14.008c6.768 3.152 7.106 14.006.565 18.168-5.575 3.548-9.225 2.475-9.225-2.712 0-3.58-.412-5.707-1.79-9.226-1.002-2.563-1.018-2.686-.485-3.803 1.41-2.958 7.09-4.217 10.935-2.427M97.956 203.972c0 .22-.52.65-1.153.952l-1.154.55.646 1.88c2.635 7.66 13.153 24.022 16.643 25.89 1.67.894 2.755-1.607 1.276-2.942-4.015-3.627-11.398-15.186-14.402-22.546-1.648-4.036-1.858-4.464-1.858-3.784m250.605 4.121c8.348 2.614 12.391 8.936 9.302 14.54-3.372 6.116-13.682 10.938-17.74 8.3-1.16-.757-1.218-1.51-.398-5.262.634-2.901.765-4.572.786-10.002.014-3.861.161-6.654.363-6.853 1.52-1.504 4.344-1.768 7.688-.722m-148.07 19.067c-8.264 13.428-38.191 42.067-43.936 42.044-3.674-.015-16.841-9.94-28.928-21.806l-3.093-3.036-1.488.76-1.487.758 4.58 4.41c15.696 15.115 27.67 23.303 31.932 21.835 6.56-2.26 34.19-26.628 32.247-28.439-.772-.719-.91-1.965-.287-2.59.494-.493 2.187-.539 2.48-.067.482.779 1.237.145 4.142-3.481 7.597-9.484 8.885-12.138 5.89-12.138-.812 0-1.16.298-2.053 1.748m129.01 77.72c-9.341 1.394-12.207 6.09-10.243 16.788 1.976 10.76 1.693 17.03-1.306 29.021-5.749 22.982-2.904 34.34 9.231 36.87 19.534 4.074 34.733-.083 40.023-10.944 3.941-8.094-7.338-17.868-14.712-12.748-6.462 4.489-14.097 4.628-18.562.337-7.12-6.842 3.026-15.392 12.384-10.436 3.333 1.766 5.251 2.165 8.023 1.667 8.539-1.532 10.73-7.59 4.87-13.464-3.683-3.692-5.95-3.904-11.855-1.11-7.027 3.324-12.77 3.178-16.45-.421-5.634-5.508 1.37-13.206 9.386-10.318 16.082 5.797 18 6.128 20.637 3.571 2.99-2.897 3.761-9.785 1.606-14.338-4.21-8.885-21.053-16.268-33.03-14.478" id="path2"/><path stroke="null" fill-rule="evenodd" fill="#73a7ce" d="M248.104 13.114c.326.087.86.087 1.187 0 .329-.085.061-.154-.593-.154-.653 0-.92.07-.593.154m2.715 0a2.75 2.75 0 0 0 1.187 0c.327-.085.06-.154-.593-.154-.655 0-.922.07-.595.154m31.573.01a7.515 7.515 0 0 0 1.868 0c.514-.077.094-.14-.934-.14-1.026 0-1.446.063-.933.14m12.477 5.02c.634.652 1.229 1.187 1.322 1.187.093.001-.35-.534-.982-1.187-.634-.653-1.229-1.187-1.321-1.187-.096 0 .346.534.98 1.187m-25.989.934-1.34 1.443 1.443-1.342c1.342-1.249 1.6-1.544 1.342-1.544-.056 0-.705.65-1.444 1.443m-110.406-.53c.326.085.86.085 1.188 0 .327-.085.06-.155-.595-.155-.653 0-.92.07-.593.155m176.883 1.973c.004.746.073 1.012.155.59.08-.422.077-1.033-.007-1.357-.085-.325-.151.02-.148.767m1.011-.17c0 .654.07.922.156.594a2.79 2.79 0 0 0 0-1.188c-.086-.327-.156-.06-.156.594m-119.03 1.247c.213.154.47.586.573.96.147.535.174.505.124-.143-.034-.452-.291-.884-.571-.96-.336-.09-.378-.042-.125.143m-.475 2.488c0 .653.069.92.154.593a2.75 2.75 0 0 0 0-1.187c-.085-.327-.154-.06-.154.595m119.852 1.528c.003.746.074 1.012.155.59.08-.422.078-1.033-.008-1.358-.085-.324-.151.02-.147.768m-1.697.339c.003.747.072 1.013.154.59.081-.422.079-1.033-.007-1.358-.085-.325-.151.022-.147.768M180.88 27.31c.005.747.075 1.012.157.59.08-.422.077-1.033-.008-1.358-.086-.324-.152.02-.149.768m117.822.679c.003.933.068 1.274.147.759.076-.518.074-1.282-.006-1.7-.08-.417-.144.005-.142.939m37.163-.316c-.14.141-.254.722-.254 1.289 0 .735.105.925.367.663.202-.201.316-.78.255-1.289-.062-.508-.227-.805-.367-.663M216.53 29.347c.003.747.073 1.012.155.59.08-.422.078-1.033-.008-1.358-.085-.325-.151.02-.147.767m16.661 1.019c.002 1.307.065 1.8.137 1.096.074-.706.073-1.775-.002-2.377-.075-.602-.135-.027-.134 1.28m103.858.51c0 .653.069.92.154.594a2.755 2.755 0 0 0 0-1.19c-.085-.326-.154-.058-.154.595m-2.377.34c.001.653.071.92.156.593a2.79 2.79 0 0 0 0-1.188c-.085-.327-.155-.06-.155.595m-117.468 1.018c0 .653.07.92.155.594a2.79 2.79 0 0 0 0-1.188c-.085-.328-.155-.061-.155.593m-36.667.34c0 .653.07.92.155.594a2.79 2.79 0 0 0 0-1.188c-.085-.329-.155-.061-.155.592m137.184.68c0 1.026.063 1.446.14.933a7.515 7.515 0 0 0 0-1.868c-.077-.513-.14-.093-.14.935m-99.838-.34c0 .653.068.92.154.594a2.755 2.755 0 0 0 0-1.189c-.086-.326-.154-.058-.154.595m142.598.17c.004.747.073 1.013.154.59.082-.423.08-1.034-.006-1.358-.085-.325-.151.021-.148.767m-223.7 1.869c0 1.587.057 2.236.13 1.441.07-.792.07-2.09 0-2.884-.073-.794-.13-.145-.13 1.443m199.588-1.36c0 .655.07.922.156.595a2.79 2.79 0 0 0 0-1.188c-.086-.327-.156-.06-.156.593m-1.01.51c.003.747.072 1.013.153.59.083-.422.08-1.033-.005-1.358-.085-.325-.152.022-.148.768m-119.166.34c.005.747.073 1.012.155.59.081-.422.077-1.033-.007-1.358-.085-.325-.151.02-.147.768m-34.975.849c0 .652.069.92.154.592a2.75 2.75 0 0 0-.001-1.188c-.086-.327-.155-.06-.155.595m156.172.677c0 .654.07.92.155.595a2.795 2.795 0 0 0 0-1.19c-.085-.325-.155-.058-.155.595m-135.105 1.188c.002.935.068 1.276.146.76.08-.517.076-1.28-.004-1.698-.081-.418-.145.005-.142.938m132.05-.51c0 .655.07.923.154.596a2.79 2.79 0 0 0 0-1.187c-.085-.327-.155-.06-.155.593m-117.467.68c0 .653.069.92.154.593a2.75 2.75 0 0 0 0-1.189c-.085-.326-.154-.059-.154.596m-36.667.339c0 .654.07.921.154.594a2.75 2.75 0 0 0 0-1.189c-.085-.326-.154-.059-.154.595m156.512 1.018c0 .654.07.922.155.595a2.79 2.79 0 0 0 0-1.188c-.085-.327-.155-.06-.155.593m24.112.17c.004.747.073 1.013.154.59.082-.421.078-1.032-.006-1.357-.085-.325-.152.02-.148.768M201.416 40.38c.102 1.215.24 2.271.307 2.35.236.273.05-2.87-.22-3.707-.164-.51-.198.034-.087 1.358m133.601-.848c.004.748.073 1.012.154.59.083-.422.08-1.033-.005-1.357-.085-.325-.152.02-.148.767m-119.173.17c0 .654.07.921.154.594a2.75 2.75 0 0 0 0-1.188c-.085-.327-.154-.06-.154.594m-34.97.68c0 .653.07.92.156.593a2.79 2.79 0 0 0 0-1.188c-.085-.327-.155-.06-.155.594m137.179.85c.002.934.067 1.275.146.76.078-.517.075-1.281-.005-1.699-.08-.417-.144.006-.141.94m19.673-.17c0 .653.07.92.155.595a2.795 2.795 0 0 0 0-1.19c-.085-.325-.155-.058-.155.595m-3.728.85c.003.745.071 1.011.153.589.081-.423.079-1.034-.007-1.358-.085-.325-.151.02-.147.767m26.14 0c.004.745.074 1.011.156.589.08-.423.077-1.034-.008-1.358-.085-.325-.152.02-.148.767m-143.617.509c0 .652.07.92.155.592a2.79 2.79 0 0 0 0-1.188c-.085-.327-.155-.06-.155.594m-36.667.34c0 .654.07.92.156.594a2.79 2.79 0 0 0 0-1.188c-.086-.327-.156-.06-.156.593m39.722.68c0 .653.07.92.156.593a2.79 2.79 0 0 0 0-1.188c-.086-.327-.156-.06-.156.595m117.476.51c.004.745.073 1.011.154.589.082-.422.08-1.033-.006-1.357-.085-.326-.152.019-.148.766m-134.433.679c.004.933.07 1.276.148.759.077-.516.076-1.28-.005-1.697-.08-.418-.144.005-.142.938m158.539-.34c.003.747.073 1.013.154.59.08-.422.078-1.033-.008-1.358-.085-.324-.151.022-.147.768m-145.656.51c0 .654.07.92.156.594a2.79 2.79 0 0 0 0-1.19c-.086-.326-.156-.059-.156.594m101.875.68c0 1.026.063 1.446.14.933a7.515 7.515 0 0 0 0-1.867c-.077-.514-.14-.093-.14.934m17.297-.51c.004.747.074 1.013.156.59.08-.421.077-1.032-.008-1.357-.085-.325-.152.02-.148.768m-154.135.678c.004.748.073 1.013.154.591.082-.423.078-1.034-.006-1.358-.085-.325-.151.02-.148.767m50.143.764-1.17 1.273 1.273-1.17c1.185-1.088 1.429-1.376 1.17-1.376-.057 0-.63.573-1.273 1.273m107.388-.085c.004.747.072 1.013.154.59.081-.422.079-1.033-.007-1.358-.085-.324-.151.022-.147.768m-4.414 1.019c.003.748.073 1.014.154.591.08-.421.078-1.033-.008-1.357-.085-.325-.151.021-.147.768m-117.477.171c0 .654.07.922.155.594a2.79 2.79 0 0 0 0-1.187c-.085-.328-.155-.06-.155.594m144.29.001c0 .654.07.922.155.594a2.75 2.75 0 0 0 0-1.187c-.086-.328-.154-.06-.154.594m-180.95.51c.004.746.072 1.013.154.59.081-.422.078-1.033-.006-1.357-.086-.325-.152.02-.148.767m22.419.68c.002.932.067 1.275.146.758.077-.516.074-1.28-.006-1.697-.08-.417-.144.006-.141.94m116.454.508c0 1.028.064 1.448.142.933a7.505 7.505 0 0 0-.001-1.865c-.079-.514-.143-.094-.143.933m18.99 0c0 .653.07.92.155.595a2.795 2.795 0 0 0 0-1.19c-.086-.325-.156-.058-.156.595m-122.222.679c0 .654.07.922.156.594a2.79 2.79 0 0 0 0-1.186c-.086-.328-.156-.06-.156.593m146.335.17c.002.746.071 1.013.153.59.081-.422.079-1.033-.007-1.357-.085-.325-.151.02-.147.767m-27.17.17c0 .653.07.92.156.594a2.795 2.795 0 0 0 0-1.188c-.085-.326-.155-.058-.155.595m-154.134.678c0 .655.069.922.154.595a2.75 2.75 0 0 0 0-1.188c-.085-.327-.154-.06-.154.593m22.765 1.19c.004.933.069 1.274.148.758.077-.515.075-1.28-.006-1.697-.08-.417-.143.004-.14.938m135.443-.509c0 .653.07.92.155.594a2.79 2.79 0 0 0 0-1.19c-.085-.327-.155-.06-.155.595m-122.56 1.019c0 .653.068.92.153.593a2.75 2.75 0 0 0 0-1.188c-.085-.328-.154-.06-.154.594m117.468 0c0 .653.07.92.156.593a2.79 2.79 0 0 0 0-1.188c-.086-.328-.156-.06-.156.594m-15.593 1.018c-.001 1.026.062 1.447.14.933a7.515 7.515 0 0 0 0-1.867c-.078-.513-.141-.093-.141.934m43.1-.51c.004.747.072 1.013.154.59.081-.42.078-1.032-.006-1.357-.086-.324-.152.02-.148.768m-181.748.253c-.102.731-.05 1.146.12.976.165-.163.244-.736.178-1.274-.112-.896-.136-.873-.298.298m16.402-.084c0 .653.069.92.154.595a2.755 2.755 0 0 0 0-1.19c-.085-.325-.154-.058-.154.595m14.18-.34-1.19.251 1.084.045c.596.024 1.178-.108 1.294-.296.116-.185.163-.32.104-.294-.057.024-.639.157-1.292.294m98.945.44c-.094.243-.127 2.65-.073 5.348l.095 4.907.168-5.347c.166-5.26.145-5.784-.19-4.907m-112.313.168c-.091.149.396.214 1.084.146 1.879-.186 2.103-.356.506-.387-.783-.016-1.498.093-1.589.24m23.503.158c.17.171.672.254 1.114.184.678-.107.631-.154-.312-.31-.675-.113-.99-.063-.802.126m117.936.593c0 .654.07.921.156.595a2.795 2.795 0 0 0 0-1.189c-.086-.326-.156-.058-.156.595m-147.85-.43a19.5 19.5 0 0 0 2.887 0c.793-.07.144-.13-1.442-.13-1.587 0-2.236.06-1.443.13m12.404 2.299c.004.932.07 1.273.148.757.079-.515.076-1.28-.004-1.697-.082-.417-.145.004-.143.939m131.712-.51c0 .652.069.92.154.593a2.75 2.75 0 0 0 0-1.188c-.085-.327-.154-.06-.154.594m27.846.169c.004.746.073 1.01.154.59.082-.423.078-1.034-.006-1.36-.085-.324-.151.021-.148.769m-182.01.12c-.042.935-.157 1.1-.645.914-.477-.182-.51-.142-.17.2.623.627 1.188-.09 1.011-1.279-.139-.93-.148-.923-.196.165m14.974.219c.003.745.072 1.01.154.588.081-.421.077-1.032-.007-1.357-.086-.324-.152.021-.148.769m123.93 1.017c.003.933.07 1.275.147.759.076-.516.075-1.28-.006-1.697-.08-.419-.144.003-.142.937m3.86.084c-.087.141.706.212 1.761.16 3.317-.165 3.717-.31 1.007-.363-1.436-.028-2.682.064-2.769.204m25.84-.013c.422.082 1.033.078 1.358-.006.325-.085-.02-.15-.768-.147-.746.004-1.012.073-.59.154m9.588.53c0 .332-.363.598-.934.685l-.934.14.945.052c.9.048 1.623-.72 1.134-1.21-.117-.115-.212.034-.212.333m-45.955.17c-.089.143.437.204 1.168.134.733-.07 1.331-.186 1.331-.26.001-.253-2.335-.134-2.497.127m26.858-.021c.42.08 1.108.08 1.528 0 .42-.082.077-.148-.764-.148-.84 0-1.184.066-.763.148m22.239.948c.002.748.072 1.012.154.59.08-.422.078-1.033-.008-1.358-.085-.324-.151.02-.147.768m6.63-.937c.987.069 2.515.068 3.395-.002.88-.07.073-.126-1.794-.125-1.866.001-2.586.058-1.6.127m-164.485 1.786c0 1.027.064 1.447.141.934a7.515 7.515 0 0 0 0-1.868c-.077-.514-.141-.094-.141.933m114.752 1.697c0 1.028.064 1.448.142.934a7.505 7.505 0 0 0-.001-1.867c-.079-.514-.143-.094-.143.933m44.12-.169c.004.747.074 1.013.155.59.08-.42.078-1.032-.007-1.357-.086-.324-.152.02-.148.768m-159.556 2.717c.004.933.07 1.275.148.759.077-.516.076-1.28-.005-1.698-.08-.417-.144.006-.142.939m158.878.34c.004.746.073 1.012.155.59.08-.422.078-1.033-.007-1.358-.085-.326-.151.02-.148.767m-42.422.848c0 1.027.064 1.447.141.934a7.515 7.515 0 0 0 0-1.869c-.077-.512-.141-.091-.141.935M203.64 67.372c.002.934.068 1.275.146.76.078-.517.076-1.28-.005-1.698-.08-.418-.143.004-.14.938m158.877-.34c.004.748.073 1.013.154.591.082-.423.08-1.034-.005-1.358-.086-.325-.152.02-.148.767m-71.976-.615a2.79 2.79 0 0 0 1.189 0c.326-.085.058-.155-.595-.155-.654 0-.921.07-.594.155m-51.774 1.025c.42.08 1.107.08 1.528 0 .42-.081.076-.147-.764-.147s-1.184.066-.764.147m79.631 2.137c0 1.026.064 1.446.142.932a7.505 7.505 0 0 0-.001-1.867c-.08-.514-.143-.094-.143.934m43.441.508c.004.747.073 1.012.154.59.082-.422.078-1.033-.006-1.358-.085-.324-.152.02-.148.768m-158.877 1.358c.004.934.068 1.275.147.76.078-.516.076-1.28-.005-1.698-.08-.418-.144.004-.14.938m116.454 1.867c0 1.027.063 1.447.141.934a7.515 7.515 0 0 0 0-1.867c-.078-.513-.141-.093-.141.933m43.36-.65c.003.637.157 1.388.344 1.668.237.358.273.05.117-1.017-.276-1.9-.468-2.172-.462-.65M274.16 75.52c-1.391 1.4-2.453 2.547-2.36 2.547.093 0 1.308-1.146 2.7-2.547 1.39-1.4 2.452-2.546 2.358-2.546-.093 0-1.307 1.146-2.699 2.546m-13.58-1.018c.633.653 1.227 1.188 1.321 1.188.094 0-.347-.535-.982-1.188-.632-.654-1.227-1.19-1.321-1.19-.093 0 .349.536.983 1.19m101.597 1.357c.004.746.074 1.013.155.59.08-.423.078-1.034-.007-1.359-.086-.323-.152.023-.148.77m-43.445 1.697c.003.934.069 1.275.147.76.076-.516.075-1.28-.007-1.698-.08-.418-.143.003-.14.937m-115.451.848c0 .655.07.922.155.595a2.79 2.79 0 0 0 0-1.188c-.085-.327-.155-.06-.155.593m116.604.81c-.128.332-.22 1.012-.202 1.51.028.844.053.829.357-.23.355-1.225.226-2.274-.154-1.28m-.81 6.32c0 1.027.063 1.448.141.934a7.515 7.515 0 0 0 0-1.868c-.078-.513-.141-.093-.141.933m-208.734 24.19-3.39 3.48 3.48-3.389c3.233-3.147 3.635-3.57 3.39-3.57-.05 0-1.616 1.565-3.48 3.479m-46.22 6.196c0 1.495.06 2.064.132 1.265.073-.798.071-2.02-.001-2.715-.074-.697-.132-.042-.131 1.451M51.104 145.46c-.824.84-1.422 1.528-1.33 1.528.094 0 .845-.688 1.67-1.528.825-.84 1.423-1.528 1.33-1.528-.094 0-.845.688-1.67 1.528m293.927 9.243c.609.076 1.602.076 2.208.001.607-.075.11-.136-1.103-.136-1.214 0-1.71.06-1.104.137m-219.32 3.395c.608.076 1.6.076 2.208 0 .606-.075.11-.136-1.104-.136-1.213 0-1.71.06-1.104.135m62.3 1.7c.7.073 1.847.073 2.547 0 .7-.074.127-.134-1.273-.134-1.4.001-1.974.061-1.274.135m-26.07 9.684-1.684 1.781 1.782-1.685c.98-.925 1.783-1.727 1.783-1.782 0-.253-.314.03-1.88 1.686m48.562-.427c.73.748 1.403 1.359 1.496 1.359.094 0-.427-.611-1.156-1.359-.73-.746-1.403-1.357-1.496-1.357-.093 0 .426.611 1.156 1.357m-105.603 1.104-1.342 1.443 1.443-1.342c1.343-1.248 1.6-1.543 1.343-1.543-.056 0-.705.65-1.444 1.442m46.019 1.104c1.013 1.027 1.92 1.868 2.013 1.868.093 0-.66-.84-1.674-1.867-1.016-1.026-1.921-1.867-2.016-1.867-.093 0 .661.84 1.675 1.868m173.245 1.358c.002.935.067 1.276.146.76.079-.517.076-1.28-.004-1.698-.08-.418-.144.005-.141.938m-106.92 14.09c0 1.774.057 2.5.127 1.613a24.8 24.8 0 0 0 0-3.225c-.07-.886-.128-.16-.128 1.613m-124.28 4.753c0 1.028.065 1.448.142.935a7.515 7.515 0 0 0 0-1.867c-.077-.513-.14-.093-.14.933m236.991 1.7c0 1.586.06 2.235.13 1.442a19.5 19.5 0 0 0 0-2.887c-.07-.793-.13-.143-.13 1.444M72.97 200.457c0 2.988.052 4.165.116 2.615.062-1.55.062-3.994-.001-5.432-.064-1.437-.115-.17-.115 2.818m-37.144.34c1.015 1.026 1.921 1.867 2.014 1.867.093 0-.66-.84-1.674-1.867-1.015-1.027-1.92-1.868-2.014-1.868-.093 0 .66.84 1.674 1.868m37.426 9.336c0 .653.068.92.154.595a2.755 2.755 0 0 0 0-1.19c-.086-.326-.154-.06-.154.594m282.729 2.546c.635.654 1.23 1.188 1.322 1.188.093 0-.349-.534-.981-1.188-.634-.653-1.228-1.187-1.32-1.187-.095 0 .347.534.98 1.187m2.81 5.942c0 .84.065 1.184.147.764a4.88 4.88 0 0 0 0-1.528c-.082-.42-.148-.076-.148.764m14.323 14.343-1.685 1.783 1.782-1.685c.98-.926 1.783-1.728 1.783-1.782 0-.252-.315.03-1.88 1.685m-326.646 5.857c.001 1.495.061 2.062.134 1.264.072-.798.07-2.02-.002-2.715-.072-.695-.132-.041-.13 1.452m142.11 3.14-.822.934.873-.766c.48-.422 1.001-.65 1.158-.51.155.142.173.067.04-.166-.323-.56-.3-.568-1.25.509m-.156 4.923-1.685 1.782 1.783-1.685c1.656-1.565 1.938-1.88 1.684-1.88-.053 0-.855.803-1.782 1.783m153.734-1.193c.892.07 2.267.069 3.055-.002.79-.07.06-.128-1.62-.127-1.681.002-2.327.06-1.434.13m-218.907 2.126c1.108 1.12 2.091 2.036 2.185 2.036.093 0-.738-.916-1.846-2.037-1.11-1.121-2.094-2.038-2.187-2.038-.093 0 .737.917 1.846 2.037m58.727 1.103-3.05 3.14 3.142-3.048c1.726-1.677 3.14-3.09 3.14-3.141 0-.246-.401.132-3.233 3.05m-52.617.254c.73.746 1.403 1.357 1.496 1.357.093 0-.426-.611-1.156-1.357-.73-.748-1.403-1.359-1.496-1.359-.094 0 .427.61 1.156 1.358m-.849 3.5c.001.06.498.556 1.105 1.103l1.104 1-1-1.104c-.929-1.029-1.209-1.26-1.209-.997m51.607 2.438c-.825.84-1.423 1.528-1.33 1.528.094 0 .845-.687 1.669-1.528.825-.84 1.423-1.528 1.33-1.528-.094 0-.845.688-1.67 1.528m-5.283.595-.998 1.104 1.104-.999c1.028-.929 1.258-1.21.996-1.21-.059 0-.555.498-1.103 1.105m-66.861 32.847c.73.747 1.403 1.358 1.496 1.358.093 0-.427-.61-1.156-1.358-.73-.747-1.403-1.358-1.496-1.358-.095 0 .426.61 1.156 1.358m5.092 5.093c.73.747 1.403 1.358 1.496 1.358.093 0-.426-.61-1.156-1.357-.73-.748-1.403-1.359-1.496-1.359-.094 0 .427.611 1.156 1.359m-73.164.849c.634.653 1.229 1.188 1.322 1.188.094 0-.348-.535-.982-1.188-.634-.655-1.228-1.19-1.321-1.19-.094 0 .348.535.98 1.19M86.752 311.4c0 .051 1.184 1.235 2.632 2.632l2.631 2.537-2.538-2.632c-2.357-2.444-2.725-2.786-2.725-2.538m272.453 3.302c.73.747 1.404 1.358 1.496 1.358.096 0-.425-.611-1.155-1.358-.73-.747-1.403-1.358-1.496-1.358-.093 0 .426.611 1.156 1.358m-127.604 10.414c.215.154.468.662.564 1.13.149.73.165.71.118-.145-.03-.558-.275-1.05-.563-1.128-.338-.092-.378-.043-.118.144m-38.33 3.406c.42.08 1.108.08 1.528 0 .42-.08.077-.147-.764-.147-.84 0-1.184.066-.764.147m14.603 0c.422.08 1.033.078 1.358-.007.324-.085-.02-.151-.768-.148-.746.004-1.012.074-.59.156m112.566 5.192c0 1.213.063 1.71.138 1.102.075-.606.075-1.599 0-2.206-.075-.606-.137-.11-.137 1.105M98.043 335.92c.004.748.073 1.013.154.592.082-.423.078-1.034-.006-1.359-.085-.324-.152.02-.148.768m242.58 16.367c.422.082 1.033.08 1.358-.006.324-.084-.02-.15-.768-.147-.747.004-1.012.073-.59.154m-189.449 1.019c.42.08 1.108.08 1.528 0 .421-.082.077-.148-.763-.148-.84 0-1.184.066-.764.148m-53.57 2.221c.831.888 1.557 1.614 1.612 1.614.255 0-.014-.305-1.514-1.712l-1.61-1.514 1.513 1.613m32.42 8.489-1.341 1.442 1.442-1.342c1.342-1.248 1.6-1.544 1.342-1.544-.055 0-.704.65-1.442 1.444m82.26 25.283c.608.074 1.6.074 2.208 0 .606-.076.11-.137-1.104-.137-1.213 0-1.71.06-1.104.136m129.861.002c.7.072 1.846.072 2.547 0 .7-.074.127-.134-1.274-.134-1.4 0-1.973.06-1.273.134" id="path3"/></g></svg>