<!--version="1.0" encoding="UTF-8"--><svg xmlns="http://www.w3.org/2000/svg" width="80" height="80" viewBox="0 0 80 80" version="1.1"><g id="surface1"><path style="stroke: none; fill-rule: evenodd; fill: rgb(252, 186, 20); fill-opacity: 1;" d="M32.84 9.453c-.594 1.512-.516 4.461.168 6.555 1 3.062 2.441 4.844 7.805 9.62 5.507 4.907 7.19 7.876 7.195 12.665 0 1.7-.024 1.965-.344 3.734-1.09 6.051-.805 11.649.754 14.743.27.53.242.515.566.316 4.305-2.633 8.243-7.871 9.102-12.11 1.574-7.777-4.074-15.359-17.77-23.85-3.558-2.204-5.984-5.896-7.175-10.911-.206-.863-.234-.934-.3-.762m42.496.469a37.04 37.04 0 0 0-.063.836c-.144 2.035-.94 4.32-2.113 6.082-1.707 2.558-3.652 4.293-7.566 6.734-3.617 2.262-5.215 3.02-9.203 4.364-1.874.632-2.304.8-2.304.906 0 .027.422.422.941.875 2.965 2.593 4.133 4.839 4.559 8.776.09.836.09.832.2.465.843-2.815 2.37-5.015 5.542-7.976 3.84-3.582 6.477-7.015 8.75-11.386 1.465-2.817 2.195-7.348 1.512-9.395-.067-.2-.238-.387-.254-.281M51.62 17.004c-2.51.691-3.964 3.93-2.929 6.527 1.65 4.115 6.38 3.896 7.845-.366 1.102-3.2-1.918-6.984-4.914-6.16m-10.128 22.45c-.933.14-.086-.294-9.984 5.077-9.11 4.943-8.793 4.79-10.016 4.79-4.535 0-6.148-5.816-2.293-8.27.402-.257.495-.452.312-.64-.328-.328-1.735.75-2.36 1.809-2.101 3.534.47 7.905 4.543 7.737 1.254-.055 1.059.043 10.328-4.988 9.305-5.052 8.899-4.849 9.907-4.896 3.242-.144 5.175 3.168 3.636 6.227-1.25 2.481-4.613 3.473-6.918 2.04-.367-.227-.617-.23-.687-.008-.194.617 1.892 1.371 3.528 1.273 4.653-.273 7.02-5.98 3.727-8.996-.961-.883-2.461-1.348-3.723-1.157m17.695 7.133c-.808 4.586-3.292 8.223-8.292 12.144-1.73 1.356-1.946 1.625-2.297 2.82-.86 2.923-.313 6.134 1.539 9.013.465.718.379.718.984-.012 3.599-4.323 6.325-11.71 7.782-21.09.422-2.718.633-4.839.285-2.874m3.875 2.656c-.867.278-1.34 1.395-.957 2.258.465 1.055-.25 3.121-2.21 6.383-.907 1.5-1.075 1.86-1.075 2.316-.004.929.98 1.878 2.051 1.972 1.646.152 2.814-1.781 3.126-5.176.113-1.226.254-1.625.758-2.176.89-.965 2.105-.132 2.332 1.598.29 2.227 2.297 2.676 3.258.73.511-1.03.926-1.496 1.222-1.382.313.12.551 1.375.454 2.36-.34 3.382 2.335 5.952 4.332 4.163.808-.731.617-1.59-.887-3.954-.899-1.41-1.008-1.71-1.008-2.766 0-.86.168-1.672.55-2.68.727-1.917.048-3.683-1.214-3.156-.387.164-1.188.797-1.555 1.23-1.011 1.204-1.879 1.657-3.175 1.653-1.348-.004-2.172-.45-3.094-1.68-.997-1.328-2.08-1.96-2.908-1.695"/><path style="stroke: none; fill-rule: evenodd; fill: rgb(216, 219, 195); fill-opacity: 1;" d="M56.512 2.422a.996.996 0 0 0 .304 0c.086-.02.016-.031-.152-.031s-.234.012-.152.032m2.597 1.07c.128.133.245.238.265.238.02 0-.07-.105-.2-.238-.124-.129-.245-.238-.26-.238-.02 0 .07.11.194.238m-6.52.055c0 .012.101.113.222.223l.22.199-.2-.224c-.184-.203-.242-.25-.242-.2m1.32.407-.2.219.224-.2c.12-.109.218-.21.218-.222 0-.05-.054-.004-.242.2m-7.48 2.124c0 .184.015.254.03.149a1.207 1.207 0 0 0 0-.336c-.019-.086-.03 0-.03.187m20.742-.133c-.027.029-.05.13-.05.224 0 .125.019.152.073.102.04-.043.063-.145.051-.227-.012-.083-.047-.126-.074-.099m-26.719.947c0 .152.016.203.031.12a.8.8 0 0 0 0-.273c-.02-.066-.03.004-.03.153m23.155.78c0 .169.011.24.03.153a.996.996 0 0 0 0-.304c-.019-.082-.03-.016-.03.152m-.212.305a2.68 2.68 0 0 1-.054.308c-.032.13-.024.154.039.095.047-.043.07-.18.055-.309-.016-.125-.036-.168-.04-.093m-22.875.41c0 .148.012.203.032.117a.708.708 0 0 0-.004-.273c-.015-.063-.03.003-.027.156m-.203.406c0 .148.012.202.028.116a.693.693 0 0 0 0-.27c-.016-.066-.032.005-.032.153m23.36.476c0 .148.015.203.03.117a.8.8 0 0 0 0-.274c-.019-.063-.03.003-.03.156m-.203.406c0 .148.015.203.03.117a.686.686 0 0 0-.003-.27c-.016-.067-.027.003-.027.152m-22.883.203c0 .148.015.203.031.117a.78.78 0 0 0 .001-.27c-.018-.066-.03.005-.03.153m31.504.035c0 .13.015.184.03.117a.492.492 0 0 0 0-.238c-.015-.063-.03-.013-.03.12m3.203.031a.28.28 0 0 0-.004.189c.02.046.035.015.04-.075.003-.118.034-.149.112-.121.059.023.086.015.063-.024-.063-.101-.168-.082-.211.031m-34.91.341c0 .154.015.204.03.122a.708.708 0 0 0-.003-.273c-.016-.068-.027.003-.027.151m-2.004.29a.708.708 0 0 0 .273-.004c.063-.015-.004-.03-.156-.027-.148 0-.203.01-.117.03m2.988.067a.78.78 0 0 0 .27 0c.067-.02-.003-.032-.152-.032-.148 0-.203.016-.117.032m22.376.222c0 .167.012.238.027.152a.996.996 0 0 0 0-.305c-.015-.082-.027-.016-.027.152m-22.07-.02c.125.015.25.015.375 0 .102-.016.016-.028-.187-.028-.207 0-.289.012-.187.028m-2.137.066c.081.02.206.02.269 0 .065-.015-.005-.03-.154-.027-.148-.001-.203.01-.117.03m24 .39c0 .153.015.204.03.118a.78.78 0 0 0 0-.27c-.02-.066-.03.004-.03.153m12.222.036c0 .129.011.184.03.117a.592.592 0 0 0 0-.234c-.019-.068-.03-.017-.03.116m-35.106.066c0 .133.016.188.032.121a.61.61 0 0 0 0-.238c-.016-.066-.032-.012-.032.117m32.418-.02a.194.194 0 0 0-.043.118c.001.047.02.043.052-.008.031-.043.25-.094.492-.105l.442-.024-.45-.015c-.246-.004-.464.007-.492.035m-32.62.394c0 .149.015.203.03.118a.78.78 0 0 0 0-.27c-.02-.066-.03.004-.03.152m24.41-.12c.12.015.335.015.476 0 .14-.016.039-.028-.219-.028-.26-.001-.378.01-.257.026m-32.488.73c0 .188.016.259.031.153a1.236 1.236 0 0 0 0-.34c-.02-.083-.03.003-.03.187m31.437.07c0 .148.015.203.03.117a.8.8 0 0 0 0-.273c-.019-.062-.03.005-.03.157m-33.133.305c0 .203.011.289.027.187.016-.126.016-.25 0-.376-.016-.101-.027-.02-.027.188m32.93.136c0 .168.015.235.03.153a.996.996 0 0 0 0-.304c-.015-.086-.03-.016-.03.152m-22.883.032c0 .152.011.203.03.12a.708.708 0 0 0-.003-.273c-.016-.066-.027.004-.027.153m-25.329.082a.61.61 0 0 0 .239 0c.066-.016.011-.032-.121-.032-.13 0-.184.016-.118.032m25.125.328c0 .148.012.2.032.117a.708.708 0 0 0-.004-.273c-.015-.063-.03.003-.027.156m31.774-.035c0 .129.016.183.031.117a.492.492 0 0 0 0-.238c-.016-.063-.031-.012-.031.12m3.465.204c0 .133.011.183.03.12a.61.61 0 0 0 0-.237c-.015-.066-.03-.011-.03.118m-17.516-.02c.121.016.246.016.371 0 .102-.015.02-.027-.187-.027-.203 0-.29.013-.184.028m-27.566.293c-.004.17.011.236.027.154a.996.996 0 0 0 0-.305c-.016-.087-.031-.017-.031.151m17.11-.089a.61.61 0 0 0 .237.001c.067-.018.012-.03-.117-.03-.133 0-.183.012-.12.031m16.093.396c-.001.148.015.203.03.117a.778.778 0 0 0 0-.27c-.02-.066-.031.005-.031.153m-.204.406c0 .149.015.203.03.117a.78.78 0 0 0 0-.27c-.019-.067-.03.004-.03.152m-43.863-.054a.61.61 0 0 0 .238 0c.063-.016.013-.032-.12-.032-.13 0-.184.016-.118.031m.61 0a.61.61 0 0 0 .238 0c.067-.015.012-.03-.117-.03-.133 0-.188.015-.121.03m-7.688.329c-.168.168-.285.304-.265.304.014 0 .167-.136.33-.304.165-.168.286-.31.266-.31-.02 0-.168.142-.332.31m27.856.066c0 .148.015.203.031.117a.78.78 0 0 0 .001-.27c-.018-.067-.03.004-.03.152m14.68.117-.2.222.22-.2c.12-.109.222-.21.222-.222 0-.05-.059-.004-.242.2m8.667.698c0 .235.012.25.075.125.047-.101.047-.183-.004-.273-.063-.105-.074-.078-.07.148m-.192.442c0 .168.012.234.027.152a1.022 1.022 0 0 0 0-.308c-.015-.082-.027-.012-.027.156m-11.512.793c.121.015.332.015.473 0 .14-.012.043-.024-.219-.028-.261 0-.375.016-.254.028m-15.19 1.469c0 .011.097.109.218.218l.222.2-.199-.22c-.187-.206-.242-.253-.242-.198m33.71 1.351-.608.63.625-.61c.585-.567.66-.649.609-.649-.009.004-.29.285-.626.63M35.887 21c0 .012.097.11.218.219l.223.198-.2-.219c-.187-.208-.241-.255-.241-.2m20.863.316c0 .133.012.184.031.122a.61.61 0 0 0 .001-.239c-.018-.067-.03-.013-.03.116m-8.488.375c0 .15.015.205.03.119a.778.778 0 0 0 0-.27c-.019-.067-.03.003-.03.151m-11.22.544c.126.13.243.239.263.239.02 0-.067-.11-.196-.239-.126-.129-.247-.238-.266-.238-.016 0 .07.106.2.238M56.75 22.2c0 .132.012.183.031.12a.61.61 0 0 0 .001-.238c-.018-.066-.03-.012-.03.117m-18.52 1.155c.145.149.282.27.297.27.02 0-.082-.121-.23-.27-.145-.148-.281-.273-.297-.273-.02 0 .082.121.23.273m17.973.579c-.082.168-.133.304-.117.304.047 0 .32-.55.29-.582-.013-.015-.09.11-.173.278m-17.191.132c.125.133.246.239.261.239.02 0-.07-.106-.195-.239-.125-.128-.246-.238-.265-.238-.016 0 .07.11.199.238m10.797 1.293c.202.202.381.37.4.37.02 0-.132-.167-.335-.37-.203-.208-.383-.376-.402-.376-.02 0 .132.168.336.375m5.428-.07c-.164.167-.285.304-.265.304.02 0 .168-.137.336-.305.163-.169.284-.306.264-.306-.02 0-.172.137-.336.305m-14.46.327c0 .012.097.11.218.219l.223.2-.2-.22c-.188-.207-.243-.253-.243-.199m.883.828c.125.13.246.235.262.235.02 0-.067-.106-.195-.235-.125-.132-.247-.238-.266-.238-.015 0 .071.105.2.238m1.457 1.39c.45.45.828.817.848.817.02 0-.332-.367-.778-.816-.449-.45-.828-.816-.847-.816-.02 0 .332.367.777.816m24.817.594-.235.254.253-.235c.14-.126.254-.243.254-.255 0-.05-.055 0-.273.235m-17.14.355c.144.153.28.274.296.274.02-.001-.086-.122-.23-.275-.145-.148-.282-.27-.301-.27-.017 0 .085.122.233.27M66 30.367l-.336.356.356-.336c.195-.188.355-.348.355-.36 0-.05-.062.008-.375.336m-10.082.223c.242.242.453.441.473.441.016 0-.163-.199-.406-.441-.238-.242-.453-.441-.468-.441-.02 0 .16.199.402.44m-3.191.138c.203.203.382.37.402.37.018 0-.134-.167-.337-.37-.203-.207-.383-.375-.402-.375-.019 0 .133.168.337.375M5.55 30.87a.61.61 0 0 0 .24.001c.065-.018.01-.03-.118-.03-.133 0-.184.012-.121.031m59.43.446-.27.29.29-.27c.27-.25.32-.309.27-.309-.012 0-.141.13-.29.29m-27.242-.036c.102.017.258.013.34-.003.082-.015 0-.027-.187-.027s-.253.012-.152.027m25.918 1.293-.644.664.664-.644c.363-.356.66-.653.66-.66 0-.051-.082.027-.68.64m2.176-.218c-.164.168-.285.304-.266.304.02 0 .168-.136.332-.304.168-.168.286-.305.266-.305-.016 0-.168.137-.332.305m6.926.066c.125.133.246.238.262.238.02 0-.067-.105-.196-.238-.125-.129-.246-.238-.261-.238-.02 0 .066.11.195.238m-47.75-.121a.78.78 0 0 0 .27 0c.066-.02-.005-.031-.153-.031s-.203.015-.117.03m.543 0a.78.78 0 0 0 .27 0c.067-.019-.004-.03-.152-.03s-.203.015-.117.03m17.06 1.075c.124.13.245.235.261.235.02 0-.065-.105-.194-.234-.125-.132-.246-.237-.262-.237-.02 0 .066.105.195.238m-22.106.185-.203.222.223-.199c.207-.187.254-.242.2-.242-.012 0-.11.098-.22.219m10.153.203c.164.18.309.324.32.324.051 0-.003-.062-.3-.344l-.324-.3.304.32m2.239.578-.372.39.391-.37c.363-.344.422-.41.371-.41-.008 0-.183.175-.39.39m35.335 2.87c0 .317.012.446.028.286a4.694 4.694 0 0 0 0-.574c-.016-.16-.028-.031-.028.29m-24.105.132c0 .281.012.394.027.254a2.756 2.756 0 0 0 0-.508c-.015-.14-.027-.023-.027.254m3.863-.133c0 .129.016.184.032.117a.61.61 0 0 0 0-.238c-.016-.066-.032-.012-.032.117M19.273 38.29c0 .245.012.343.028.222.013-.121.013-.32 0-.442-.015-.12-.027-.023-.027.223m53.649-.121-.27.289.29-.269c.269-.249.32-.307.269-.307-.01 0-.14.133-.288.289m-58.274.324c0 .13.016.184.032.117a.612.612 0 0 0 0-.238c-.016-.062-.032-.012-.032.121m44.942.64c-.004.204.02.31.055.27.035-.035.039-.183.007-.336l-.054-.27-.008.337m-11.602.308c0 .13.012.184.032.118a.592.592 0 0 0 0-.235c-.02-.066-.032-.015-.032.117m-6.449-.02a.61.61 0 0 0 .237 0c.063-.019.012-.03-.12-.03-.13 0-.184.011-.118.03m.917 0a.688.688 0 0 0 .27-.003c.066-.016-.004-.027-.153-.027-.148 0-.203.015-.117.03m-2.516.466c-.26.145-.23.192.037.06.257-.134.3-.165.214-.16a.95.95 0 0 0-.249.1m5.45.864c.165.176.31.32.32.32.052 0-.003-.058-.3-.344l-.324-.3.305.324m-7.077.02c-.254.136-.239.195.02.062.108-.059.202-.117.202-.137 0-.044-.008-.044-.222.073m6.57.438c.144.15.281.27.3.27.016 0-.085-.12-.234-.27-.145-.147-.278-.272-.298-.272-.02 0 .086.125.23.273m29.673 0c.148.15.28.27.3.27.016 0-.085-.12-.23-.27-.148-.147-.281-.272-.3-.272-.02 0 .085.125.23.273m-35.836.106c-.255.14-.24.196.018.063.11-.056.203-.118.203-.138.001-.043-.006-.039-.221.074m19.589.235c-.001.13.014.184.03.118a.61.61 0 0 0 0-.238c-.02-.063-.031-.012-.031.12m-21.626.106c-.254.137-.239.196.015.063.112-.06.202-.118.202-.138 0-.043-.007-.043-.218.074m8.957.606c.063.129.126.226.141.21.033-.03-.175-.449-.217-.449-.02 0 .02.11.078.239m-8.55-.063c-.254.136-.238.195.015.062.114-.059.208-.117.208-.137 0-.043-.008-.04-.223.074m-2.785.745c-.254.14-.239.196.02.067.109-.059.202-.121.202-.14 0-.044-.007-.04-.222.073m24.004.438c-.001.133.01.183.03.12a.61.61 0 0 0 0-.237c-.02-.067-.031-.012-.031.117m-23.595.105c-.254.14-.238.196.015.067.114-.059.204-.121.204-.14 0-.044-.008-.04-.22.073m11.376.54c0 .187.012.253.027.152a1.236 1.236 0 0 0 0-.34c-.015-.082-.027 0-.027.187m13.36.653c-.052.34-.055.578-.016.617.039.039.078-.16.11-.524.061-.757.01-.808-.095-.093m-26.364-.309c-.254.142-.238.196.016.068.113-.06.203-.122.203-.141 0-.043-.008-.04-.22.074m-16.054.54c.001.262.013.36.029.219.014-.142.014-.353-.001-.474-.017-.12-.029-.008-.029.254m-.678 0c0 .227.011.309.027.188a1.798 1.798 0 0 0-.001-.41c-.017-.102-.028 0-.028.222m15.984-.129c-.254.138-.238.197.02.064.109-.059.203-.121.203-.137-.001-.047-.01-.043-.224.074m-2.035.341c-.253.138-.237.196.016.064.114-.06.204-.121.204-.137 0-.047-.008-.043-.22.074m40.653.114-.2.22.22-.2c.207-.184.25-.242.199-.242-.012 0-.11.101-.219.222m-11.629.29c0 .074.024.21.055.304l.054.168v-.168a.846.846 0 0 0-.055-.305l-.06-.136v.136m-28.613.141c-.254.137-.238.195.016.063.113-.06.207-.122.207-.137 0-.047-.008-.043-.223.074m-2.035.34c-.254.137-.238.195.015.062.114-.058.204-.12.204-.14 0-.043-.007-.04-.218.078m30.656.367c0 .13.012.185.031.118a.61.61 0 0 0 0-.238c-.02-.062-.032-.012-.032.121m-31.402.04c-.254.137-.239.195.015.063.115-.059.205-.121.205-.137 0-.043-.008-.043-.22.074m19.114.164c0 .133.01.184.03.121a.61.61 0 0 0 0-.238c-.02-.066-.03-.012-.03.117m-17.962-.027c-.254.137-.238.195.02.062.11-.06.203-.122.203-.137 0-.047-.007-.043-.222.074m-.746.406c-.254.137-.238.195.016.063.113-.06.207-.121.207-.137 0-.044-.008-.044-.223.073m-11.527.055c0 .074.203.45.242.45.02 0-.016-.099-.078-.22-.126-.25-.165-.3-.165-.23m9.492.285c-.254.137-.238.195.015.062.114-.058.204-.12.204-.136 0-.044-.008-.044-.22.073m18.313.25-.337.355.356-.335c.33-.313.386-.375.335-.375-.012 0-.172.16-.356.355m2.367.426c0 .296.011.409.027.249.016-.161.016-.404 0-.544-.016-.137-.027-.008-.027.289m-1.86.02-.37.39.39-.371c.363-.344.422-.41.37-.41-.007 0-.183.176-.39.39M18.266 48c.144.148.28.273.3.273.02 0-.086-.12-.23-.273-.149-.148-.281-.27-.3-.27-.02 0 .085.122.23.27m8.437-.164c-.254.137-.238.195.016.062.112-.058.202-.117.202-.136 0-.043-.004-.043-.219.074m12.047.383c-.11.108-.102.167.031.217.091.032.099.024.036-.05-.054-.067-.054-.11.004-.172.047-.043.067-.078.047-.078-.02 0-.07.035-.117.082m-20.96.257c.147.148.28.27.3.27.02 0-.086-.122-.23-.27-.15-.149-.282-.274-.301-.274-.02 0 .085.125.23.274m6.128.105c-.254.137-.238.195.02.063.109-.06.203-.118.203-.137 0-.043-.007-.04-.222.074m13.355.25-.265.29.289-.27c.265-.25.32-.31.265-.31-.011 0-.14.134-.289.29m-12.046.355c.203.208.382.375.402.375.018 0-.134-.167-.337-.375-.203-.203-.383-.37-.402-.37-.019 0 .133.167.337.37M40.96 49c.122.016.321.016.442 0 .121-.016.024-.027-.218-.027-.243 0-.344.011-.223.027m-19.757.34c.156.015.418.015.578 0 .157-.012.029-.024-.288-.024-.32 0-.45.012-.289.024m25.774.527c0 .262.011.363.027.219.016-.14.016-.352 0-.473-.016-.12-.027-.008-.027.254m-5.915-.187c.106.015.258.015.34 0 .086-.016 0-.032-.187-.028-.188 0-.254.012-.153.028m-4.16.547-.437.457.457-.442c.25-.238.457-.445.457-.457-.001-.05-.068.016-.478.442m-15.699-.207c.156.015.418.015.578 0 .157-.016.029-.028-.288-.028-.32 0-.45.012-.289.028m4.125.222c.145.149.281.27.297.27.02 0-.082-.121-.23-.27-.145-.148-.282-.273-.297-.273-.02-.001.086.124.23.272m.918-.113c0 .01.098.108.219.218l.222.199-.199-.219c-.187-.207-.242-.254-.242-.2m9.195.536-.268.29.289-.266c.27-.25.321-.31.27-.31-.011 0-.14.13-.289.286m22.458-.113c-.113.25-.093.302.032.075.054-.105.09-.203.074-.219-.016-.015-.063.047-.106.145m14.48.184-.198.22.222-.2c.203-.184.25-.242.2-.242-.012 0-.114.101-.223.222m-10.47.118c0 .168.016.238.031.152a.996.996 0 0 0 .001-.305c-.014-.083-.03-.016-.03.152m-14.87.273c0 .129.01.184.03.117a.61.61 0 0 0 0-.238c-.02-.063-.03-.012-.03.12m10.405.34c-.058.11-.09.204-.07.204.02 0 .082-.094.14-.203.055-.113.09-.203.07-.203-.019 0-.081.09-.14.203m17.91.066c0 .134.012.185.032.118a.592.592 0 0 0 0-.234c-.02-.066-.032-.012-.032.117m-3.722.087-.2.219.223-.2c.203-.183.25-.241.2-.241-.016 0-.114.101-.223.222m-64.2.305-.234.254.253-.235c.238-.217.285-.272.234-.272a2.22 2.22 0 0 0-.253.254m46 1.39-.2.223.223-.2c.121-.108.219-.21.219-.222 0-.05-.055-.004-.242.2m1.699 1.425-.2.223.22-.198c.124-.11.222-.211.222-.223 0-.052-.055-.005-.242.198m-3.328.207-.2.22.223-.2c.121-.11.219-.211.219-.223 0-.05-.055-.004-.242.203m2.515.676-.543.564.563-.543c.52-.503.59-.577.543-.577-.012 0-.266.25-.563.558m-1.05 1.056-.442.457.461-.438c.25-.242.456-.449.456-.46 0-.051-.07.015-.476.44m-.817.747-.234.254.253-.235c.238-.217.285-.272.234-.272-.012 0-.125.113-.254.254m19.578.117c.001.187.013.257.029.151a1.236 1.236 0 0 0-.001-.338c-.017-.082-.029.003-.029.187m-.073 1.663c0 .133.016.188.031.121a.492.492 0 0 0 0-.238c-.015-.066-.03-.012-.03.117m-60.192.05c.117.017.332.017.472 0 .14-.015.043-.026-.218-.026-.262 0-.375.011-.254.027m37.734.578-.336.355.356-.335c.195-.184.355-.344.355-.356 0-.05-.062.004-.375.336m-32.422 2.191c.13.133.246.239.266.239.02 0-.07-.106-.196-.239-.128-.128-.246-.238-.265-.238-.02 0 .07.11.195.238m59.344.223-.234.254.253-.234c.24-.22.287-.278.236-.278-.012 0-.125.117-.254.254M48.195 63.45c0 .148.016.202.032.116a.688.688 0 0 0-.004-.27c-.016-.066-.028.005-.028.153m24.582 1.597c0 .203.012.289.028.183.015-.12.015-.25 0-.37-.016-.106-.028-.02-.028.187m-24.582.168c0 .148.016.203.032.117a.688.688 0 0 0-.004-.27c-.016-.066-.028.004-.028.153m5.903.68c-.157.316-.27.578-.25.578.043 0 .59-1.098.562-1.125-.015-.016-.152.23-.312.547m-7.664 0c.004.296.015.41.027.25a3.15 3.15 0 0 0 0-.543c-.015-.137-.026-.008-.026.293m-7.168-.192c.125.016.304.016.41 0 .101-.016 0-.027-.223-.027-.226 0-.308.015-.187.027m1.629 0c.125.016.308.016.41 0 .101-.016 0-.027-.223-.027s-.309.015-.187.027m-21.286.973c0 .168.011.234.03.152a1.022 1.022 0 0 0 0-.308c-.019-.082-.03-.012-.03.156m47.867 1.95c.125.015.25.015.375 0 .101-.017.02-.028-.188-.028-.203 0-.29.011-.187.027m-18.145.586c0 .075.203.45.242.45.016 0-.02-.098-.078-.219-.129-.249-.164-.3-.164-.23m1.336 1.845c-.105.093-.164.168-.129.168.03 0 .128-.075.218-.168.203-.22.156-.215-.09 0M63 73.566c0 .188.012.254.027.153a1.235 1.235 0 0 0 0-.341c-.015-.083-.027-.001-.027.186m-38.57.352c.062.02.172.02.238 0 .062-.016.012-.031-.121-.031-.13 0-.184.015-.117.03m38.57.36c0 .207.012.293.027.188.016-.125.016-.25 0-.371-.015-.106-.027-.02-.027.183M50.742 86.762c.106.066.805.058.871-.008.028-.027-.175-.047-.453-.047-.289 0-.469.023-.418.055m18.88 0c.1.066.8.058.87-.008.024-.027-.18-.047-.457-.047-.289 0-.465.023-.414.055"/><path style="stroke: none; fill-rule: evenodd; fill: rgb(36, 124, 196); fill-opacity: 1;" d="M55.867 2.547c-.707.187-1.492.695-2.144 1.379-.465.492-.434.484-.68.136-1.02-1.437-3.453-1.87-4.973-.886-1.539.992-1.98 2.75-1.187 4.73.113.285.207.531.207.543 0 .015-.184.124-.406.241-2.301 1.228-1.563 4.689 1.05 4.931.707.068.953-.046 5.875-2.714l4.652-2.523h.68c2.62 0 3.066 3.504.59 4.672-.56.261-1.427.304-2.028.093-.555-.19-.555-.195.117-1.101.333-.445.603-.852.607-.899 0-.109-.114-.109-.157.004-.207.54-3.011 3.895-3.738 4.473-.559.445-1.145.254-2.2-.715-.16-.148-.312-.246-.34-.215-.16.164 1.396 1.246 1.93 1.348.4.074 1.243-.68 2.59-2.313.317-.382.579-.699.586-.699.008.001.141.064.293.138 1.708.824 3.798-.29 4.091-2.18.232-1.488-.835-2.78-2.307-2.797-.653-.006-.618-.022-5.559 2.658-4.848 2.625-5.05 2.718-5.734 2.629-2.47-.32-3.067-3.57-.864-4.684.422-.215.383-.223.54.086.074.14.324.515.562.823.582.77.578.77.668.738.047-.014-.063-.198-.254-.432-1.871-2.262-2.21-4.602-.887-6.106 1.43-1.625 4.157-1.46 5.543.336l.297.383.473-.507c1.617-1.758 3.558-1.992 5.129-.617.78.684 1.12 2.219.726 3.25-.035.09-.023.117.043.098.2-.067.328-1.211.207-1.856-.316-1.71-2.273-2.906-3.996-2.441M31.523 3.738c-1.66.172-4.09 1.36-4.128 2.016-.008.062-.016.62-.028 1.234-.043 2.992-.808 4.414-3.12 5.809-.524.316-1.216.738-1.54.933-1.758 1.09-3.797.965-6.297-.375-.902-.484-1.023-.464-2.203.329-1.418.949-2.293 1.937-2.95 3.328-.39.824-.366 1.125.134 1.87 1.102 1.638 1.641 3.548 1.419 5.016-.064.422-.189.735-.748 1.868-.37.746-.8 1.648-.953 2-.813 1.87-2.997 3.12-5.458 3.125-.89 0-1.144.223-1.691 1.465-.687 1.567-.882 2.66-.737 4.122.125 1.242.207 1.37 1.16 1.785 1.832.804 3.219 2.008 3.91 3.39.316.637.328.688.504 2.309.047.411.14 1.087.21 1.497.34 1.965.364 2.223.278 2.926-.215 1.68-1.008 2.969-2.652 4.305-.887.718-.938.902-.656 2.203.382 1.782.925 2.82 2.125 4.075.636.668.808.722 1.664.527 3.011-.687 4.992-.2 6.57 1.613a46.85 46.85 0 0 0 1.351 1.461c2.04 2.102 2.43 3.832 1.528 6.801-.309 1.016-.266 1.13.762 2.164 1.078 1.083 2.117 1.716 3.445 2.103 1.36.39 1.418.379 2.39-.61 1.786-1.816 3.75-2.703 5.118-2.308 1.129.32 3.066.785 3.836.918 2.062.351 3.457 1.77 4.379 4.445.425 1.238.457 1.266 1.585 1.508 1.637.348 2.989.285 4.454-.2 1.265-.417 1.351-.519 1.535-1.816.249-1.78.74-2.98 1.585-3.867.336-.355.332-.336.074-.582-1.142-1.093-2.005-3.46-1.954-5.35l.02-.77-.712.156C28.012 69.023 11.973 53.72 14.95 35.781c1.421-8.577 7.398-16.124 15.35-19.393.755-.309.708-.23.544-.946-.75-3.311.554-8.342 2.95-11.385l.198-.25-.258-.07c-.293-.083-1.43-.083-2.21 0m35.574.554c-.024.273-.137 2.007-.254 3.855a486.608 486.608 0 0 1-.22 3.367c-.112.101-.456-.094-.558-.32-.148-.329-.187-.329-.375.003l-.15.27-1.032.039-.246 2.367c-.239 2.259-.328 2.84-.332 2.11-.004-1.835-.418-9.816-.508-9.726-.024.023-.578 4.883-.578 5.086 0 .031-.114.062-.254.074-.235.02-.274.055-.473.43l-.219.406-.003-.797c0-.484-.028-.797-.07-.797-.04 0-.067.383-.067 1.02 0 1.187.015 1.203.39.441l.29-.578h.27c.17 0 .272-.032.272-.087 0-.242.407-3.738.438-3.77.02-.019.04.047.04.15 0 .55.417 9.85.44 9.878.086.083.133-.269.426-3.077l.313-3.024h.488c.473 0 .496-.008.621-.212l.133-.21.147.253c.106.181.184.24.274.216.098-.023.157.031.243.25.184.442.21.235.414-3.183.102-1.72.203-3.149.227-3.176.035-.04.421 5.43.414 5.875 0 .098.058.117.332.117h.332l.12-.34c.153-.423.196-.423.333-.009.129.392.183.415.937.415h.524l.187-.437.043.473c.117 1.215.13 1.231.407.544.16-.39.175-.41.476-.47.276-.054.315-.085.343-.269.039-.246.312-3.406.308-3.601.001-.07.02-.11.044-.09.02.023.153 1.89.29 4.156.148 2.477.273 4.121.316 4.13.05.01.61-3.837.64-4.415 0-.062.188-.086.688-.086.437 0 .668-.024.64-.067-.066-.106-1.46-.09-1.464.015-.012.426-.461 3.442-.489 3.309-.023-.09-.148-2.027-.28-4.3-.305-5.204-.294-5.173-.587-1.77-.265 3.062-.21 2.789-.558 2.84-.258.038-.305.078-.418.331-.153.329-.145.348-.23-.648-.055-.703-.126-.762-.298-.258-.168.5-.168.5-.77.434l-.523-.055-.17-.46c-.094-.25-.192-.457-.22-.457-.03 0-.124.207-.214.457-.191.547-.602.746-.602.293 0-.238-.382-6.148-.445-6.914-.024-.27-.067-.493-.099-.493-.026 0-.069.223-.092.492m-23.672.17c0 .173-.328 5.122-.375 5.692-.05.57-.327.676-.503.188-.102-.281-.207-.266-.313.047-.074.234-.082.234-.547.27l-.468.034-.18 1.767a83.66 83.66 0 0 1-.212 1.934c-.039.215-.023.536-.242-4.203-.113-2.421-.207-3.91-.25-3.921-.043-.016-.145.707-.262 1.894-.074.746-.152 1.492-.23 2.238-.035.317-.035.32-.313.34-.23.016-.284.047-.32.192-.054.21-.12-.09-.147-.676-.02-.434-.149-.531-.215-.16-.094.515-.067.496-.645.496h-.527l-.164-.41c-.2-.504-.235-.504-.371-.016-.097.332-.222.594-.238.488-.004-.015-.117-1.34-.254-2.945-.156-1.793-.277-2.922-.324-2.937-.047-.016-.133.953-.258 2.984-.199 3.137-.218 3.316-.32 3.047-.04-.097-.098-.144-.16-.12-.07.027-.145-.059-.246-.282-.153-.34-.2-.32-.297.137-.04.184-.043.184-.7.203-.886.028-.863.153.036.176l.69.02.094-.223.09-.222.047.188c.032.117.095.183.177.183s.16.09.234.273c.153.379.231.34.274-.153.04-.39.305-4.402.317-4.753.016-.415.087.195.259 2.203.104 1.21.21 2.238.237 2.28.12.196.312.087.398-.222.098-.379.125-.379.293-.023l.133.285.61-.016c.336-.011.63-.05.653-.086.047-.074.129.438.129.801 0 .355.125.265.25-.18l.113-.41h.57l.035-.32c.024-.18.094-.895.16-1.595.067-.699.137-1.257.153-1.238.02.02.117 1.867.219 4.11.23 5.148.218 5.113.57 1.624.297-2.971.207-2.647.738-2.647.41 0 .442-.012.48-.168.055-.219.15-.219.204.004.031.128.082.167.191.151.118-.018.16.029.22.228.038.137.1.262.136.273.055.017.4-4.233.438-5.405.016-.43.082.2.246 2.336.203 2.618.18 2.493.473 2.524.203.024.371-.203.54-.738.097-.309-.087-.144-.243.219-.125.297-.192.37-.297.36-.129-.02-.148-.169-.387-3.11-.289-3.578-.242-3.121-.324-3.121-.04 0-.07.05-.07.117M68.12 31.095c-1.753.472-3.14 1.879-3.222 3.273l-.03.52.374.703c1.14 2.133 1.05 4.144-.36 8.105-.808 2.274-.769 2.965.223 4.016 2.34 2.478 7.801 1.45 10.204-1.913 1.374-1.93.51-4.078-2.279-5.668-1.19-.685-1.23-.896-.315-1.794.879-.863 1.21-1.566 1.308-2.773.223-2.786-3.027-5.247-5.902-4.47m-31.163.278c-1.55.232-3.273 1.228-4.715 2.743l-.683.711-.412-.496c-2.683-3.242-7.722-3.605-10.566-.762-1.543 1.543-2.223 3.746-1.844 5.95.149.86.164.902.301.84.062-.028.198-.051.304-.047.164-.001.187-.02.152-.142-1.934-6.941 7.047-10.938 11.441-5.094.59.785.606.785 1.18.098 2.938-3.52 6.352-4.195 9.438-1.867 1.722 1.297 2.32 3.437 1.691 6.05-.031.137.25.293.531.297.278 0 .383-2.918.14-3.886-.698-2.801-3.929-4.836-6.96-4.395m32.984 2.806c1.357.629 1.423 2.8.115 3.633-1.114.71-1.844.495-1.844-.544 0-.715-.081-1.14-.358-1.844-.2-.516-.204-.54-.098-.762.285-.594 1.418-.844 2.187-.484m-50.35 6.617c0 .047-.102.133-.23.191l-.231.11.128.379c.527 1.53 2.633 4.8 3.328 5.175.336.18.55-.32.258-.59-.805-.722-2.281-3.035-2.883-4.507-.327-.808-.37-.89-.37-.757m50.12.824c1.673.524 2.481 1.79 1.86 2.91-.672 1.223-2.734 2.188-3.547 1.66-.23-.152-.242-.304-.078-1.054.125-.578.153-.914.157-2 .003-.77.03-1.328.074-1.371.3-.301.867-.352 1.535-.145m-29.612 3.817c-1.653 2.683-7.637 8.41-8.785 8.406-.739 0-3.372-1.988-5.79-4.36l-.617-.609-.594.306.915.883c3.14 3.022 5.535 4.659 6.386 4.366 1.313-.453 6.84-5.328 6.45-5.688-.153-.144-.18-.394-.055-.52.097-.097.437-.105.496-.01.094.155.246.026.828-.696 1.52-1.899 1.773-2.43 1.176-2.43-.16 0-.23.059-.41.352m25.8 15.543c-1.867.277-2.44 1.218-2.046 3.355.394 2.152.34 3.406-.262 5.805-1.149 4.597-.582 6.867 1.847 7.375 3.907.816 6.946-.016 8.004-2.188.79-1.62-1.467-3.574-2.94-2.55-1.293.898-2.82.925-3.715.066-1.422-1.367.606-3.078 2.477-2.086.668.351 1.05.434 1.605.332 1.707-.305 2.145-1.516.973-2.691-.735-.739-1.188-.782-2.371-.223-1.404.664-2.552.637-3.29-.086-1.125-1.102.273-2.64 1.879-2.063 3.213 1.16 3.596 1.227 4.124.715.597-.578.754-1.957.324-2.867-.844-1.776-4.211-3.253-6.61-2.893"/><path style="stroke: none; fill-rule: evenodd; fill: rgb(115, 167, 206); fill-opacity: 1;" d="M49.621 2.621c.068.02.173.02.24.001.066-.015.011-.026-.122-.026-.129 0-.183.011-.117.027m.544.001c.078.02.16.02.238.001.067-.015.012-.026-.12-.026-.13 0-.184.011-.118.027m6.313.005c.125.016.25.016.375 0 .101-.016.02-.027-.188-.027-.203 0-.29.011-.184.027m2.493 1.004c.129.128.246.237.265.237.02 0-.07-.11-.195-.238-.129-.13-.246-.24-.266-.24-.02 0 .07.11.196.239m-5.196.186-.27.29.29-.27c.27-.25.32-.309.27-.309-.012 0-.141.13-.29.29M31.695 3.71a.612.612 0 0 0 .239 0c.062-.019.011-.03-.122-.03-.128 0-.183.011-.117.03m35.375.395c.004.149.016.2.032.118a.8.8 0 0 0 0-.274c-.016-.063-.032.003-.032.155m.203-.035c0 .13.016.184.032.117a.592.592 0 0 0 0-.234c-.016-.066-.032-.016-.032.117m-23.804.25a.397.397 0 0 1 .112.192c.031.105.035.101.023-.028-.003-.09-.054-.18-.113-.195-.066-.017-.074-.009-.023.03m-.099.496c.001.133.017.184.032.122a.492.492 0 0 0 0-.239c-.015-.067-.03-.012-.03.116m23.972.305c0 .153.015.204.03.122a.708.708 0 0 0-.003-.273c-.015-.064-.026.003-.026.151m-.34.071c0 .15.016.205.031.119a.778.778 0 0 0 0-.27c-.02-.067-.031.003-.031.151m-30.828.27c0 .153.015.204.03.118a.78.78 0 0 0 0-.27c-.019-.066-.03.004-.03.153m23.566.138c0 .187.012.254.028.152a1.235 1.235 0 0 0 0-.34c-.016-.082-.032 0-.032.188m7.434-.063c-.027.028-.05.145-.05.258 0 .144.023.184.073.133.04-.043.063-.156.051-.258-.012-.102-.047-.164-.074-.133m-23.867.336c0 .15.015.2.03.118a.8.8 0 0 0 0-.273c-.015-.063-.03.004-.03.156m3.332.204c0 .262.015.36.027.22.016-.142.016-.357 0-.478-.016-.12-.027-.003-.027.258m20.773.102c0 .129.012.183.031.117a.61.61 0 0 0 .001-.238c-.018-.063-.03-.012-.03.12m-.476.067c0 .133.015.184.03.117a.476.476 0 0 0 0-.235c-.015-.066-.03-.012-.03.117m-23.493.203c.001.133.017.184.033.121a.61.61 0 0 0 0-.238c-.016-.066-.032-.012-.032.117m-7.33.07c0 .13.011.184.03.118a.61.61 0 0 0 0-.238c-.019-.067-.03-.012-.03.117m27.433.136c0 .207.016.29.031.188.016-.125.016-.25 0-.375-.015-.1-.03-.015-.03.188m-19.966-.066c0 .129.012.184.031.117a.61.61 0 0 0 0-.24c-.02-.062-.032-.01-.032.122m28.52.035c0 .149.011.2.03.117a.708.708 0 0 0-.003-.273c-.016-.062-.027.005-.027.157m-44.743.371c0 .317.012.45.028.29a3.57 3.57 0 0 0 0-.579c-.016-.157-.028-.028-.028.288m39.918-.27c0 .13.016.184.032.118a.492.492 0 0 0 0-.238c-.016-.067-.032-.012-.032.12m-.203.102c.004.149.016.203.032.117a.714.714 0 0 0 0-.273c-.016-.062-.032.008-.032.156m-23.832.067c0 .148.016.203.032.117a.78.78 0 0 0 0-.27c-.02-.066-.032.004-.032.153m-6.992.172c0 .128.012.182.027.116a.492.492 0 0 0 0-.239c-.015-.066-.03-.011-.03.122m31.234.131c0 .134.015.185.03.122a.492.492 0 0 0 0-.238c-.015-.066-.03-.011-.03.117m-27.02.24c0 .187.016.254.031.152a1.224 1.224 0 0 0-.004-.34c-.015-.082-.027 0-.027.188m26.41-.102c0 .13.016.184.031.117a.592.592 0 0 0 0-.234c-.015-.065-.03-.01-.03.118m-23.493.137c0 .129.012.183.031.117a.61.61 0 0 0 0-.238c-.02-.063-.03-.012-.03.12m-7.337.067c0 .134.015.185.03.122a.492.492 0 0 0 0-.238c-.015-.066-.03-.012-.03.117m31.304.204c0 .133.011.188.03.121a.61.61 0 0 0 0-.238c-.019-.066-.03-.012-.03.117m4.82.036c0 .148.016.203.031.117a.78.78 0 0 0 0-.27c-.02-.066-.03.004-.03.153m-31.884.304c.025.246.052.457.064.473.047.055.011-.574-.043-.742-.03-.102-.038.008-.019.273m26.724-.172c0 .149.016.203.031.117a.688.688 0 0 0-.004-.27c-.014-.065-.026.005-.026.153m-23.836.035c0 .13.016.185.031.119a.492.492 0 0 0 0-.24c-.016-.062-.032-.011-.032.121m-6.992.138c0 .13.012.184.03.117a.61.61 0 0 0 0-.238c-.019-.066-.03-.012-.03.121m27.433.168c.003.188.015.254.03.152a1.236 1.236 0 0 0 0-.34c-.015-.081-.03 0-.03.188m3.937-.035c0 .134.012.188.031.122a.61.61 0 0 0 0-.238c-.02-.067-.031-.012-.031.117m-.746.173c0 .148.012.203.032.117a.686.686 0 0 0-.004-.27c-.016-.066-.027.004-.027.153m5.227 0c0 .148.016.203.032.117a.8.8 0 0 0-.001-.273c-.02-.063-.033.003-.033.156m-28.722.101c0 .13.015.184.03.118a.61.61 0 0 0 0-.239c-.015-.062-.03-.011-.03.121m-7.332.067c0 .134.011.184.03.122a.61.61 0 0 0 0-.238c-.019-.067-.03-.012-.03.117m7.941.137c0 .13.016.184.031.118a.492.492 0 0 0 0-.239c-.015-.062-.03-.011-.03.122m23.495.101c0 .148.016.202.031.116a.78.78 0 0 0 .001-.27c-.018-.066-.03.005-.03.153m-26.887.136c0 .183.016.254.032.152a1.09 1.09 0 0 0-.004-.34c-.015-.086-.027 0-.027.188m31.707-.07c.004.148.016.203.032.117a.78.78 0 0 0 0-.27c-.016-.066-.032.004-.032.152m-29.128.102c0 .133.011.184.03.121a.61.61 0 0 0 0-.238c-.019-.067-.03-.012-.03.117m20.375.137c0 .207.011.289.027.187.016-.124.016-.249 0-.374-.016-.101-.027-.02-.027.188m3.457-.102c.004.149.015.203.03.117a.78.78 0 0 0 0-.27c-.015-.067-.03.004-.03.152m-30.825.137c0 .147.011.202.03.116a.708.708 0 0 0-.003-.273c-.016-.063-.032.004-.028.156m10.027.151-.235.255.254-.234c.239-.218.285-.273.235-.273-.011 0-.124.114-.253.254m21.476-.018c0 .152.016.203.032.12a.8.8 0 0 0 0-.273c-.02-.063-.032.003-.032.152m-.883.207c0 .147.016.202.032.116a.8.8 0 0 0 0-.274c-.02-.062-.032.008-.032.157m-23.496.034c0 .129.016.184.032.117a.492.492 0 0 0 0-.237c-.016-.067-.032-.012-.032.12m28.86 0c0 .13.015.184.03.118a.61.61 0 0 0 0-.237c-.015-.067-.03-.012-.03.12m-36.192.102c.004.149.016.204.032.118a.778.778 0 0 0 0-.27c-.016-.066-.032.004-.032.152m4.485.137c0 .184.015.254.03.149a1.068 1.068 0 0 0-.003-.335c-.016-.086-.027 0-.027.187m23.293.102c0 .203.011.289.027.183a1.475 1.475 0 0 0 0-.37c-.016-.102-.027-.02-.027.187m3.797 0c0 .129.011.183.03.117a.61.61 0 0 0 0-.237c-.019-.063-.03-.012-.03.12m-24.446.134c.001.132.017.187.033.12a.61.61 0 0 0 0-.238c-.016-.067-.032-.012-.032.12m29.267.032c0 .148.016.203.031.117a.78.78 0 0 0 0-.27c-.016-.067-.031.003-.031.152m-5.434.035c0 .129.016.183.032.117a.476.476 0 0 0 0-.234c-.016-.067-.032-.012-.032.117m-30.824.137c0 .128.01.183.03.117a.61.61 0 0 0 0-.238c-.02-.062-.03-.011-.03.122m4.55.238c0 .183.015.254.031.148a1.068 1.068 0 0 0-.003-.336c-.015-.086-.027 0-.027.188m27.09-.102c0 .13.015.184.03.118a.61.61 0 0 0 0-.239c-.015-.067-.03-.012-.03.116m-24.512.207c0 .13.012.184.031.118a.61.61 0 0 0 0-.238c-.02-.066-.032-.011-.032.121m23.492 0c0 .13.016.184.031.118a.492.492 0 0 0 .001-.238c-.014-.066-.03-.011-.03.121m-3.117.204c0 .203.012.289.027.183a1.475 1.475 0 0 0 0-.37c-.015-.102-.027-.02-.027.187m8.621-.102c0 .148.012.2.027.117a.714.714 0 0 0 .001-.273c-.014-.064-.03.003-.026.155m-36.352.05c-.02.145-.011.227.024.196.035-.034.05-.147.035-.257-.018-.18-.026-.172-.057.063m3.28-.02c0 .133.012.184.032.121a.61.61 0 0 0 0-.238c-.02-.067-.031-.013-.031.116m2.836-.066-.239.05.216.008c.121.004.239-.023.262-.058.023-.04.031-.067.02-.059a6.618 6.618 0 0 1-.258.06m19.789.086c-.02.05-.029.53-.017 1.07l.02.98.035-1.066c.031-1.055.027-1.156-.04-.984m-22.464.035c-.016.032.082.044.219.028.375-.035.422-.07.101-.074-.156-.004-.3.016-.32.047m4.703.032c.031.035.133.05.223.035.136-.02.125-.027-.063-.058-.137-.025-.2-.017-.16.022m23.586.117c0 .132.016.187.031.12a.61.61 0 0 0 0-.238c-.015-.066-.03-.012-.03.117m-29.571-.087c.191.016.386.016.578 0 .16-.011.028-.023-.288-.023-.317 0-.446.012-.29.023m2.481.461c.004.188.016.254.031.153a1.236 1.236 0 0 0 0-.34c-.015-.082-.03 0-.03.187m26.343-.101c0 .129.016.183.031.117a.592.592 0 0 0 0-.234c-.016-.067-.031-.016-.031.117m5.57.035c0 .148.016.2.031.117a.708.708 0 0 0-.003-.273c-.016-.063-.028.004-.028.156m-36.402.023c-.008.189-.031.22-.13.181-.097-.034-.1-.026-.034.044.126.125.24-.02.204-.258-.027-.183-.031-.183-.04.035m2.997.044c0 .149.013.203.028.118a.693.693 0 0 0 0-.27c-.015-.066-.03.004-.027.152m24.786.203c0 .188.012.254.027.153a1.235 1.235 0 0 0 0-.34c-.015-.086-.027 0-.027.188m.77.015c-.016.027.14.043.351.031.664-.03.746-.058.203-.07-.289-.008-.535.012-.554.04m5.168 0a.708.708 0 0 0 .273-.005c.063-.016-.004-.028-.156-.028-.148 0-.198.016-.116.031m1.918.106c0 .065-.07.116-.188.135l-.184.028.188.011c.18.008.324-.144.227-.242-.024-.023-.043.004-.043.067m-9.192.034c-.015.027.09.039.235.023.148-.012.265-.035.265-.05 0-.051-.465-.028-.5.027m5.371-.008a.82.82 0 0 0 .31 0c.082-.016.015-.027-.152-.027-.168-.001-.239.01-.157.026m4.45.191c0 .149.016.203.032.118a.78.78 0 0 0 0-.27c-.02-.066-.032.004-.032.152m1.329-.187c.194.015.499.015.674 0 .176-.016.016-.028-.355-.024-.376 0-.52.012-.321.024m-32.9.355c0 .207.012.293.028.188.015-.121.015-.25 0-.371-.016-.106-.028-.02-.028.183m22.95.34c0 .207.015.29.03.188.012-.125.012-.25-.003-.371-.016-.106-.028-.02-.028.183m8.824-.031c0 .148.015.203.03.117a.8.8 0 0 0 0-.272c-.019-.063-.03.004-.03.156m-31.91.543c0 .187.011.254.027.152a1.235 1.235 0 0 0 0-.34c-.015-.087-.027 0-.027.187m31.774.066c.004.149.016.203.031.117a.78.78 0 0 0 0-.27c-.016-.065-.031.005-.031.153m-8.484.172c0 .203.015.29.03.184a1.475 1.475 0 0 0 0-.372c-.015-.102-.03-.02-.03.187m-23.086.438c0 .187.015.257.03.152a1.236 1.236 0 0 0 0-.34c-.019-.082-.03.004-.03.188m31.777-.067c0 .149.016.203.031.117a.78.78 0 0 0 0-.27c-.02-.066-.031.005-.031.153m-14.395-.12a.61.61 0 0 0 .238 0c.062-.02.011-.032-.121-.032-.13 0-.184.012-.118.031m-10.356.203a.996.996 0 0 0 .305 0c.085-.015.014-.027-.154-.027s-.238.013-.152.028m15.926.426c0 .207.011.29.027.188.016-.125.016-.25 0-.372-.016-.105-.027-.02-.027.184m8.687.102c0 .152.016.203.031.12a.8.8 0 0 0 0-.273c-.02-.066-.03.004-.03.153m-31.774.273c0 .187.011.253.027.151a1.235 1.235 0 0 0 .001-.338c-.015-.082-.026 0-.026.187m23.289.374c0 .203.012.29.027.184.016-.121.016-.25 0-.371-.015-.106-.027-.02-.027.187m8.672-.133c0 .13.03.279.07.337.047.07.055.008.023-.203-.054-.383-.093-.437-.093-.133m-17.723.575c-.277.278-.492.508-.473.508.019 0 .261-.23.538-.508.282-.28.493-.511.473-.511-.018 0-.26.23-.538.511m-2.715-.203c.125.13.242.235.262.235.018 0-.068-.106-.196-.235-.125-.132-.246-.238-.266-.238-.016 0 .07.106.2.238m20.316.27c.004.148.015.203.03.117a.78.78 0 0 0 0-.27c-.015-.067-.03.003-.03.152m-8.688.34c0 .187.016.254.031.152a1.396 1.396 0 0 0-.004-.34c-.015-.086-.027 0-.027.188m-23.09.168c0 .132.016.183.032.12a.61.61 0 0 0 0-.238c-.016-.066-.032-.011-.032.118m23.32.164a.986.986 0 0 0-.039.3c.004.169.008.169.07-.046.071-.243.048-.453-.03-.254m-.16 1.261c0 .208.011.29.027.188.015-.125.015-.25 0-.371-.016-.106-.028-.02-.028.183m-41.746 4.84-.68.696.696-.68c.648-.628.726-.71.68-.71-.012 0-.325.312-.696.695m-9.246 1.239c0 .3.012.414.028.253.015-.16.011-.406 0-.542-.016-.141-.028-.008-.028.289m-2.601 5.91c-.168.168-.285.304-.27.304.02 0 .172-.136.336-.304.163-.168.284-.309.265-.309-.02 0-.168.14-.332.309m58.785 1.847c.12.017.32.017.441.001.12-.014.019-.026-.223-.026-.243 0-.34.012-.22.027m-43.866.681c.126.017.32.017.446.001.12-.015.02-.026-.223-.026-.242 0-.343.011-.222.027m12.462.34c.14.013.37.013.511 0 .137-.015.024-.026-.258-.026-.277 0-.394.011-.253.027m-5.215 1.938-.336.356.356-.34c.2-.184.36-.344.36-.355 0-.052-.063.006-.38.338m9.716-.085c.144.148.28.27.296.27.02 0-.082-.122-.23-.27-.145-.149-.281-.274-.297-.274-.018 0 .083.124.232.272m-21.122.22-.27.288.29-.27c.27-.245.32-.308.27-.308-.012 0-.141.133-.29.29m9.204.222c.203.203.382.37.402.37.02 0-.133-.167-.332-.37-.207-.207-.387-.375-.406-.375-.016-.001.132.167.336.374m34.648.27c0 .187.016.257.031.152a1.095 1.095 0 0 0-.004-.34c-.016-.082-.028.004-.028.187m-21.383 2.82c0 .356.01.5.023.321.015-.215.015-.43 0-.644-.012-.176-.024-.032-.024.324m-24.856.95c0 .206.011.288.027.186.017-.125.017-.25.001-.375-.015-.101-.026-.015-.026.188m47.398.34c0 .32.012.45.024.289a3.57 3.57 0 0 0 0-.578c-.012-.157-.024-.028-.024.289M14.594 40.09c0 .597.011.836.023.523.012-.308.012-.797 0-1.086-.012-.285-.023-.035-.023.563m-7.43.07c.203.203.387.371.402.371.02.001-.128-.167-.332-.37-.203-.207-.386-.375-.402-.375-.02 0 .129.168.332.375m7.488 1.867c0 .13.012.184.028.118a.492.492 0 0 0 0-.239c-.016-.062-.028-.011-.028.121m56.543.508c.13.133.246.238.266.238.02 0-.07-.105-.194-.238-.13-.129-.246-.238-.266-.238-.02 0 .07.11.195.238m.563 1.188c0 .168.012.238.031.156a1.022 1.022 0 0 0 0-.31c-.02-.082-.032-.015-.032.153m2.863 2.87-.335.356.356-.337c.2-.187.36-.347.36-.355 0-.05-.062.004-.379.336M9.294 47.766c0 .297.012.41.027.25a3.15 3.15 0 0 0 0-.543c-.015-.137-.027-.008-.027.293m28.422.629-.164.183.177-.152c.093-.082.199-.13.23-.102.031.028.035.012.008-.035-.063-.11-.059-.114-.25.105m-.031.984-.336.354.355-.336c.332-.316.39-.378.336-.378-.009 0-.169.16-.356.359m30.746-.24c.18.012.457.012.613-.003.156-.012.012-.024-.324-.024-.337 0-.466.012-.29.028m-43.782.423c.223.226.422.41.438.41.02 0-.145-.184-.367-.41-.224-.223-.42-.407-.439-.407-.018 0 .15.184.368.407m11.747.222-.61.63.63-.61c.343-.336.628-.621.628-.63 0-.05-.082.024-.648.61m-10.524.05c.15.15.282.27.302.27.015 0-.086-.12-.23-.27-.15-.147-.282-.272-.301-.272-.019 0 .087.125.231.273m-.167.7c0 .01.098.109.219.218l.223.203-.2-.223c-.187-.207-.242-.25-.242-.199m10.32.488c-.164.168-.285.305-.265.305.02 0 .168-.137.332-.305.168-.168.285-.304.265-.304-.015-.001-.167.135-.332.303m-1.058.118-.2.223.223-.199c.203-.187.25-.242.2-.242-.012 0-.114.098-.223.219m-13.371 6.57c.144.15.28.274.3.274.016 0-.085-.125-.234-.273-.144-.147-.277-.269-.297-.269-.02.001.086.123.23.27m1.02 1.02c.145.149.282.27.297.27.02 0-.082-.121-.23-.27-.145-.148-.282-.273-.297-.273-.02 0 .082.125.23.273m-14.633.168c.125.133.247.239.262.239.02 0-.066-.106-.195-.239-.125-.128-.246-.234-.262-.234-.02 0 .067.106.195.234m9.372 3.383c0 .01.234.247.523.525l.527.507-.507-.523c-.47-.493-.543-.56-.543-.509m54.488.661c.148.15.281.27.3.27.02 0-.085-.12-.23-.269-.148-.15-.281-.272-.3-.272-.02 0 .085.121.23.273m-25.52 2.083c.043.032.094.133.114.227.03.145.03.14.023-.031-.008-.11-.055-.208-.113-.224-.067-.02-.074-.012-.024.027m-7.664.68a.996.996 0 0 0 .305 0c.083-.016.017-.027-.151-.027-.17 0-.24.011-.154.027m2.918 0a.8.8 0 0 0 .274 0c.062-.016-.004-.031-.157-.031-.147.004-.198.016-.116.031m22.516 1.04c0 .241.012.343.027.222.016-.121.016-.32 0-.442-.015-.12-.027-.023-.027.22m-44.48.44c0 .15.015.204.03.118a.688.688 0 0 0-.003-.269c-.016-.065-.028.005-.028.154m48.515 3.273a.778.778 0 0 0 .27 0c.066-.016-.004-.031-.153-.031-.148.004-.203.015-.117.03m-37.89.204a.996.996 0 0 0 .304 0c.085-.015.015-.027-.153-.027s-.235.012-.153.027m-10.714.445c.167.18.312.325.324.325.05 0-.004-.063-.305-.344l-.321-.3.3.32m6.484 1.699-.266.289.29-.27c.265-.25.316-.308.265-.308-.012 0-.14.129-.29.289m16.454 5.054c.121.015.32.015.441 0 .122-.016.024-.028-.218-.028-.243 0-.344.012-.223.027m25.973 0c.14.015.367.015.507 0 .141-.012.028-.028-.253-.028-.282 0-.395.016-.254.027"/></g></svg>
