<svg width="400" height="400" xmlns="http://www.w3.org/2000/svg" version="1.1">

 <g>
  <title>Layer 1</title>
  <g stroke="null" stroke-width="0" id="svgg">
   <path stroke="null" fill-rule="evenodd" fill="#fcba14" d="m164.19944,47.26661c-2.96007,7.5574 -2.58449,22.30299 0.83518,32.77971c4.99583,15.30832 12.21712,24.20889 39.01813,48.09312c27.54071,24.54245 35.97658,39.38734 35.98422,63.32123c0.00255,8.50589 -0.1184,9.82869 -1.71111,18.67325c-5.45034,30.25888 -4.01932,58.24392 3.76979,73.70884c1.3419,2.6647 1.1993,2.58449 2.82766,1.58889c21.52,-13.1567 41.20158,-39.34788 45.49972,-60.54959c7.88078,-38.87936 -20.36653,-76.79367 -88.85037,-119.25439c-17.7744,-11.02163 -29.91259,-29.47972 -35.87346,-54.5518c-1.02616,-4.31724 -1.16366,-4.66736 -1.49977,-3.80926m212.47166,2.3375c-0.01146,0.06238 -0.1515,1.94664 -0.31065,4.18738c-0.72187,10.16608 -4.69282,21.59512 -10.56585,30.40657c-8.52117,12.78749 -18.26075,21.46144 -37.82265,33.68237c-18.08505,11.29791 -26.07532,15.08552 -46.02681,21.8141c-9.37418,3.16122 -11.51943,4.00277 -11.51943,4.5184c0,0.14641 2.11597,2.11597 4.70173,4.37835c14.82961,12.96573 20.66954,24.2038 22.80333,43.88665c0.45324,4.17847 0.44178,4.15173 0.98924,2.32477c4.21666,-14.07337 11.867,-25.07717 27.72405,-39.87878c19.18887,-17.91063 32.38122,-35.08029 43.75042,-56.94277c7.31932,-14.07464 10.96816,-36.74175 7.55995,-46.96766c-0.33102,-0.99305 -1.18912,-1.93518 -1.28333,-1.40937m-118.57326,35.42277c-12.55959,3.4515 -19.82799,19.65102 -14.63864,32.62184c8.23217,20.57533 31.8936,19.4766 39.22056,-1.8206c5.50763,-16.006 -9.59062,-34.92242 -24.58192,-30.80124m-50.63814,112.23172c-4.675,0.71042 -0.42396,-1.45139 -49.92009,25.39291c-45.5481,24.70541 -43.96685,23.94917 -50.07669,23.94917c-22.68366,0.00127 -30.74013,-29.07613 -11.45832,-41.35563c2.00011,-1.27315 2.47754,-2.25856 1.54433,-3.19178c-1.63472,-1.63472 -8.66122,3.7456 -11.79571,9.03298c-10.48946,17.69165 2.34386,39.54649 22.71931,38.69221c6.28171,-0.26227 5.29247,0.21516 51.64902,-24.93713c46.52333,-25.24268 44.49139,-24.23944 49.53305,-24.46479c16.20079,-0.72569 25.87034,15.84049 18.17163,31.12844c-6.24733,12.40682 -23.05796,17.36063 -34.58631,10.19409c-1.8346,-1.14074 -3.0772,-1.15474 -3.4324,-0.03819c-0.98032,3.08865 9.45566,6.86099 17.63945,6.37592c23.26294,-1.37754 35.08538,-29.91895 18.63632,-44.99174c-4.81631,-4.41273 -12.32152,-6.74513 -18.62359,-5.78645m88.47989,35.67867c-4.04606,22.93319 -16.45924,41.11373 -41.45748,60.7151c-8.65485,6.78587 -9.74212,8.12013 -11.50034,14.10392c-4.29305,14.60936 -1.54687,30.65738 7.71018,45.05285c2.31458,3.59919 1.87916,3.60301 4.91435,-0.04329c17.99593,-21.62185 31.61988,-58.55966 38.89718,-105.45603c2.10833,-13.58957 3.16759,-24.19234 1.43611,-14.37255m19.37348,13.27128c-4.33379,1.389 -6.6993,6.97048 -4.78703,11.29409c2.33495,5.27974 -1.24514,15.60751 -11.06237,31.90633c-4.52858,7.51666 -5.35358,9.30034 -5.36249,11.58946c-0.0191,4.65717 4.8927,9.39073 10.24756,9.8758c8.22835,0.74606 14.06827,-8.92094 15.63297,-25.87926c0.56655,-6.13784 1.26169,-8.12904 3.7978,-10.88031c4.44965,-4.82777 10.51874,-0.66713 11.6442,7.97881c1.44629,11.1273 11.49397,13.37823 16.30265,3.65139c2.54375,-5.14479 4.61516,-7.4861 6.1162,-6.91064c1.55197,0.59583 2.75127,6.86863 2.25729,11.80334c-1.69329,16.90612 11.68622,29.76363 21.64986,20.80577c4.04988,-3.64247 3.08865,-7.93298 -4.43182,-19.75669c-4.48784,-7.05705 -5.03275,-8.553 -5.03148,-13.82128c0,-4.29687 0.83646,-8.37221 2.75127,-13.41006c3.6412,-9.58298 0.24572,-18.41225 -6.06782,-15.77556c-1.93773,0.81099 -5.9405,3.97858 -7.76874,6.15057c-5.06585,6.01562 -9.40983,8.27545 -15.88378,8.26145c-6.74768,-0.014 -10.87013,-2.25347 -15.47765,-8.40659c-4.96909,-6.63691 -10.3927,-9.80068 -14.52661,-8.47661" id="path0"/>
   <path stroke="null" fill-rule="evenodd" fill="#d8dbc3" d="m282.56263,12.10229c0.42014,0.08021 1.10764,0.08021 1.52778,0c0.42014,-0.08148 0.07639,-0.14769 -0.76389,-0.14769c-0.84028,0 -1.18403,0.0662 -0.76389,0.14769m12.9861,5.36249c0.63403,0.65312 1.22859,1.18785 1.32153,1.18785c0.09421,0 -0.34757,-0.53472 -0.9816,-1.18785c-0.63403,-0.6544 -1.22859,-1.18912 -1.32153,-1.18912c-0.09294,0 0.34884,0.53472 0.9816,1.18912m-32.59256,0.275c0,0.05856 0.49653,0.55509 1.10382,1.10382l1.10382,0.99687l-0.99815,-1.10255c-0.9294,-1.0287 -1.20949,-1.26042 -1.20949,-0.99815m6.59999,2.01666l-0.99815,1.10255l1.10382,-0.99687c0.60729,-0.54873 1.10382,-1.04525 1.10382,-1.10382c0,-0.26227 -0.28009,-0.03056 -1.20949,0.99815m-37.39742,10.60913c0.00255,0.93322 0.06875,1.27569 0.14641,0.7588c0.07766,-0.51562 0.07639,-1.27951 -0.00509,-1.6971c-0.08021,-0.41759 -0.14387,0.00509 -0.14132,0.93831m103.70672,-0.6544c-0.14005,0.14132 -0.25463,0.64549 -0.25463,1.11782c0,0.61875 0.10312,0.75752 0.36794,0.49271c0.20243,-0.20243 0.31701,-0.7066 0.25463,-1.1191c-0.06238,-0.4125 -0.22789,-0.63403 -0.36794,-0.49143m-133.59512,4.72847c0.00382,0.74734 0.07384,1.01215 0.15532,0.59074c0.08021,-0.42268 0.07766,-1.0338 -0.00764,-1.35845c-0.0853,-0.32465 -0.1515,0.02037 -0.14769,0.76771m115.7787,3.90474c0,0.84028 0.0662,1.18403 0.14769,0.76389c0.08021,-0.42014 0.08021,-1.10764 0,-1.52778c-0.08148,-0.42014 -0.14769,-0.07639 -0.14769,0.76389m-1.0618,1.52778c-0.03183,0.37303 -0.15405,1.06053 -0.26991,1.52778c-0.16296,0.65312 -0.11713,0.76007 0.19861,0.46724c0.22917,-0.21262 0.34884,-0.88993 0.27118,-1.52778c-0.07766,-0.63021 -0.16678,-0.84155 -0.19988,-0.46724m-114.37697,2.03703c0.00382,0.74606 0.07257,1.01215 0.15405,0.58947c0.08148,-0.42141 0.07894,-1.03252 -0.00637,-1.35717c-0.0853,-0.32465 -0.1515,0.02037 -0.14769,0.76771m-1.01852,2.03703c0.00382,0.74606 0.07257,1.01215 0.15405,0.58947c0.08148,-0.42141 0.07894,-1.03252 -0.00637,-1.35717c-0.0853,-0.32465 -0.1515,0.02037 -0.14769,0.76771m116.78958,2.37569c0.00382,0.74734 0.07384,1.01342 0.15532,0.59074c0.08021,-0.42268 0.07766,-1.0338 -0.00764,-1.35845c-0.0853,-0.32465 -0.1515,0.02164 -0.14769,0.76771m-1.01852,2.03703c0.00382,0.74734 0.07384,1.01342 0.15532,0.59074c0.08021,-0.42268 0.07766,-1.0338 -0.00764,-1.35845c-0.0853,-0.32465 -0.1515,0.02164 -0.14769,0.76771m-114.41262,1.01852c0.00382,0.74734 0.07257,1.01342 0.15405,0.59074c0.08148,-0.42268 0.07766,-1.0338 -0.00637,-1.35845c-0.0853,-0.32465 -0.1515,0.02164 -0.14769,0.76771m157.52392,0.1706c0,0.65312 0.06875,0.92049 0.15405,0.59329c0.08657,-0.32593 0.08657,-0.86065 0,-1.18785c-0.0853,-0.3272 -0.15405,-0.05984 -0.15405,0.59456m16.00473,0.15787c-0.10567,0.27373 -0.11204,0.69387 -0.01655,0.93449c0.09676,0.23935 0.18715,0.07512 0.20243,-0.36539c0.0191,-0.57801 0.17187,-0.74352 0.55382,-0.59838c0.30174,0.11586 0.43796,0.05984 0.31829,-0.13241c-0.30301,-0.49271 -0.839,-0.40995 -1.05799,0.16169m-174.54716,1.70856c0.00382,0.74734 0.07257,1.01342 0.15405,0.59074c0.08148,-0.42268 0.07766,-1.0338 -0.00637,-1.35845c-0.0853,-0.32465 -0.1515,0.02164 -0.14769,0.76771m-10.0133,1.42847c0.42268,0.08148 1.0338,0.07894 1.35845,-0.00637c0.32465,-0.0853 -0.02037,-0.1515 -0.76771,-0.14769c-0.74734,0.00382 -1.01215,0.07257 -0.59074,0.15405m14.93911,0.33993c0.42141,0.08148 1.03252,0.07766 1.35717,-0.00637c0.32465,-0.0853 -0.02037,-0.1515 -0.76771,-0.14769c-0.74606,0.00382 -1.01215,0.07257 -0.58947,0.15405m111.87014,1.11782c0,0.84028 0.0662,1.18403 0.14769,0.76389c0.08021,-0.42014 0.08021,-1.10764 0,-1.52778c-0.08148,-0.42014 -0.14769,-0.07639 -0.14769,0.76389m-110.34619,-0.09676c0.51308,0.07766 1.35336,0.07766 1.86643,0c0.51435,-0.07766 0.09421,-0.14132 -0.93322,-0.14132c-1.02743,0 -1.44757,0.06366 -0.93322,0.14132m-10.69061,0.33738c0.42141,0.08021 1.03252,0.07766 1.35717,-0.00764c0.32465,-0.0853 -0.02037,-0.1515 -0.76771,-0.14769c-0.74606,0.00382 -1.01215,0.07384 -0.58947,0.15532m120.01192,1.96574c0.00382,0.74734 0.07257,1.01342 0.15405,0.59074c0.08148,-0.42268 0.07894,-1.0338 -0.00637,-1.35845c-0.0853,-0.32465 -0.1515,0.02164 -0.14769,0.76771m61.10468,0.1706c0,0.65312 0.06875,0.92049 0.15405,0.59329c0.08657,-0.32593 0.08657,-0.86065 0,-1.18785c-0.0853,-0.3272 -0.15405,-0.05984 -0.15405,0.59456m-175.52494,0.33866c0,0.6544 0.07002,0.92176 0.15532,0.59456c0.0853,-0.3272 0.0853,-0.86192 0,-1.18785c-0.0853,-0.3272 -0.15532,-0.05984 -0.15532,0.59329m162.09197,-0.11331c-0.12477,0.12477 -0.22407,0.39213 -0.22153,0.59456c0.00382,0.23171 0.10058,0.21771 0.26354,-0.03819c0.14259,-0.22407 1.24768,-0.46088 2.4559,-0.52836l2.19872,-0.1235l-2.23565,-0.06493c-1.22859,-0.03565 -2.33622,0.03692 -2.46099,0.16042m-163.10412,1.98102c0.00382,0.74734 0.07384,1.01215 0.15532,0.59074c0.08021,-0.42268 0.07766,-1.0338 -0.00764,-1.35845c-0.0853,-0.32465 -0.1515,0.02037 -0.14769,0.76771m122.04386,-0.60347c0.60347,0.07512 1.67291,0.07639 2.37697,0.00255c0.70405,-0.07384 0.21134,-0.13495 -1.09618,-0.13623c-1.30625,-0.00127 -1.88298,0.05856 -1.28079,0.13368m-162.43317,3.65902c0.00255,0.93322 0.06875,1.27569 0.14641,0.7588c0.07766,-0.51562 0.07639,-1.27951 -0.00509,-1.6971c-0.08021,-0.41759 -0.14387,0.00509 -0.14132,0.93831m157.18017,0.33993c0.00382,0.74606 0.07257,1.01215 0.15405,0.58947c0.08148,-0.42141 0.07766,-1.03252 -0.00637,-1.35717c-0.0853,-0.32465 -0.1515,0.02037 -0.14769,0.76771m-165.66314,1.52778c0,1.02616 0.06366,1.44629 0.14132,0.93322c0.07766,-0.51308 0.07766,-1.35336 0,-1.86771c-0.07766,-0.51308 -0.14132,-0.09294 -0.14132,0.93449m164.65099,0.67859c0,0.84028 0.0662,1.18403 0.14769,0.76389c0.08021,-0.42014 0.08021,-1.10764 0,-1.52778c-0.08148,-0.42014 -0.14769,-0.07639 -0.14769,0.76389m-114.42026,0.16933c0.00382,0.74734 0.07257,1.01342 0.15405,0.59074c0.08148,-0.42268 0.07894,-1.0338 -0.00637,-1.35845c-0.0853,-0.32465 -0.1515,0.02164 -0.14769,0.76771m-126.6361,0.40359c0.32593,0.08657 0.86065,0.08657 1.18785,0c0.3272,-0.0853 0.05984,-0.15405 -0.59456,-0.15405c-0.65312,0 -0.92049,0.06875 -0.59329,0.15405m125.61758,1.63345c0.00382,0.74734 0.07257,1.01342 0.15405,0.59074c0.08148,-0.42268 0.07894,-1.0338 -0.00637,-1.35845c-0.0853,-0.32465 -0.1515,0.02164 -0.14769,0.76771m158.88236,-0.16933c0,0.65312 0.06875,0.92049 0.15405,0.59456c0.08657,-0.3272 0.08657,-0.86192 0,-1.18912c-0.0853,-0.32593 -0.15405,-0.05856 -0.15405,0.59456m17.3148,1.01852c0,0.65312 0.06875,0.92049 0.15405,0.59456c0.08657,-0.3272 0.08657,-0.86192 0,-1.18912c-0.0853,-0.32593 -0.15405,-0.05856 -0.15405,0.59456m-87.58741,-0.09676c0.51435,0.07766 1.35463,0.07766 1.86771,0c0.51308,-0.07766 0.09294,-0.14132 -0.93322,-0.14132c-1.02743,0 -1.44757,0.06366 -0.93449,0.14132m-137.83088,1.45521c0,0.84028 0.0662,1.18403 0.14641,0.76389c0.08148,-0.42014 0.08148,-1.10764 0,-1.52778c-0.08021,-0.42014 -0.14641,-0.07639 -0.14641,0.76389m85.54783,-0.4456c0.32593,0.0853 0.86065,0.0853 1.18785,0c0.3272,-0.0853 0.05984,-0.15532 -0.59456,-0.15532c-0.65312,0 -0.92049,0.07002 -0.59329,0.15532m80.46288,1.97338c0.00382,0.74606 0.07384,1.01215 0.15532,0.58947c0.08021,-0.42141 0.07766,-1.03252 -0.00764,-1.35717c-0.0853,-0.32465 -0.1515,0.02037 -0.14769,0.76771m-1.01852,2.03703c0.00382,0.74606 0.07384,1.01215 0.15532,0.58947c0.08021,-0.42141 0.07766,-1.03252 -0.00764,-1.35717c-0.0853,-0.32465 -0.1515,0.02037 -0.14769,0.76771m-219.32119,-0.27627c0.3272,0.08657 0.86192,0.08657 1.18785,0c0.3272,-0.0853 0.05984,-0.15405 -0.59329,-0.15405c-0.6544,0 -0.92176,0.06875 -0.59456,0.15405m3.05555,0c0.3272,0.08657 0.86192,0.08657 1.18785,0c0.3272,-0.0853 0.05984,-0.15405 -0.59329,-0.15405c-0.6544,0 -0.92176,0.06875 -0.59456,0.15405m-38.44904,1.63345c-0.825,0.84028 -1.42338,1.52778 -1.32917,1.52778c0.09294,0 0.8441,-0.6875 1.6691,-1.52778c0.82373,-0.84028 1.42211,-1.52778 1.32917,-1.52778c-0.09294,0 -0.8441,0.6875 -1.6691,1.52778m139.28354,0.33993c0.00382,0.74734 0.07257,1.01215 0.15405,0.59074c0.08148,-0.42268 0.07766,-1.0338 -0.00637,-1.35845c-0.0853,-0.32465 -0.1515,0.02037 -0.14769,0.76771m73.39564,0.59456l-0.99687,1.10255l1.10255,-0.99687c0.60729,-0.54873 1.10382,-1.04525 1.10382,-1.10382c0,-0.26227 -0.28009,-0.03056 -1.20949,0.99815m43.34174,3.47951c0.01019,1.1853 0.05729,1.26551 0.36539,0.62893c0.24572,-0.50926 0.2419,-0.91921 -0.01273,-1.35845c-0.30428,-0.52326 -0.36285,-0.39977 -0.35266,0.72951m-0.95995,2.20636c0,0.84028 0.0662,1.18403 0.14769,0.76389c0.08021,-0.42014 0.08021,-1.10764 0,-1.52778c-0.08148,-0.42014 -0.14769,-0.07639 -0.14769,0.76389m-57.56152,3.97986c0.60347,0.07512 1.67291,0.07639 2.37697,0.00255c0.70405,-0.07257 0.21134,-0.13495 -1.09618,-0.13623c-1.30625,-0.00127 -1.88298,0.05856 -1.28079,0.13368m-75.95594,7.33078c0,0.05856 0.49653,0.55509 1.10255,1.10255l1.10382,0.99815l-0.99687,-1.10382c-0.9294,-1.0287 -1.20949,-1.25914 -1.20949,-0.99687m168.55701,6.76805l-3.04791,3.14085l3.13958,-3.04791c2.91678,-2.83148 3.2949,-3.23252 3.04919,-3.23252c-0.05093,0 -1.46412,1.41319 -3.14085,3.13958m-174.32945,6.47268c0,0.05856 0.49653,0.55509 1.10382,1.10255l1.10382,0.99815l-0.99815,-1.10382c-0.9294,-1.0287 -1.20949,-1.25914 -1.20949,-0.99687m104.30765,1.59143c0,0.65312 0.07002,0.92049 0.15532,0.59329c0.0853,-0.32593 0.0853,-0.86065 0,-1.18785c-0.0853,-0.3272 -0.15532,-0.05984 -0.15532,0.59456m-42.43144,1.86643c0.00382,0.74734 0.07257,1.01342 0.15405,0.59074c0.08148,-0.42268 0.07894,-1.0338 -0.00637,-1.35845c-0.0853,-0.32465 -0.1515,0.02164 -0.14769,0.76771m-56.10376,2.7169c0.63275,0.65312 1.22731,1.18785 1.32153,1.18785c0.09294,0 -0.34884,-0.53472 -0.98287,-1.18785c-0.63275,-0.6544 -1.22731,-1.18912 -1.32153,-1.18912c-0.09294,0 0.34884,0.53472 0.98287,1.18912m98.5352,-0.1706c0,0.6544 0.07002,0.92176 0.15532,0.59456c0.0853,-0.3272 0.0853,-0.86192 0,-1.18785c-0.0853,-0.3272 -0.15532,-0.05984 -0.15532,0.59329m-92.5947,5.77245c0.72951,0.74606 1.40301,1.35717 1.49595,1.35717c0.09421,0 -0.4265,-0.61111 -1.15602,-1.35717c-0.72951,-0.74734 -1.40301,-1.35845 -1.49595,-1.35845c-0.09294,0 0.4265,0.61111 1.15602,1.35845m89.86762,2.89259c-0.40613,0.83646 -0.66713,1.52014 -0.57928,1.52014c0.22917,0 1.60162,-2.75764 1.44757,-2.91041c-0.0713,-0.0713 -0.46088,0.55382 -0.86829,1.39028m-85.96288,0.67222c0.63403,0.65312 1.22859,1.18785 1.32153,1.18785c0.09294,0 -0.34884,-0.53472 -0.9816,-1.18785c-0.63403,-0.6544 -1.22859,-1.18912 -1.32153,-1.18912c-0.09421,0 0.34757,0.53472 0.9816,1.18912m53.98143,6.44976c1.0147,1.02743 1.91991,1.86771 2.01412,1.86771c0.09294,0 -0.66076,-0.84028 -1.67419,-1.86771c-1.0147,-1.02616 -1.92118,-1.86643 -2.01412,-1.86643c-0.09294,0 0.65949,0.84028 1.67419,1.86643m27.16004,-0.33866c-0.82373,0.84028 -1.42211,1.52778 -1.32917,1.52778c0.09294,0 0.8441,-0.6875 1.6691,-1.52778c0.825,-0.84028 1.42338,-1.52778 1.32917,-1.52778c-0.09294,0 -0.8441,0.6875 -1.6691,1.52778m-72.31474,1.63345c0,0.05856 0.49653,0.55509 1.10382,1.10382l1.10382,0.99687l-0.99815,-1.10382c-0.9294,-1.0287 -1.20949,-1.25914 -1.20949,-0.99687m4.414,4.13773c0.63403,0.65312 1.22859,1.18785 1.32153,1.18785c0.09294,0 -0.34884,-0.53472 -0.9816,-1.18785c-0.63403,-0.65312 -1.22859,-1.18785 -1.32153,-1.18785c-0.09421,0 0.34757,0.53472 0.9816,1.18785m7.29895,6.96029c2.23565,2.24074 4.14027,4.07407 4.23321,4.07407c0.09421,0 -1.65891,-1.83333 -3.89328,-4.07407c-2.23437,-2.24074 -4.14027,-4.07407 -4.23321,-4.07407c-0.09294,0 1.65891,1.83333 3.89328,4.07407m124.07198,2.97025l-1.17002,1.27315l1.27315,-1.17002c0.70023,-0.64294 1.27315,-1.21586 1.27315,-1.27315c0,-0.25972 -0.28773,-0.01528 -1.37627,1.17002m-85.70697,1.78241c0.72951,0.74734 1.40173,1.35845 1.49595,1.35845c0.09294,0 -0.42778,-0.61111 -1.15729,-1.35845c-0.72951,-0.74734 -1.40173,-1.35845 -1.49595,-1.35845c-0.09294,0 0.42778,0.61111 1.15729,1.35845m76.03615,7.89351l-1.68437,1.78241l1.78241,-1.68437c0.98032,-0.92685 1.78241,-1.72893 1.78241,-1.78241c0,-0.25336 -0.31447,0.02801 -1.88044,1.68437m-50.40388,1.10382c1.20312,1.21331 2.26366,2.20636 2.35659,2.20636c0.09421,0 -0.81354,-0.99305 -2.01666,-2.20636c-1.20312,-1.21458 -2.26366,-2.20764 -2.35787,-2.20764c-0.09294,0 0.81481,0.99305 2.01794,2.20764m-15.95635,0.67859c1.01342,1.02743 1.91991,1.86771 2.01285,1.86771c0.09421,0 -0.65949,-0.84028 -1.67419,-1.86771c-1.01342,-1.02743 -1.91991,-1.86771 -2.01285,-1.86771c-0.09421,0 0.65949,0.84028 1.67419,1.86771m-235.8721,0.74352c0.3272,0.0853 0.86192,0.0853 1.18785,0c0.3272,-0.0853 0.05984,-0.15532 -0.59329,-0.15532c-0.6544,0 -0.92176,0.07002 -0.59456,0.15532m297.13593,2.22673l-1.3419,1.44375l1.44375,-1.3419c1.3419,-1.24896 1.59907,-1.54433 1.3419,-1.54433c-0.05602,0 -0.70532,0.6493 -1.44375,1.44248m-136.20507,-0.18079c0.51562,0.07894 1.27951,0.07639 1.6971,-0.00382c0.41759,-0.08148 -0.00509,-0.14514 -0.93831,-0.14259c-0.93322,0.00255 -1.27569,0.06875 -0.7588,0.14641m129.59489,6.46249l-3.21852,3.31018l3.31018,-3.21852c1.8206,-1.77095 3.31018,-3.26053 3.31018,-3.31018c0,-0.24699 -0.4125,0.14387 -3.40185,3.21852m10.87013,-1.10382c-0.82373,0.84028 -1.42211,1.52778 -1.32917,1.52778c0.09294,0 0.8441,-0.6875 1.6691,-1.52778c0.825,-0.84028 1.42338,-1.52778 1.32917,-1.52778c-0.09294,0 -0.8441,0.6875 -1.6691,1.52778m34.62959,0.33993c0.63403,0.65312 1.22859,1.18785 1.32153,1.18785c0.09421,0 -0.34757,-0.53472 -0.9816,-1.18785c-0.63403,-0.6544 -1.22859,-1.18912 -1.32153,-1.18912c-0.09294,0 0.34884,0.53472 0.9816,1.18912m-238.75323,-0.60856c0.42268,0.08021 1.0338,0.07766 1.35845,-0.00764c0.32465,-0.0853 -0.02164,-0.1515 -0.76771,-0.14769c-0.74734,0.00382 -1.01342,0.07384 -0.59074,0.15532m2.71562,0c0.42268,0.08021 1.0338,0.07766 1.35845,-0.00764c0.32465,-0.0853 -0.02037,-0.1515 -0.76771,-0.14769c-0.74734,0.00382 -1.01215,0.07384 -0.59074,0.15532m85.29702,5.36122c0.63403,0.65312 1.22859,1.18785 1.32153,1.18785c0.09421,0 -0.34757,-0.53472 -0.9816,-1.18785c-0.63403,-0.65312 -1.22859,-1.18785 -1.32153,-1.18785c-0.09294,0 0.34884,0.53472 0.9816,1.18785m-110.52952,0.93322l-0.99815,1.10382l1.10382,-0.99687c1.0287,-0.9294 1.25914,-1.20949 0.99687,-1.20949c-0.05856,0 -0.55509,0.49653 -1.10255,1.10255m50.76291,1.01852c0.83264,0.88738 1.55833,1.61308 1.61308,1.61308c0.25463,0 -0.01528,-0.30428 -1.51377,-1.71111l-1.61308,-1.51377l1.51377,1.6118m11.20624,2.88622l-1.85625,1.95173l1.95301,-1.85497c1.81296,-1.72384 2.10706,-2.04849 1.85497,-2.04849c-0.0522,0 -0.93067,0.87847 -1.95173,1.95173m176.67332,14.34455c0,1.58634 0.05856,2.23565 0.12986,1.44248c0.0713,-0.79317 0.0713,-2.09178 0,-2.88622c-0.0713,-0.79317 -0.12986,-0.14387 -0.12986,1.44375m-120.52881,0.67859c0,1.40046 0.05984,1.97338 0.13241,1.27315c0.07384,-0.70023 0.07384,-1.84606 0,-2.54629c-0.07257,-0.70023 -0.13241,-0.12731 -0.13241,1.27315m19.31618,-0.67859c0,0.65312 0.07002,0.92049 0.15532,0.59329c0.0853,-0.32593 0.0853,-0.86065 0,-1.18785c-0.0853,-0.3272 -0.15532,-0.05984 -0.15532,0.59456m-143.58168,5.43124c0,1.21458 0.06238,1.71111 0.1375,1.10382c0.07512,-0.60729 0.07512,-1.60035 0,-2.20636c-0.07512,-0.60729 -0.1375,-0.11076 -0.1375,1.10255m268.25459,-0.59329l-1.3419,1.44248l1.44375,-1.3419c1.3419,-1.24768 1.59907,-1.54433 1.3419,-1.54433c-0.05602,0 -0.70532,0.6493 -1.44375,1.44375m-291.36985,1.6118c0,0.6544 0.06875,0.92176 0.15405,0.59456c0.08657,-0.3272 0.08657,-0.86192 0,-1.18785c-0.0853,-0.3272 -0.15405,-0.05984 -0.15405,0.59329m224.71297,3.20833c-0.02419,1.0147 0.08275,1.55324 0.26863,1.35845c0.17187,-0.18079 0.1897,-0.91794 0.03819,-1.68055l-0.26863,-1.35845l-0.03819,1.68055m-58.01603,1.5456c0,0.65312 0.07002,0.92049 0.15532,0.59329c0.0853,-0.32593 0.0853,-0.86065 0,-1.18785c-0.0853,-0.3272 -0.15532,-0.05984 -0.15532,0.59456m-32.24754,-0.10567c0.3272,0.0853 0.86192,0.0853 1.18912,0c0.32593,-0.0853 0.05856,-0.15532 -0.59456,-0.15532c-0.65312,0 -0.92049,0.07002 -0.59456,0.15532m4.58715,0.00637c0.42268,0.08021 1.0338,0.07766 1.35845,-0.00764c0.32465,-0.0853 -0.02037,-0.1515 -0.76771,-0.14769c-0.74734,0.00382 -1.01215,0.07384 -0.59074,0.15532m-12.56469,2.32986c-1.31643,0.71424 -1.16748,0.96123 0.16933,0.28137c1.27951,-0.65185 1.50613,-0.81991 1.07454,-0.80081c-0.1706,0.00764 -0.73079,0.24062 -1.24386,0.51944m27.23134,4.30451c0.83136,0.88738 1.55706,1.61308 1.6118,1.61308c0.25463,0 -0.014,-0.30556 -1.51377,-1.71238l-1.6118,-1.51377l1.51377,1.61308m-35.37948,0.10949c-1.26933,0.68877 -1.19294,0.97523 0.08403,0.31447c0.56018,-0.289 1.01852,-0.59838 1.01852,-0.6875c0,-0.21771 -0.03565,-0.20625 -1.10255,0.37303m32.84719,2.18217c0.72951,0.74734 1.40173,1.35845 1.49595,1.35845c0.09294,0 -0.42778,-0.61111 -1.15729,-1.35845c-0.72951,-0.74734 -1.40173,-1.35845 -1.49595,-1.35845c-0.09294,0 0.42778,0.61111 1.15729,1.35845m148.36362,0c0.72951,0.74734 1.40301,1.35845 1.49595,1.35845c0.09294,0 -0.4265,-0.61111 -1.15602,-1.35845c-0.72951,-0.74734 -1.40301,-1.35845 -1.49595,-1.35845c-0.09421,0 0.4265,0.61111 1.15602,1.35845m-179.17378,0.53345c-1.26933,0.68877 -1.19294,0.97523 0.08403,0.31574c0.56018,-0.29028 1.01852,-0.59965 1.01852,-0.68877c0,-0.21771 -0.03565,-0.20498 -1.10255,0.37303m97.94064,1.16366c0,0.6544 0.07002,0.92176 0.15532,0.59456c0.0853,-0.3272 0.0853,-0.86192 0,-1.18785c-0.0853,-0.3272 -0.15532,-0.05984 -0.15532,0.59329m-108.12582,0.53472c-1.26933,0.6875 -1.19294,0.97523 0.08403,0.31447c0.56018,-0.29028 1.01852,-0.59965 1.01852,-0.6875c0,-0.21898 -0.03565,-0.20625 -1.10255,0.37303m44.79567,3.02627c0.31065,0.65058 0.62512,1.12419 0.69896,1.05035c0.15532,-0.15532 -0.87593,-2.23437 -1.10764,-2.23437c-0.0853,0 0.09803,0.53218 0.40868,1.18403m-42.75864,-0.31065c-1.26933,0.68877 -1.19294,0.97523 0.08403,0.31447c0.56018,-0.289 1.01852,-0.59838 1.01852,-0.6875c0,-0.21771 -0.03565,-0.20625 -1.10255,0.37303m-13.92059,3.73414c-1.26933,0.68877 -1.19167,0.97523 0.0853,0.31574c0.56018,-0.29028 1.01852,-0.59965 1.01852,-0.68877c0,-0.21771 -0.03692,-0.20498 -1.10382,0.37303m120.00937,2.18217c0,0.6544 0.07002,0.92176 0.15532,0.59456c0.0853,-0.3272 0.0853,-0.86192 0,-1.18785c-0.0853,-0.3272 -0.15532,-0.05984 -0.15532,0.59329m-117.97234,0.53472c-1.26933,0.6875 -1.19167,0.97523 0.0853,0.31447c0.56018,-0.29028 1.01852,-0.59965 1.01852,-0.6875c0,-0.21898 -0.03692,-0.20625 -1.10382,0.37303m56.88038,2.69143c0.00255,0.93322 0.06748,1.27442 0.14641,0.7588c0.07766,-0.51562 0.07512,-1.27951 -0.00509,-1.6971c-0.08021,-0.41759 -0.14387,0.00382 -0.14132,0.93831m66.80202,3.25289c-0.25081,1.71238 -0.28518,2.89514 -0.09039,3.08993c0.19479,0.19479 0.40741,-0.80972 0.55509,-2.62523c0.30683,-3.78125 0.05602,-4.03206 -0.4647,-0.4647m-131.83054,-1.5316c-1.26933,0.68877 -1.19167,0.97523 0.0853,0.31574c0.56018,-0.29028 1.01852,-0.59965 1.01852,-0.68877c0,-0.21771 -0.03692,-0.20498 -1.10382,0.37303m-80.26554,2.69143c0.00127,1.30752 0.06238,1.80023 0.13623,1.09618c0.07257,-0.70405 0.0713,-1.77349 -0.00382,-2.37697c-0.07384,-0.6022 -0.13495,-0.02546 -0.13241,1.28079m-3.40185,0c0.00127,1.12037 0.06493,1.53796 0.14132,0.92812c0.07512,-0.60984 0.07384,-1.5265 -0.00382,-2.03703c-0.07766,-0.51053 -0.14005,-0.01146 -0.1375,1.10891m79.93325,-0.6544c-1.26933,0.68877 -1.19167,0.97523 0.0853,0.31574c0.56018,-0.29028 1.01852,-0.59965 1.01852,-0.68877c0,-0.21771 -0.03692,-0.20498 -1.10382,0.37303m-10.18517,1.69838c-1.26933,0.6875 -1.19167,0.97523 0.0853,0.31447c0.56018,-0.29028 1.01852,-0.59965 1.01852,-0.6875c0,-0.21898 -0.03692,-0.20625 -1.10382,0.37303m203.2579,0.5691l-0.99687,1.10382l1.10255,-0.99815c1.0287,-0.9294 1.26042,-1.20949 0.99815,-1.20949c-0.05856,0 -0.55509,0.49653 -1.10382,1.10382m-58.14589,1.44248c0.00509,0.37431 0.13241,1.0618 0.28137,1.52778l0.27245,0.84919l0.00891,-0.84919c0.00637,-0.46597 -0.12095,-1.15347 -0.28137,-1.52778l-0.29155,-0.67859l0.01019,0.67859m-143.07497,0.70405c-1.26933,0.68877 -1.19167,0.97523 0.0853,0.31447c0.56018,-0.289 1.01852,-0.59838 1.01852,-0.6875c0,-0.21771 -0.03692,-0.20625 -1.10382,0.37303m-10.18517,1.6971c-1.26933,0.68877 -1.19167,0.97523 0.0853,0.31574c0.56018,-0.29028 1.01852,-0.59965 1.01852,-0.68877c0,-0.21771 -0.03692,-0.20498 -1.10382,0.37303m153.28052,1.84352c0,0.65312 0.07002,0.92049 0.15532,0.59329c0.0853,-0.32593 0.0853,-0.86065 0,-1.18785c-0.0853,-0.3272 -0.15532,-0.05984 -0.15532,0.59456m-157.01466,0.19352c-1.26933,0.68877 -1.19294,0.97523 0.08403,0.31574c0.56018,-0.29028 1.01852,-0.59965 1.01852,-0.68877c0,-0.21771 -0.03565,-0.20498 -1.10255,0.37303m95.56495,0.825c0,0.65312 0.06875,0.92049 0.15405,0.59329c0.08657,-0.32593 0.08657,-0.86065 0,-1.18785c-0.0853,-0.3272 -0.15405,-0.05984 -0.15405,0.59456m-89.79378,-0.14514c-1.26933,0.6875 -1.19167,0.97523 0.0853,0.31447c0.56018,-0.29028 1.01852,-0.59965 1.01852,-0.6875c0,-0.21898 -0.03692,-0.20625 -1.10382,0.37303m-3.73414,2.03703c-1.26933,0.6875 -1.19294,0.97523 0.08403,0.31447c0.56018,-0.29028 1.01852,-0.59965 1.01852,-0.6875c0,-0.21898 -0.03565,-0.20625 -1.10255,0.37303m-57.63154,0.275c0,0.36412 1.00961,2.24583 1.20567,2.24583c0.09294,0 -0.08275,-0.49653 -0.39086,-1.10255c-0.63021,-1.24005 -0.81481,-1.49849 -0.81481,-1.14329m47.44636,1.42211c-1.26933,0.68877 -1.19294,0.97523 0.08403,0.31447c0.56018,-0.289 1.01852,-0.59838 1.01852,-0.6875c0,-0.21771 -0.03565,-0.20625 -1.10255,0.37303m91.56854,1.24896l-1.68437,1.78241l1.78241,-1.68565c1.65636,-1.5647 1.93773,-1.87916 1.68437,-1.87916c-0.05347,0 -0.85555,0.80208 -1.78241,1.78241m11.84154,2.12106c0.00127,1.49467 0.06111,2.0625 0.13368,1.26423c0.0713,-0.79826 0.07002,-2.02048 -0.00255,-2.71562c-0.07257,-0.69514 -0.13241,-0.04201 -0.13113,1.45139m-9.29397,0.0853l-1.85625,1.95173l1.95301,-1.85497c1.81296,-1.72384 2.10706,-2.04849 1.85497,-2.04849c-0.0522,0 -0.93067,0.87847 -1.95173,1.95173m-134.26352,0.0853c0.72951,0.74606 1.40301,1.35717 1.49595,1.35717c0.09421,0 -0.4265,-0.61111 -1.15602,-1.35717c-0.72951,-0.74734 -1.40301,-1.35845 -1.49595,-1.35845c-0.09294,0 0.4265,0.61111 1.15602,1.35845m42.18445,-0.825c-1.26933,0.68877 -1.19294,0.97523 0.08403,0.31574c0.56018,-0.29028 1.01852,-0.59965 1.01852,-0.68877c0,-0.21771 -0.03565,-0.20498 -1.10255,0.37303m60.24531,1.91099c-0.55255,0.55127 -0.51308,0.83773 0.14896,1.09236c0.43796,0.16678 0.47616,0.11458 0.17824,-0.24444c-0.28009,-0.33738 -0.275,-0.56018 0.02037,-0.85555c0.21898,-0.22025 0.32211,-0.39977 0.22917,-0.39977c-0.09294,0 -0.35266,0.18333 -0.57674,0.40741m-104.80545,1.2897c0.72951,0.74734 1.40173,1.35845 1.49595,1.35845c0.09294,0 -0.42778,-0.61111 -1.15729,-1.35845c-0.72951,-0.74606 -1.40173,-1.35717 -1.49595,-1.35717c-0.09294,0 0.42778,0.61111 1.15729,1.35717m30.63955,0.53472c-1.26933,0.6875 -1.19167,0.97523 0.0853,0.31447c0.56018,-0.29028 1.01852,-0.59965 1.01852,-0.6875c0,-0.21898 -0.03692,-0.20625 -1.10382,0.37303m66.78165,1.24768l-1.3419,1.44375l1.44375,-1.3419c1.3419,-1.24896 1.59907,-1.54433 1.3419,-1.54433c-0.05602,0 -0.70532,0.6493 -1.44375,1.44248m-60.24531,1.78241c1.01342,1.02743 1.91991,1.86771 2.01285,1.86771c0.09421,0 -0.65949,-0.84028 -1.67419,-1.86771c-1.01342,-1.02616 -1.91991,-1.86643 -2.01285,-1.86643c-0.09421,0 0.65949,0.84028 1.67419,1.86643m78.68048,-0.94213c0.60602,0.07512 1.59907,0.07512 2.20636,0c0.60729,-0.07512 0.11076,-0.1375 -1.10382,-0.1375c-1.21331,0 -1.70984,0.06238 -1.10255,0.1375m-98.7962,1.70092c0.79317,0.0713 2.09178,0.0713 2.88495,0c0.79444,-0.07257 0.14514,-0.12986 -1.44248,-0.12986c-1.58761,0 -2.23692,0.05729 -1.44248,0.12986m128.8692,2.63669c0.00127,1.30752 0.06238,1.80023 0.13623,1.09618c0.07257,-0.70532 0.0713,-1.77477 -0.00382,-2.37697c-0.07384,-0.6022 -0.13495,-0.02674 -0.13241,1.28079m-29.55992,-0.94467c0.5169,0.07766 1.28079,0.07639 1.69838,-0.00509c0.41759,-0.08021 -0.00509,-0.14387 -0.93831,-0.14132c-0.93449,0.00255 -1.27569,0.06875 -0.76007,0.14641m-20.80831,2.72708l-2.19745,2.29166l2.29166,-2.19745c1.26042,-1.20822 2.29166,-2.23947 2.29166,-2.29166c0,-0.24954 -0.3463,0.06875 -2.38588,2.19745m-78.50096,-1.02488c0.79317,0.0713 2.09178,0.0713 2.88495,0c0.79444,-0.0713 0.14514,-0.12986 -1.44248,-0.12986c-1.58761,0 -2.23692,0.05856 -1.44248,0.12986m20.62498,1.11018c0.72951,0.74606 1.40173,1.35717 1.49595,1.35717c0.09294,0 -0.42778,-0.61111 -1.15729,-1.35717c-0.72951,-0.74734 -1.40173,-1.35845 -1.49595,-1.35845c-0.09294,0 0.42778,0.61111 1.15729,1.35845m4.58333,-0.57292c0,0.05856 0.49653,0.55509 1.10255,1.10255l1.10382,0.99815l-0.99687,-1.10382c-0.9294,-1.0287 -1.20949,-1.25914 -1.20949,-0.99687m45.98606,2.69398l-1.3419,1.44375l1.44375,-1.3419c1.3419,-1.24896 1.59907,-1.54433 1.3419,-1.54433c-0.05602,0 -0.70532,0.6493 -1.44375,1.44248m112.27882,-0.57928c-0.5691,1.24896 -0.46088,1.51504 0.15405,0.3794c0.28773,-0.52963 0.45961,-1.02616 0.38194,-1.10382c-0.07766,-0.07766 -0.31956,0.24826 -0.53599,0.72442m72.40768,0.91921l-0.99687,1.10382l1.10255,-0.99815c1.0287,-0.9294 1.26042,-1.20949 0.99815,-1.20949c-0.05856,0 -0.55509,0.49653 -1.10382,1.10382m-52.34034,0.59456c0,0.84028 0.0662,1.18403 0.14769,0.76389c0.08021,-0.42014 0.08021,-1.10764 0,-1.52778c-0.08148,-0.42014 -0.14769,-0.07639 -0.14769,0.76389m-74.36451,1.35717c0,0.6544 0.06875,0.92176 0.15405,0.59456c0.08657,-0.3272 0.08657,-0.86192 0,-1.18785c-0.0853,-0.3272 -0.15405,-0.05984 -0.15405,0.59329m52.03479,1.69838c-0.29028,0.56018 -0.45069,1.01852 -0.35648,1.01852c0.09294,0 0.40613,-0.45833 0.69641,-1.01852c0.289,-0.56018 0.44942,-1.01852 0.35648,-1.01852c-0.09294,0 -0.40613,0.45833 -0.69641,1.01852m89.53915,0.33866c0,0.6544 0.06875,0.92176 0.15405,0.59456c0.08657,-0.3272 0.08657,-0.86192 0,-1.18785c-0.0853,-0.3272 -0.15405,-0.05984 -0.15405,0.59329m-18.60322,0.42523l-0.99815,1.10255l1.10382,-0.99687c1.0287,-0.9294 1.25914,-1.20949 0.99687,-1.20949c-0.05856,0 -0.55509,0.49653 -1.10255,1.10382m-320.99979,1.52778l-1.17002,1.27315l1.27315,-1.17002c1.18403,-1.08981 1.42847,-1.37627 1.17002,-1.37627c-0.05729,0 -0.63021,0.57292 -1.27315,1.27315m230.01181,6.95902l-0.99687,1.10382l1.10255,-0.99687c0.60729,-0.54873 1.10382,-1.04525 1.10382,-1.10382c0,-0.26227 -0.28009,-0.03183 -1.20949,0.99687m8.48807,7.12962l-0.99815,1.10382l1.10382,-0.99687c0.60729,-0.54873 1.10382,-1.04525 1.10382,-1.10382c0,-0.26227 -0.28009,-0.03183 -1.20949,0.99687m-16.63621,1.01852l-0.99687,1.10382l1.10255,-0.99687c0.60729,-0.54873 1.10382,-1.04525 1.10382,-1.10382c0,-0.26227 -0.28009,-0.03183 -1.20949,0.99687m12.57487,3.39548l-2.70798,2.80092l2.80092,-2.70798c2.60104,-2.51574 2.95625,-2.89386 2.70798,-2.89386c-0.05093,0 -1.31134,1.26042 -2.80092,2.80092m-5.26446,5.26192l-2.19618,2.29166l2.29166,-2.19618c1.26042,-1.20822 2.29166,-2.23947 2.29166,-2.29166c0,-0.25081 -0.3463,0.06748 -2.38715,2.19618m-4.08171,3.73541l-1.17002,1.27315l1.27315,-1.17002c1.18403,-1.08981 1.42847,-1.37627 1.17002,-1.37627c-0.05729,0 -0.63021,0.57292 -1.27315,1.27315m97.89226,0.59329c0.00255,0.93449 0.06875,1.27569 0.14641,0.76007c0.07894,-0.5169 0.07639,-1.28079 -0.00382,-1.69838c-0.08148,-0.41759 -0.14514,0.00509 -0.14259,0.93831m-0.35775,8.31874c0,0.65312 0.07002,0.92049 0.15532,0.59329c0.0853,-0.32593 0.0853,-0.86065 0,-1.18785c-0.0853,-0.3272 -0.15532,-0.05984 -0.15532,0.59456m-300.97319,0.24444c0.6022,0.07512 1.67164,0.07639 2.37697,0.00255c0.70405,-0.07257 0.21134,-0.13495 -1.09618,-0.13623c-1.30752,-0.00127 -1.88298,0.05856 -1.28079,0.13368m188.67527,2.89514l-1.68437,1.78241l1.78241,-1.68437c0.98032,-0.92685 1.78241,-1.72893 1.78241,-1.78241c0,-0.25336 -0.31447,0.02801 -1.88044,1.68437m-162.10088,10.94906c0.63275,0.6544 1.22731,1.18912 1.32153,1.18912c0.09294,0 -0.34884,-0.53472 -0.98287,-1.18912c-0.63275,-0.65312 -1.22731,-1.18785 -1.32153,-1.18785c-0.09294,0 0.34884,0.53472 0.98287,1.18785m296.70942,1.10382l-1.17002,1.27315l1.27315,-1.17002c1.1853,-1.08854 1.42974,-1.37627 1.17002,-1.37627c-0.05729,0 -0.63021,0.57292 -1.27315,1.27315m-141.13088,6.0258c0.00382,0.74734 0.07384,1.01342 0.15532,0.59074c0.08021,-0.42268 0.07766,-1.0338 -0.00764,-1.35845c-0.0853,-0.32465 -0.1515,0.02164 -0.14769,0.76771m122.91724,7.97881c0,1.02743 0.06366,1.44757 0.14132,0.93322c0.07766,-0.51308 0.07766,-1.35336 0,-1.86643c-0.07766,-0.51435 -0.14132,-0.09421 -0.14132,0.93322m-122.91724,0.84919c0.00382,0.74606 0.07384,1.01215 0.15532,0.58947c0.08021,-0.42141 0.07766,-1.03252 -0.00764,-1.35717c-0.0853,-0.32465 -0.1515,0.02037 -0.14769,0.76771m29.523,3.40694c-0.78299,1.58125 -1.35081,2.87349 -1.26042,2.87349c0.22535,0 2.95879,-5.47326 2.80729,-5.62476c-0.0662,-0.0662 -0.76261,1.1713 -1.54687,2.75127m-38.31917,-0.01273c0.00127,1.49467 0.06111,2.0625 0.13241,1.26423c0.07257,-0.79826 0.0713,-2.02048 -0.00127,-2.71562c-0.07384,-0.69514 -0.13241,-0.04201 -0.13113,1.45139m-35.8429,-0.94213c0.60984,0.07639 1.5265,0.07384 2.03703,-0.00255c0.50926,-0.07766 0.01019,-0.14005 -1.11018,-0.1375c-1.12037,0.00127 -1.53796,0.06493 -0.92685,0.14005m8.14814,0c0.60984,0.07639 1.5265,0.07384 2.03703,-0.00255c0.50926,-0.07766 0.01019,-0.14005 -1.11018,-0.1375c-1.12037,0.00127 -1.53796,0.06493 -0.92685,0.14005m-106.4338,4.84687c0,0.84028 0.0662,1.18403 0.14769,0.76389c0.08021,-0.42014 0.08021,-1.10764 0,-1.52778c-0.08148,-0.42014 -0.14769,-0.07639 -0.14769,0.76389m239.34397,9.74976c0.51308,0.07766 1.35336,0.07766 1.86771,0c0.51308,-0.07766 0.09294,-0.14132 -0.93449,-0.14132c-1.02616,0 -1.44629,0.06366 -0.93322,0.14132m-90.73336,2.94224c0,0.36412 1.01088,2.24583 1.20567,2.24583c0.09421,0 -0.08275,-0.49653 -0.39086,-1.10255c-0.63021,-1.24005 -0.81481,-1.49849 -0.81481,-1.14329m6.68657,9.21631c-0.52326,0.46088 -0.81736,0.839 -0.65312,0.839c0.16424,0 0.65822,-0.38194 1.09618,-0.84919c1.0147,-1.07963 0.79062,-1.07454 -0.44306,0.01019m61.65214,12.55195c0.00255,0.93322 0.06748,1.27442 0.14641,0.7588c0.07766,-0.51562 0.07512,-1.27951 -0.00509,-1.6971c-0.08021,-0.41759 -0.14387,0.00382 -0.14132,0.93831m-192.85247,1.76076c0.3272,0.08657 0.86192,0.08657 1.18912,0c0.32593,-0.0853 0.05856,-0.15405 -0.59456,-0.15405c-0.65312,0 -0.92049,0.06875 -0.59456,0.15405m192.85629,1.80405c0,1.02616 0.06366,1.44629 0.14132,0.93322c0.07766,-0.51308 0.07766,-1.35336 0,-1.86771c-0.07766,-0.51308 -0.14132,-0.09294 -0.14132,0.93449m-61.28292,62.41857c0.52199,0.33102 4.01805,0.289 4.35925,-0.0522c0.13113,-0.12986 -0.89502,-0.23426 -2.28021,-0.23171c-1.44375,0.00255 -2.33113,0.1235 -2.07905,0.28391m94.38347,0c0.52199,0.33102 4.01805,0.289 4.35925,-0.0522c0.12986,-0.12986 -0.8963,-0.23426 -2.28148,-0.23171c-1.44375,0.00255 -2.32986,0.1235 -2.07778,0.28391" id="path1"/>
   <path stroke="null" fill-rule="evenodd" fill="#247cc4" d="m279.33775,12.72613c-3.53171,0.95104 -7.46319,3.48333 -10.71862,6.90555c-2.33622,2.45463 -2.1809,2.4228 -3.40821,0.68877c-5.08877,-7.19073 -17.25369,-9.36781 -24.85565,-4.44965c-7.69745,4.978 -9.90254,13.76144 -5.94178,23.6538c0.57419,1.43229 1.04271,2.66088 1.04271,2.72963c0,0.06748 -0.91667,0.61238 -2.03703,1.20949c-11.50925,6.13529 -7.81839,23.42718 5.26064,24.64812c3.53426,0.33102 4.76666,-0.23935 29.36895,-13.58702l23.25657,-12.61561l3.39548,0c13.1236,0 15.34397,17.51595 2.96134,23.35843c-2.80602,1.32407 -7.13217,1.52523 -10.14953,0.47234c-2.76146,-0.9625 -2.76018,-0.96759 0.59074,-5.49745c1.65891,-2.24074 3.01863,-4.26504 3.02372,-4.4993c0.01146,-0.55382 -0.55,-0.54745 -0.76389,0.00891c-1.04143,2.7118 -15.05878,19.48551 -18.69489,22.36919c-2.80474,2.22419 -5.7228,1.27569 -11.01017,-3.57754c-0.79699,-0.73079 -1.56088,-1.21458 -1.6971,-1.07326c-0.79317,0.81991 6.96793,6.24479 9.64791,6.74259c2.00648,0.37303 6.22187,-3.38912 12.96064,-11.56781c1.57616,-1.91481 2.89386,-3.48078 2.92696,-3.48078c0.0331,0 0.69387,0.30556 1.46667,0.67986c8.52245,4.11736 18.9788,-1.45648 20.4391,-10.89686c1.1522,-7.44282 -4.17974,-13.9104 -11.53216,-13.98934c-3.27071,-0.03437 -3.09757,-0.11713 -27.80553,13.2751c-24.23053,13.13506 -25.24523,13.59975 -28.66617,13.15288c-12.33297,-1.61435 -15.32996,-17.85079 -4.32361,-23.42845c2.1147,-1.07199 1.92372,-1.10255 2.70671,0.43287c0.36285,0.71169 1.62708,2.57048 2.80856,4.13009c2.91169,3.8449 2.90023,3.83217 3.34965,3.68194c0.22917,-0.07639 -0.31319,-0.99178 -1.27697,-2.15798c-9.35508,-11.31446 -11.05601,-23.02359 -4.43819,-30.54279c7.14872,-8.1214 20.77648,-7.28877 27.7215,1.69456l1.48067,1.91481l2.35405,-2.55393c8.09594,-8.78599 17.80241,-9.94964 25.66028,-3.07592c3.89201,3.40439 5.60057,11.08402 3.61701,16.25427c-0.1706,0.44433 -0.10694,0.5831 0.21898,0.47361c0.99815,-0.33229 1.64109,-6.04745 1.04398,-9.27615c-1.58125,-8.54536 -11.37047,-14.52533 -19.98331,-12.20693m-121.71666,5.95578c-8.3111,0.87847 -20.44801,6.80242 -20.65808,10.08332c-0.02037,0.31956 -0.07639,3.10266 -0.12222,6.18367c-0.22789,14.9582 -4.04479,22.05854 -15.60496,29.02902c-2.6265,1.58379 -6.09073,3.69213 -7.69745,4.68518c-8.78599,5.43124 -18.98262,4.82268 -31.48492,-1.87789c-4.51585,-2.42025 -5.12442,-2.33113 -11.02291,1.6309c-7.0787,4.75266 -11.45578,9.69629 -14.74304,16.64894c-1.94664,4.11863 -1.8397,5.61712 0.6684,9.34744c5.50127,8.18251 8.19907,17.72984 7.08506,25.07335c-0.32211,2.12234 -0.94467,3.67812 -3.74178,9.33599c-1.84479,3.73541 -3.98495,8.24235 -4.75648,10.01585c-4.06388,9.35636 -14.98494,15.60623 -27.29372,15.61897c-4.4331,0.00509 -5.71388,1.11528 -8.44351,7.31932c-3.44132,7.82603 -4.42037,13.2942 -3.68831,20.60461c0.62257,6.21932 1.02998,6.84826 5.79027,8.93494c9.1552,4.01169 16.0964,10.02858 19.55554,16.95068c1.59143,3.18669 1.64491,3.42986 2.52338,11.54362c0.2228,2.05359 0.69514,5.41469 1.05162,7.46955c1.7022,9.83251 1.82315,11.11585 1.37754,14.64374c-1.05926,8.39131 -5.02893,14.83853 -13.24582,21.51364c-4.4331,3.60046 -4.703,4.50439 -3.29363,11.02036c1.92245,8.89293 4.63298,14.08992 10.62186,20.3678c3.19178,3.34328 4.04224,3.61319 8.32129,2.63669c15.06005,-3.43622 24.97278,-1.00197 32.86501,8.07302c1.54305,1.77477 4.5846,5.05949 6.75914,7.30022c10.19663,10.50346 12.14073,19.16086 7.63633,33.99939c-1.54051,5.07604 -1.33808,5.65277 3.80162,10.81538c5.3905,5.41469 10.58112,8.57974 17.22822,10.50601c6.79988,1.97083 7.09143,1.89699 11.94848,-3.03773c8.93113,-9.07372 18.75855,-13.50809 25.59662,-11.55126c5.63622,1.61308 15.32742,3.93275 19.18123,4.59097c10.30358,1.76076 17.28552,8.85474 21.88794,22.23806c2.1287,6.18877 2.27511,6.32881 7.92025,7.52684c8.18124,1.73657 14.94292,1.43611 22.27625,-0.98669c6.33009,-2.09305 6.76296,-2.60613 7.67071,-9.08645c1.24768,-8.91075 3.70231,-14.89836 7.92661,-19.3391c1.68055,-1.76713 1.66782,-1.67291 0.38449,-2.90277c-5.71261,-5.47326 -10.03622,-17.3097 -9.77649,-26.76791l0.10567,-3.8309l-3.56481,0.77789c-88.61357,19.32892 -168.80272,-57.18848 -153.9311,-146.88295c7.11053,-42.88595 36.99128,-80.62712 76.76948,-96.96414c3.75706,-1.54305 3.53044,-1.14965 2.72071,-4.7221c-3.75706,-16.57255 2.75636,-41.72102 14.74431,-56.93258l0.98796,-1.25405l-1.28588,-0.35648c-1.46921,-0.40741 -7.15763,-0.40359 -11.05091,0.00764m177.85862,2.77164c-0.11586,1.35336 -0.68368,10.02349 -1.26423,19.26653c-0.57928,9.24305 -1.07581,16.82591 -1.10255,16.8501c-0.55509,0.50799 -2.27511,-0.48634 -2.77928,-1.60544c-0.74606,-1.65382 -0.94595,-1.65127 -1.88553,0.02037l-0.75625,1.34444l-2.5743,0.09803l-2.57558,0.09803l-1.24259,11.82371c-1.18785,11.30172 -1.64109,14.19941 -1.64873,10.55566c-0.02164,-9.17302 -2.10197,-49.07599 -2.53611,-48.64058c-0.13113,0.12986 -2.89259,24.42405 -2.89259,25.43875c0,0.15023 -0.57292,0.31956 -1.27315,0.37812c-1.17257,0.09676 -1.35845,0.26481 -2.36678,2.14271l-1.09363,2.03703l-0.01019,-3.99004c-0.00509,-2.42662 -0.14259,-3.98877 -0.34884,-3.98877c-0.21134,0 -0.33993,1.92372 -0.33993,5.09259c0,5.93796 0.07002,6.01562 1.95937,2.20636l1.43102,-2.88495l1.36099,0c0.86192,0 1.35972,-0.15532 1.35972,-0.42523c0.00127,-1.21713 2.0294,-18.69362 2.18981,-18.85276c0.10312,-0.10312 0.18715,0.23426 0.18715,0.74988c0,2.75 2.09305,49.25296 2.22291,49.38282c0.42141,0.42014 0.66586,-1.35336 2.12234,-15.37961l1.57106,-15.13644l2.44062,0c2.35659,0 2.46354,-0.03565 3.10266,-1.04525l0.66331,-1.04653l0.73843,1.25278c0.53599,0.90903 0.91285,1.20694 1.37245,1.08727c0.48762,-0.12731 0.76643,0.1566 1.21076,1.23623c0.91285,2.22164 1.0478,1.18403 2.05995,-15.91306c0.50799,-8.58992 1.02361,-15.731 1.14456,-15.8685c0.17697,-0.20116 2.10451,27.14476 2.07014,29.36386c-0.00764,0.48634 0.29282,0.59456 1.65382,0.59456l1.664,0l0.60984,-1.69838c0.76007,-2.11088 0.9625,-2.11597 1.65254,-0.03565c0.64549,1.94282 0.91539,2.06122 4.68009,2.06886l2.62905,0.00382l0.46343,-1.10255l0.46343,-1.10382l0.22789,2.37697c0.58565,6.07673 0.63785,6.14803 2.03067,2.70544c0.79317,-1.95683 0.87465,-2.03703 2.37951,-2.3375c1.39028,-0.27755 1.57488,-0.42268 1.72002,-1.35845c0.18843,-1.21458 1.54687,-17.02579 1.5456,-17.99338c0,-0.35903 0.09039,-0.56018 0.20116,-0.44942c0.11076,0.11076 0.76007,9.45821 1.44248,20.77139c0.74861,12.39536 1.37627,20.60206 1.58125,20.65044c0.2559,0.05984 3.04537,-19.17232 3.20196,-22.07382c0.01655,-0.30937 0.94467,-0.42396 3.4375,-0.42396c2.19109,0 3.34074,-0.12222 3.20578,-0.33993c-0.32465,-0.52454 -7.2964,-0.44306 -7.31296,0.0853c-0.06875,2.11852 -2.30822,17.20021 -2.45717,16.55091c-0.10822,-0.46724 -0.73843,-10.15207 -1.40173,-21.52255c-1.51632,-26.01166 -1.46412,-25.85634 -2.93078,-8.82927c-1.31898,15.30704 -1.0478,13.93332 -2.79583,14.19813c-1.27824,0.19352 -1.50613,0.37431 -2.08923,1.65c-0.75498,1.65127 -0.7206,1.74803 -1.13565,-3.24398c-0.29155,-3.50879 -0.63403,-3.80289 -1.49085,-1.27824c-0.84792,2.49282 -0.84155,2.489 -3.85127,2.16435l-2.6265,-0.28391l-0.84664,-2.29166c-0.4647,-1.26042 -0.9625,-2.29166 -1.10636,-2.29166c-0.14259,0 -0.62257,1.03125 -1.06435,2.29166c-0.95868,2.72963 -3.01099,3.72141 -3.01099,1.45393c0,-1.18148 -1.90463,-30.74395 -2.22673,-34.55575c-0.11458,-1.35336 -0.32975,-2.46099 -0.4787,-2.46099c-0.14896,0 -0.36539,1.10764 -0.48125,2.46099m-118.35683,0.85174c0,0.86574 -1.63217,25.6119 -1.87662,28.45356c-0.24572,2.86331 -1.62708,3.38402 -2.5081,0.94722c-0.51181,-1.41701 -1.0338,-1.3368 -1.56088,0.23808c-0.38704,1.15474 -0.41887,1.17002 -2.73981,1.33808l-2.34768,0.16933l-0.89757,8.828c-0.49271,4.85451 -0.96886,9.20867 -1.05671,9.67592c-0.20243,1.07199 -0.11076,2.67488 -1.21331,-21.0222c-0.56273,-12.10126 -1.03761,-19.53771 -1.2515,-19.60773c-0.21516,-0.0713 -0.71042,3.53044 -1.30625,9.47858c-0.52836,5.27592 -1.04271,10.30994 -1.14329,11.18714c-0.18079,1.58889 -0.18715,1.59653 -1.56597,1.69838c-1.1522,0.0853 -1.42083,0.24444 -1.60289,0.95104c-0.275,1.07072 -0.60729,-0.44178 -0.74224,-3.36875c-0.10058,-2.17072 -0.75243,-2.65706 -1.0809,-0.8059c-0.45706,2.5794 -0.32338,2.47627 -3.21979,2.47627l-2.64178,0l-0.80972,-2.03703c-0.99942,-2.51828 -1.1713,-2.52592 -1.86643,-0.08403c-0.47488,1.66273 -1.10382,2.96261 -1.18403,2.44444c-0.01273,-0.08403 -0.58565,-6.70948 -1.27315,-14.72394c-0.77025,-8.97441 -1.389,-14.617 -1.61308,-14.69084c-0.24572,-0.08275 -0.66968,4.75902 -1.30498,14.90982c-0.9816,15.69281 -1.07581,16.59292 -1.59271,15.24975c-0.19479,-0.50544 -0.49143,-0.72951 -0.8059,-0.60856c-0.3463,0.13368 -0.71678,-0.29537 -1.22095,-1.40683c-0.77153,-1.70602 -0.99178,-1.60544 -1.48194,0.68113c-0.19606,0.91667 -0.21262,0.92176 -3.5037,1.01852c-4.43564,0.12986 -4.31724,0.74734 0.16678,0.87211l3.47442,0.09676l0.45579,-1.11528l0.45706,-1.11528l0.23426,0.93449c0.15278,0.6022 0.46088,0.93322 0.87083,0.93322c0.42523,0 0.81609,0.45069 1.18021,1.35845c0.76134,1.9059 1.14201,1.69456 1.37373,-0.76389c0.18461,-1.94664 1.51632,-22.00507 1.57743,-23.76711c0.07257,-2.06504 0.42778,0.97778 1.28715,11.01781c0.51817,6.05254 1.05417,11.18587 1.19167,11.40994c0.60093,0.97014 1.56724,0.42268 1.97974,-1.12292c0.50289,-1.88044 0.62512,-1.88935 1.46539,-0.10567l0.66968,1.42211l3.05046,-0.08657c1.67673,-0.04838 3.14467,-0.24062 3.26053,-0.42778c0.23171,-0.37558 0.6493,2.19491 0.6493,3.99895c0,1.7875 0.6213,1.33935 1.24259,-0.8963l0.56655,-2.03703l1.42465,0l1.42465,0l0.18715,-1.61308c0.10185,-0.88611 0.45961,-4.47256 0.7919,-7.96863c0.33356,-3.49479 0.68241,-6.28043 0.77407,-6.18749c0.09167,0.09167 0.57928,9.33853 1.08345,20.54859c1.15856,25.74048 1.1,25.57497 2.8493,8.1214c1.48831,-14.85635 1.03761,-13.24073 3.69722,-13.24073c2.0434,0 2.19491,-0.05347 2.39479,-0.84792c0.27373,-1.09491 0.74606,-1.08599 1.02234,0.0191c0.16296,0.64803 0.40486,0.84155 0.95613,0.76389c0.59456,-0.08403 0.80718,0.13877 1.09236,1.14456c0.19479,0.68623 0.50671,1.29734 0.69387,1.35845c0.25972,0.08275 1.97592,-21.16734 2.18345,-27.02382c0.07512,-2.14525 0.40741,1.00197 1.22986,11.68494c1.00706,13.08031 0.88993,12.45265 2.3515,12.61689c1.02361,0.11586 1.86007,-1.03252 2.6978,-3.70486c0.4838,-1.54305 -0.42523,-0.70787 -1.20694,1.10764c-0.63021,1.46667 -0.95231,1.8537 -1.48449,1.78241c-0.64676,-0.0853 -0.73843,-0.82627 -1.93136,-15.53621c-1.45011,-17.88899 -1.21331,-15.61769 -1.63345,-15.61769c-0.18715,0 -0.33993,0.26863 -0.33993,0.59711m123.46978,133.15461c-8.77326,2.36551 -15.69663,9.39837 -16.11422,16.3663l-0.15532,2.60104l1.87535,3.51007c5.70879,10.68043 5.26574,20.72683 -1.7875,40.52936c-4.05243,11.37429 -3.86018,14.82961 1.114,20.08898c11.69895,12.36989 39.00667,7.24166 51.0099,-9.58043c6.88136,-9.64281 2.56284,-20.39199 -11.38703,-28.3428c-5.96469,-3.40058 -6.15185,-4.46747 -1.57361,-8.96423c4.3949,-4.31724 6.04617,-7.82476 6.53252,-13.86839c1.12037,-13.9104 -15.13772,-26.21537 -29.51409,-22.33991m-155.82045,1.40173c-7.75983,1.13565 -16.35484,6.12638 -23.57741,13.69269l-3.41076,3.57118l-2.05868,-2.489c-13.41515,-16.21862 -38.59927,-18.03031 -52.82923,-3.80034c-7.70254,7.70254 -11.11712,18.7229 -9.21249,29.73562c0.74479,4.30833 0.81991,4.51713 1.50231,4.20775c0.31065,-0.14132 0.99687,-0.24954 1.52523,-0.2419c0.81609,0.01146 0.93067,-0.09294 0.76134,-0.70278c-9.67464,-34.70598 35.23943,-54.69439 57.2114,-25.46039c2.94479,3.91747 3.03009,3.92511 5.89467,0.48889c14.68193,-17.60126 31.74719,-20.98401 47.17773,-9.34999c8.61157,6.49178 11.60601,17.20021 8.46515,30.27034c-0.16169,0.67095 1.25532,1.45393 2.65324,1.46539c1.39155,0.01146 1.92118,-14.57244 0.70532,-19.42695c-3.50625,-13.9957 -19.64593,-24.17833 -34.80784,-21.96051m164.93108,14.00843c6.76805,3.15231 7.10543,14.00589 0.56528,18.16781c-5.57511,3.54826 -9.22522,2.475 -9.22522,-2.7118c0,-3.58009 -0.4125,-5.70752 -1.79004,-9.2265c-1.00197,-2.56284 -1.01852,-2.68507 -0.48507,-3.80289c1.41065,-2.95752 7.08888,-4.21666 10.93506,-2.42662m-251.74697,33.10182c0,0.22025 -0.51944,0.6493 -1.15347,0.95231l-1.15347,0.55l0.64676,1.87916c2.63541,7.66052 13.15288,24.02301 16.64258,25.89071c1.67037,0.89375 2.75636,-1.60671 1.27697,-2.94224c-4.01423,-3.6272 -11.39721,-15.1861 -14.40184,-22.54616c-1.64745,-4.03588 -1.85752,-4.46365 -1.85752,-3.78379m250.60496,4.12118c8.34675,2.61377 12.39027,8.93622 9.30034,14.54061c-3.37129,6.11492 -13.68124,10.9376 -17.73876,8.29837c-1.16111,-0.75625 -1.2184,-1.50868 -0.39849,-5.26064c0.63403,-2.90277 0.76516,-4.57314 0.78553,-10.00311c0.014,-3.86145 0.16169,-6.65474 0.36285,-6.85335c1.52014,-1.50359 4.34398,-1.7684 7.68853,-0.72187m-148.07207,19.06665c-8.26272,13.42788 -38.19059,42.06732 -43.93503,42.0444c-3.6743,-0.01528 -16.84119,-9.94073 -28.92844,-21.80646l-3.09247,-3.03518l-1.48831,0.7588l-1.48704,0.7588l4.58078,4.41018c15.69535,15.1148 27.6693,23.30241 31.9318,21.83447c6.55925,-2.25984 34.19036,-26.62787 32.24626,-28.43828c-0.77153,-0.71933 -0.90903,-1.96574 -0.28646,-2.58958c0.49398,-0.49398 2.18727,-0.53981 2.47882,-0.06748c0.48252,0.77917 1.2375,0.14514 4.14282,-3.48078c7.59687,-9.4824 8.88529,-12.13691 5.88958,-12.13691c-0.81099,0 -1.15984,0.29792 -2.05231,1.74803m129.01052,77.71925c-9.34108,1.39537 -12.20693,6.09201 -10.24247,16.78899c1.97592,10.76064 1.69329,17.02961 -1.30625,29.02138c-5.74953,22.98285 -2.90532,34.34059 9.23031,36.87161c19.53262,4.0728 34.73145,-0.08403 40.02137,-10.94524c3.94166,-8.09339 -7.33715,-17.86734 -14.71121,-12.74802c-6.46377,4.48912 -14.09883,4.62789 -18.56375,0.33738c-7.11944,-6.84189 3.02627,-15.39235 12.3839,-10.43598c3.3331,1.76713 5.25173,2.16562 8.02337,1.66782c8.539,-1.5316 10.73008,-7.5905 4.87106,-13.46353c-3.68449,-3.69213 -5.95069,-3.90474 -11.85554,-1.11146c-7.02777,3.32546 -12.76966,3.17905 -16.45033,-0.42014c-5.63367,-5.50763 1.36991,-13.20635 9.38564,-10.31758c16.08239,5.79664 17.99975,6.12766 20.63771,3.57118c2.98935,-2.89768 3.76088,-9.78541 1.60544,-14.33818c-4.20902,-8.88529 -21.05148,-16.26827 -33.02925,-14.47823" id="path2"/>
   <path stroke="null" fill-rule="evenodd" fill="#73a7ce" d="m248.10363,13.11444c0.32593,0.08657 0.86065,0.08657 1.18785,0c0.3272,-0.0853 0.05984,-0.15405 -0.59456,-0.15405c-0.65312,0 -0.92049,0.06875 -0.59329,0.15405m2.71562,0c0.3272,0.08657 0.86192,0.08657 1.18785,0c0.3272,-0.0853 0.05984,-0.15405 -0.59329,-0.15405c-0.6544,0 -0.92176,0.06875 -0.59456,0.15405m31.57404,0.01019c0.51308,0.07766 1.35336,0.07766 1.86771,0c0.51308,-0.07766 0.09294,-0.14132 -0.93449,-0.14132c-1.02616,0 -1.44629,0.06366 -0.93322,0.14132m12.47684,5.01874c0.63403,0.65312 1.22859,1.18785 1.32153,1.18785c0.09294,0 -0.34884,-0.53472 -0.9816,-1.18785c-0.63403,-0.65312 -1.22859,-1.18785 -1.32153,-1.18785c-0.09421,0 0.34757,0.53472 0.9816,1.18785m-25.98875,0.93322l-1.3419,1.44375l1.44375,-1.3419c1.3419,-1.24896 1.59907,-1.54433 1.3419,-1.54433c-0.05602,0 -0.70532,0.6493 -1.44375,1.44248m-110.4073,-0.52963c0.32593,0.0853 0.86065,0.0853 1.18785,0c0.3272,-0.0853 0.05984,-0.15532 -0.59456,-0.15532c-0.65312,0 -0.92049,0.07002 -0.59329,0.15532m176.88339,1.97338c0.00382,0.74606 0.07257,1.01215 0.15405,0.58947c0.08148,-0.42141 0.07766,-1.03252 -0.00637,-1.35717c-0.0853,-0.32465 -0.1515,0.02037 -0.14769,0.76771m1.01088,-0.1706c0,0.6544 0.07002,0.92176 0.15532,0.59456c0.0853,-0.3272 0.0853,-0.86192 0,-1.18785c-0.0853,-0.3272 -0.15532,-0.05984 -0.15532,0.59329m-119.03032,1.24768c0.21262,0.15405 0.46979,0.58565 0.57292,0.95995c0.14641,0.53472 0.17315,0.50417 0.1235,-0.14387c-0.03437,-0.45197 -0.29155,-0.88356 -0.57164,-0.95868c-0.33611,-0.09167 -0.37812,-0.04329 -0.12477,0.14259m-0.47488,2.48773c0,0.65312 0.06875,0.92049 0.15405,0.59329c0.08657,-0.32593 0.08657,-0.86065 0,-1.18785c-0.0853,-0.3272 -0.15405,-0.05984 -0.15405,0.59456m119.8515,1.52778c0.00382,0.74606 0.07384,1.01215 0.15532,0.58947c0.08021,-0.42141 0.07766,-1.03252 -0.00764,-1.35717c-0.0853,-0.32465 -0.1515,0.02037 -0.14769,0.76771m-1.6971,0.33866c0.00382,0.74734 0.07257,1.01342 0.15405,0.59074c0.08148,-0.42268 0.07894,-1.0338 -0.00637,-1.35845c-0.0853,-0.32465 -0.1515,0.02164 -0.14769,0.76771m-154.13607,1.35845c0.00382,0.74734 0.07384,1.01215 0.15532,0.59074c0.08021,-0.42268 0.07766,-1.0338 -0.00764,-1.35845c-0.0853,-0.32465 -0.1515,0.02037 -0.14769,0.76771m117.82083,0.67859c0.00255,0.93449 0.06748,1.27569 0.14641,0.76007c0.07766,-0.5169 0.07512,-1.28079 -0.00509,-1.69838c-0.08021,-0.41759 -0.14387,0.00509 -0.14132,0.93831m37.16316,-0.31447c-0.14005,0.14132 -0.25463,0.72187 -0.25463,1.28842c0,0.73588 0.1044,0.92558 0.36667,0.66331c0.20116,-0.20116 0.31574,-0.78044 0.25463,-1.28842c-0.06238,-0.50799 -0.22662,-0.8059 -0.36667,-0.66331m-119.33588,1.67291c0.00382,0.74734 0.07384,1.01215 0.15532,0.59074c0.08021,-0.42268 0.07766,-1.0338 -0.00764,-1.35845c-0.0853,-0.32465 -0.1515,0.02037 -0.14769,0.76771m16.66167,1.01852c0.00127,1.30752 0.06366,1.80023 0.13623,1.09618c0.07384,-0.70532 0.07257,-1.77477 -0.00255,-2.37697c-0.07512,-0.6022 -0.13495,-0.02674 -0.13368,1.28079m103.85696,0.50926c0,0.65312 0.06875,0.92049 0.15405,0.59456c0.08657,-0.3272 0.08657,-0.86192 0,-1.18912c-0.0853,-0.32593 -0.15405,-0.05856 -0.15405,0.59456m-2.37697,0.33993c0,0.65312 0.07002,0.92049 0.15532,0.59329c0.0853,-0.32593 0.0853,-0.86065 0,-1.18785c-0.0853,-0.3272 -0.15532,-0.05984 -0.15532,0.59456m-117.46944,1.01852c0,0.65312 0.07002,0.92049 0.15532,0.59329c0.0853,-0.32593 0.0853,-0.86065 0,-1.18785c-0.0853,-0.3272 -0.15532,-0.05984 -0.15532,0.59456m-36.66663,0.33866c0,0.6544 0.07002,0.92176 0.15532,0.59456c0.0853,-0.3272 0.0853,-0.86192 0,-1.18785c-0.0853,-0.3272 -0.15532,-0.05984 -0.15532,0.59329m137.18412,0.67986c0,1.02616 0.06366,1.44629 0.14132,0.93322c0.07766,-0.51308 0.07766,-1.35336 0,-1.86771c-0.07766,-0.51308 -0.14132,-0.09294 -0.14132,0.93449m-99.83763,-0.33993c0,0.65312 0.06875,0.92049 0.15405,0.59456c0.08657,-0.3272 0.08657,-0.86192 0,-1.18912c-0.0853,-0.32593 -0.15405,-0.05856 -0.15405,0.59456m142.59881,0.16933c0.00382,0.74734 0.07257,1.01342 0.15405,0.59074c0.08148,-0.42268 0.07894,-1.0338 -0.00637,-1.35845c-0.0853,-0.32465 -0.1515,0.02164 -0.14769,0.76771m-223.70082,1.86771c0,1.58761 0.05729,2.23692 0.12986,1.44248c0.0713,-0.79317 0.0713,-2.09178 0,-2.88495c-0.07257,-0.79444 -0.12986,-0.14514 -0.12986,1.44248m199.58869,-1.35845c0,0.6544 0.07002,0.92176 0.15532,0.59456c0.0853,-0.3272 0.0853,-0.86192 0,-1.18785c-0.0853,-0.3272 -0.15532,-0.05984 -0.15532,0.59329m-1.01088,0.50926c0.00382,0.74734 0.07257,1.01342 0.15405,0.59074c0.08148,-0.42268 0.07766,-1.0338 -0.00637,-1.35845c-0.0853,-0.32465 -0.1515,0.02164 -0.14769,0.76771m-119.16655,0.33993c0.00382,0.74734 0.07257,1.01215 0.15405,0.59074c0.08148,-0.42268 0.07766,-1.0338 -0.00637,-1.35845c-0.0853,-0.32465 -0.1515,0.02037 -0.14769,0.76771m-34.97589,0.84919c0,0.65312 0.06875,0.92049 0.15405,0.59329c0.08657,-0.32593 0.08657,-0.86065 0,-1.18785c-0.0853,-0.3272 -0.15405,-0.05984 -0.15405,0.59456m156.17183,0.67859c0,0.65312 0.07002,0.92049 0.15532,0.59456c0.0853,-0.3272 0.0853,-0.86192 0,-1.18912c-0.0853,-0.32593 -0.15532,-0.05856 -0.15532,0.59456m-135.10507,1.18785c0.00255,0.93449 0.06875,1.27569 0.14641,0.76007c0.07894,-0.5169 0.07639,-1.28079 -0.00382,-1.69838c-0.08148,-0.41759 -0.14514,0.00509 -0.14259,0.93831m132.04952,-0.50926c0,0.6544 0.07002,0.92176 0.15532,0.59456c0.0853,-0.3272 0.0853,-0.86192 0,-1.18785c-0.0853,-0.3272 -0.15532,-0.05984 -0.15532,0.59329m-117.46817,0.67986c0,0.65312 0.06875,0.92049 0.15405,0.59329c0.08657,-0.32593 0.08657,-0.86065 0,-1.18785c-0.0853,-0.3272 -0.15405,-0.05984 -0.15405,0.59456m-36.66663,0.33866c0,0.6544 0.06875,0.92176 0.15405,0.59456c0.08657,-0.3272 0.08657,-0.86192 0,-1.18785c-0.0853,-0.3272 -0.15405,-0.05984 -0.15405,0.59329m156.51176,1.01852c0,0.6544 0.07002,0.92176 0.15532,0.59456c0.0853,-0.3272 0.0853,-0.86192 0,-1.18785c-0.0853,-0.3272 -0.15532,-0.05984 -0.15532,0.59329m24.11213,0.1706c0.00382,0.74606 0.07257,1.01215 0.15405,0.58947c0.08148,-0.42141 0.07766,-1.03252 -0.00637,-1.35717c-0.0853,-0.32465 -0.1515,0.02037 -0.14769,0.76771m-159.40435,1.52778c0.10185,1.21331 0.24062,2.27002 0.30683,2.34768c0.23681,0.27373 0.05093,-2.8684 -0.21898,-3.70613c-0.16424,-0.50926 -0.19861,0.03437 -0.08785,1.35845m133.60149,-0.84919c0.00382,0.74734 0.07257,1.01215 0.15405,0.59074c0.08148,-0.42268 0.07894,-1.0338 -0.00637,-1.35845c-0.0853,-0.32465 -0.1515,0.02037 -0.14769,0.76771m-119.17291,0.16933c0,0.6544 0.06875,0.92176 0.15405,0.59456c0.08657,-0.3272 0.08657,-0.86192 0,-1.18785c-0.0853,-0.3272 -0.15405,-0.05984 -0.15405,0.59329m-34.96953,0.67986c0,0.65312 0.07002,0.92049 0.15532,0.59329c0.0853,-0.32593 0.0853,-0.86065 0,-1.18785c-0.0853,-0.3272 -0.15532,-0.05984 -0.15532,0.59456m137.17903,0.84792c0.00255,0.93449 0.06748,1.27569 0.14641,0.76007c0.07766,-0.5169 0.07512,-1.28079 -0.00509,-1.69838c-0.08021,-0.41759 -0.14387,0.00509 -0.14132,0.93831m19.67267,-0.16933c0,0.65312 0.07002,0.92049 0.15532,0.59456c0.0853,-0.3272 0.0853,-0.86192 0,-1.18912c-0.0853,-0.32593 -0.15532,-0.05856 -0.15532,0.59456m-3.72777,0.84919c0.00382,0.74606 0.07257,1.01215 0.15405,0.58947c0.08148,-0.42141 0.07894,-1.03252 -0.00637,-1.35717c-0.0853,-0.32465 -0.1515,0.02037 -0.14769,0.76771m26.14152,0c0.00382,0.74606 0.07384,1.01215 0.15532,0.58947c0.08021,-0.42141 0.07766,-1.03252 -0.00764,-1.35717c-0.0853,-0.32465 -0.1515,0.02037 -0.14769,0.76771m-143.61733,0.50926c0,0.65312 0.07002,0.92049 0.15532,0.59329c0.0853,-0.32593 0.0853,-0.86065 0,-1.18785c-0.0853,-0.3272 -0.15532,-0.05984 -0.15532,0.59456m-36.66663,0.33866c0,0.6544 0.07002,0.92176 0.15532,0.59456c0.0853,-0.3272 0.0853,-0.86192 0,-1.18785c-0.0853,-0.3272 -0.15532,-0.05984 -0.15532,0.59329m39.72218,0.67986c0,0.65312 0.07002,0.92049 0.15532,0.59329c0.0853,-0.32593 0.0853,-0.86065 0,-1.18785c-0.0853,-0.3272 -0.15532,-0.05984 -0.15532,0.59456m117.47581,0.50926c0.00382,0.74606 0.07257,1.01215 0.15405,0.58947c0.08148,-0.42141 0.07894,-1.03252 -0.00637,-1.35717c-0.0853,-0.32465 -0.1515,0.02037 -0.14769,0.76771m-134.43285,0.67859c0.00255,0.93322 0.06875,1.27569 0.14641,0.7588c0.07766,-0.51562 0.07639,-1.27951 -0.00509,-1.6971c-0.08021,-0.41759 -0.14387,0.00509 -0.14132,0.93831m158.53734,-0.33993c0.00382,0.74734 0.07384,1.01342 0.15532,0.59074c0.08021,-0.42268 0.07766,-1.0338 -0.00764,-1.35845c-0.0853,-0.32465 -0.1515,0.02164 -0.14769,0.76771m-145.65437,0.50926c0,0.6544 0.07002,0.92176 0.15532,0.59456c0.0853,-0.3272 0.0853,-0.86192 0,-1.18785c-0.0853,-0.3272 -0.15532,-0.05984 -0.15532,0.59329m101.87467,0.67986c0,1.02616 0.06366,1.44629 0.14132,0.93322c0.07766,-0.51308 0.07766,-1.35336 0,-1.86771c-0.07766,-0.51308 -0.14132,-0.09294 -0.14132,0.93449m17.29825,-0.50926c0.00382,0.74606 0.07384,1.01215 0.15532,0.58947c0.08021,-0.42141 0.07766,-1.03252 -0.00764,-1.35717c-0.0853,-0.32465 -0.1515,0.02037 -0.14769,0.76771m-154.1348,0.67859c0.00382,0.74734 0.07257,1.01215 0.15405,0.59074c0.08148,-0.42268 0.07766,-1.0338 -0.00637,-1.35845c-0.0853,-0.32465 -0.1515,0.02037 -0.14769,0.76771m50.14289,0.76389l-1.17002,1.27315l1.27315,-1.17002c1.18403,-1.08854 1.42847,-1.37627 1.17002,-1.37627c-0.05729,0 -0.63021,0.57292 -1.27315,1.27315m107.38739,-0.0853c0.00382,0.74734 0.07257,1.01342 0.15405,0.59074c0.08148,-0.42268 0.07894,-1.0338 -0.00637,-1.35845c-0.0853,-0.32465 -0.1515,0.02164 -0.14769,0.76771m-4.414,1.01852c0.00382,0.74734 0.07384,1.01342 0.15532,0.59074c0.08021,-0.42268 0.07766,-1.0338 -0.00764,-1.35845c-0.0853,-0.32465 -0.1515,0.02164 -0.14769,0.76771m-117.47581,0.1706c0,0.65312 0.07002,0.92049 0.15532,0.59329c0.0853,-0.32593 0.0853,-0.86065 0,-1.18785c-0.0853,-0.3272 -0.15532,-0.05984 -0.15532,0.59456m144.29083,0c0,0.65312 0.06875,0.92049 0.15405,0.59329c0.08657,-0.32593 0.08657,-0.86065 0,-1.18785c-0.0853,-0.3272 -0.15405,-0.05984 -0.15405,0.59456m-180.94982,0.50926c0.00382,0.74606 0.07257,1.01215 0.15405,0.58947c0.08148,-0.42141 0.07766,-1.03252 -0.00637,-1.35717c-0.0853,-0.32465 -0.1515,0.02037 -0.14769,0.76771m22.41884,0.67859c0.00255,0.93322 0.06748,1.27569 0.14641,0.7588c0.07766,-0.51562 0.07512,-1.27951 -0.00509,-1.6971c-0.08021,-0.41759 -0.14387,0.00509 -0.14132,0.93831m116.45474,0.50926c0,1.02743 0.06366,1.44757 0.14132,0.93322c0.07766,-0.51308 0.07766,-1.35336 0,-1.86643c-0.07766,-0.51435 -0.14132,-0.09421 -0.14132,0.93322m18.98899,0c0,0.65312 0.07002,0.92049 0.15532,0.59456c0.0853,-0.3272 0.0853,-0.86192 0,-1.18912c-0.0853,-0.32593 -0.15532,-0.05856 -0.15532,0.59456m-122.2221,0.67859c0,0.6544 0.07002,0.92176 0.15532,0.59456c0.0853,-0.3272 0.0853,-0.86192 0,-1.18785c-0.0853,-0.3272 -0.15532,-0.05984 -0.15532,0.59329m146.33423,0.1706c0.00382,0.74606 0.07257,1.01215 0.15405,0.58947c0.08148,-0.42141 0.07894,-1.03252 -0.00637,-1.35717c-0.0853,-0.32465 -0.1515,0.02037 -0.14769,0.76771m-27.16768,0.16933c0,0.65312 0.07002,0.92049 0.15532,0.59456c0.0853,-0.3272 0.0853,-0.86192 0,-1.18912c-0.0853,-0.32593 -0.15532,-0.05856 -0.15532,0.59456m-154.1348,0.67859c0,0.6544 0.06875,0.92176 0.15405,0.59456c0.08657,-0.3272 0.08657,-0.86192 0,-1.18785c-0.0853,-0.3272 -0.15405,-0.05984 -0.15405,0.59329m22.76514,1.18912c0.00255,0.93322 0.06748,1.27442 0.14641,0.7588c0.07766,-0.51562 0.07512,-1.27951 -0.00509,-1.6971c-0.08021,-0.41759 -0.14387,0.00382 -0.14132,0.93831m135.44373,-0.50926c0,0.65312 0.07002,0.92049 0.15532,0.59329c0.0853,-0.32593 0.0853,-0.86065 0,-1.18785c-0.0853,-0.3272 -0.15532,-0.05984 -0.15532,0.59456m-122.56076,1.01852c0,0.65312 0.06875,0.92049 0.15405,0.59329c0.08657,-0.32593 0.08657,-0.86065 0,-1.18785c-0.0853,-0.3272 -0.15405,-0.05984 -0.15405,0.59456m117.46817,0c0,0.65312 0.07002,0.92049 0.15532,0.59329c0.0853,-0.32593 0.0853,-0.86065 0,-1.18785c-0.0853,-0.3272 -0.15532,-0.05984 -0.15532,0.59456m-15.5935,1.01852c0,1.02616 0.06366,1.44629 0.14132,0.93322c0.07766,-0.51308 0.07766,-1.35336 0,-1.86771c-0.07766,-0.51308 -0.14132,-0.09294 -0.14132,0.93449m43.10111,-0.50926c0.00382,0.74606 0.07257,1.01215 0.15405,0.58947c0.08148,-0.42141 0.07766,-1.03252 -0.00637,-1.35717c-0.0853,-0.32465 -0.1515,0.02037 -0.14769,0.76771m-181.74808,0.25336c-0.10185,0.73079 -0.04965,1.14583 0.12095,0.97523c0.16424,-0.16296 0.24317,-0.73588 0.17697,-1.27315c-0.11204,-0.8963 -0.13623,-0.87338 -0.29792,0.29792m16.40195,-0.08403c0,0.65312 0.06875,0.92049 0.15405,0.59456c0.08657,-0.3272 0.08657,-0.86192 0,-1.18912c-0.0853,-0.32593 -0.15405,-0.05856 -0.15405,0.59456m14.18031,-0.33993l-1.18912,0.25081l1.08345,0.04456c0.59583,0.02419 1.17766,-0.10822 1.29352,-0.29537c0.11586,-0.18588 0.16296,-0.31956 0.1044,-0.2941c-0.05729,0.02419 -0.63912,0.1566 -1.29224,0.2941m98.94516,0.44051c-0.09294,0.2419 -0.12604,2.64815 -0.07257,5.34722l0.09549,4.90671l0.16806,-5.34722c0.16551,-5.25937 0.14514,-5.78391 -0.19097,-4.90671m-112.31192,0.16806c-0.09167,0.14769 0.39595,0.21262 1.08345,0.14514c1.87789,-0.18588 2.10197,-0.35648 0.50544,-0.38704c-0.78299,-0.01528 -1.49849,0.09421 -1.58889,0.2419m23.50229,0.1566c0.1706,0.17187 0.67222,0.25463 1.114,0.18461c0.67859,-0.10694 0.63148,-0.15405 -0.31192,-0.31065c-0.67477,-0.11204 -0.99051,-0.06238 -0.80208,0.12604m117.93669,0.59329c0,0.65312 0.07002,0.92049 0.15532,0.59456c0.0853,-0.3272 0.0853,-0.86192 0,-1.18912c-0.0853,-0.32593 -0.15532,-0.05856 -0.15532,0.59456m-147.84927,-0.43032c0.79444,0.0713 2.09305,0.0713 2.88622,0c0.79317,-0.0713 0.14387,-0.12986 -1.44248,-0.12986c-1.58761,0 -2.23692,0.05856 -1.44375,0.12986m12.40427,2.29803c0.00255,0.93322 0.06875,1.27442 0.14641,0.7588c0.07894,-0.51562 0.07639,-1.27951 -0.00382,-1.6971c-0.08148,-0.41759 -0.14514,0.00382 -0.14259,0.93831m131.71086,-0.50926c0,0.65312 0.06875,0.92049 0.15405,0.59329c0.08657,-0.32593 0.08657,-0.86065 0,-1.18785c-0.0853,-0.3272 -0.15405,-0.05984 -0.15405,0.59456m27.84627,0.16933c0.00382,0.74734 0.07257,1.01215 0.15405,0.59074c0.08148,-0.42268 0.07766,-1.0338 -0.00637,-1.35845c-0.0853,-0.32465 -0.1515,0.02037 -0.14769,0.76771m-182.01035,0.12095c-0.04201,0.93576 -0.1566,1.1 -0.64549,0.91412c-0.47616,-0.18206 -0.50926,-0.14132 -0.16933,0.20116c0.62257,0.62639 1.18785,-0.09039 1.01088,-1.27951c-0.13877,-0.93067 -0.14769,-0.92303 -0.19606,0.16424m14.97348,0.21898c0.00382,0.74606 0.07257,1.01215 0.15405,0.58947c0.08148,-0.42141 0.07766,-1.03252 -0.00637,-1.35717c-0.0853,-0.32465 -0.1515,0.02037 -0.14769,0.76771m123.93066,1.01852c0.00255,0.93322 0.06875,1.27442 0.14641,0.7588c0.07766,-0.51562 0.07639,-1.27951 -0.00509,-1.6971c-0.08021,-0.41759 -0.14387,0.00382 -0.14132,0.93831m3.85891,0.08403c-0.08657,0.14005 0.7066,0.21134 1.76204,0.15914c3.31655,-0.16551 3.71632,-0.30937 1.00706,-0.36285c-1.43611,-0.02801 -2.68252,0.06366 -2.76909,0.2037m25.83979,-0.014c0.42141,0.08148 1.03252,0.07766 1.35717,-0.00637c0.32465,-0.0853 -0.02037,-0.1515 -0.76771,-0.14769c-0.74606,0.00382 -1.01215,0.07257 -0.58947,0.15405m9.5868,0.52963c0,0.33229 -0.36285,0.59838 -0.93322,0.68495l-0.93449,0.14132l0.94467,0.05093c0.90011,0.04838 1.62326,-0.7206 1.13437,-1.20949c-0.11586,-0.11586 -0.21134,0.0331 -0.21134,0.33229m-45.95424,0.1706c-0.08912,0.14259 0.43669,0.2037 1.16748,0.13368c0.73206,-0.07002 1.33044,-0.18715 1.33044,-0.261c0,-0.25336 -2.33622,-0.13368 -2.49791,0.12731m26.85703,-0.02164c0.42014,0.08021 1.10764,0.08021 1.52778,0c0.42014,-0.08148 0.07639,-0.14769 -0.76389,-0.14769c-0.84028,0 -1.18403,0.0662 -0.76389,0.14769m22.23806,0.94849c0.00382,0.74734 0.07384,1.01215 0.15532,0.59074c0.08021,-0.42268 0.07766,-1.0338 -0.00764,-1.35845c-0.0853,-0.32465 -0.1515,0.02037 -0.14769,0.76771m6.63182,-0.93704c0.98669,0.06875 2.51447,0.06748 3.39421,-0.00255c0.88102,-0.06875 0.07384,-0.12604 -1.79386,-0.12477c-1.86643,0.00127 -2.58703,0.05856 -1.60035,0.12731m-164.48548,1.78623c0,1.02616 0.06366,1.44629 0.14132,0.93322c0.07766,-0.51308 0.07766,-1.35336 0,-1.86771c-0.07766,-0.51308 -0.14132,-0.09294 -0.14132,0.93449m114.75255,1.6971c0,1.02743 0.06366,1.44757 0.14132,0.93322c0.07766,-0.51308 0.07766,-1.35336 0,-1.86643c-0.07766,-0.51435 -0.14132,-0.09421 -0.14132,0.93322m44.11963,-0.16933c0.00382,0.74606 0.07384,1.01215 0.15532,0.58947c0.08021,-0.42141 0.07766,-1.03252 -0.00764,-1.35717c-0.0853,-0.32465 -0.1515,0.02037 -0.14769,0.76771m-159.55586,2.71562c0.00255,0.93322 0.06875,1.27569 0.14641,0.7588c0.07766,-0.51562 0.07639,-1.27951 -0.00509,-1.6971c-0.08021,-0.41759 -0.14387,0.00509 -0.14132,0.93831m158.87727,0.33993c0.00382,0.74606 0.07257,1.01215 0.15405,0.58947c0.08148,-0.42141 0.07894,-1.03252 -0.00637,-1.35717c-0.0853,-0.32465 -0.1515,0.02037 -0.14769,0.76771m-42.42253,0.84792c0,1.02743 0.06366,1.44757 0.14132,0.93449c0.07766,-0.51435 0.07766,-1.35463 0,-1.86771c-0.07766,-0.51308 -0.14132,-0.09294 -0.14132,0.93322m-115.43623,2.20764c0.00255,0.93322 0.06875,1.27442 0.14641,0.7588c0.07766,-0.51562 0.07639,-1.27951 -0.00509,-1.6971c-0.08021,-0.41759 -0.14387,0.00382 -0.14132,0.93831m158.87727,-0.33993c0.00382,0.74734 0.07257,1.01215 0.15405,0.59074c0.08148,-0.42268 0.07894,-1.0338 -0.00637,-1.35845c-0.0853,-0.32465 -0.1515,0.02037 -0.14769,0.76771m-71.97609,-0.61493c0.3272,0.0853 0.86192,0.0853 1.18785,0c0.3272,-0.0853 0.05984,-0.15532 -0.59329,-0.15532c-0.6544,0 -0.92176,0.07002 -0.59456,0.15532m-51.77506,1.02488c0.42014,0.08021 1.10764,0.08021 1.52778,0c0.42014,-0.08148 0.07639,-0.14769 -0.76389,-0.14769c-0.84028,0 -1.18403,0.0662 -0.76389,0.14769m79.63152,2.13634c0,1.02743 0.06366,1.44757 0.14132,0.93322c0.07766,-0.51308 0.07766,-1.35336 0,-1.86643c-0.07766,-0.51435 -0.14132,-0.09421 -0.14132,0.93322m43.44104,0.50926c0.00382,0.74734 0.07257,1.01215 0.15405,0.59074c0.08148,-0.42268 0.07766,-1.0338 -0.00637,-1.35845c-0.0853,-0.32465 -0.1515,0.02037 -0.14769,0.76771m-158.87727,1.35845c0.00255,0.93322 0.06748,1.27442 0.14641,0.7588c0.07766,-0.51562 0.07512,-1.27951 -0.00509,-1.6971c-0.08021,-0.41759 -0.14387,0.00382 -0.14132,0.93831m116.45474,1.86643c0,1.02743 0.06366,1.44757 0.14132,0.93449c0.07766,-0.51435 0.07766,-1.35463 0,-1.86771c-0.07766,-0.51308 -0.14132,-0.09294 -0.14132,0.93322m43.35956,-0.65058c0.00382,0.63785 0.15787,1.389 0.34502,1.6691c0.23681,0.35648 0.27245,0.04965 0.11713,-1.01852c-0.27627,-1.90081 -0.46852,-2.17199 -0.46215,-0.65058m-88.61611,2.85821c-1.39028,1.40046 -2.45208,2.54629 -2.35914,2.54629c0.09294,0 1.30752,-1.14583 2.69907,-2.54629c1.39155,-1.40046 2.45335,-2.54629 2.35914,-2.54629c-0.09294,0 -1.30752,1.14583 -2.69907,2.54629m-13.57938,-1.01852c0.63275,0.65312 1.22731,1.18785 1.32153,1.18785c0.09294,0 -0.34884,-0.53472 -0.98287,-1.18785c-0.63275,-0.6544 -1.22731,-1.18912 -1.32153,-1.18912c-0.09294,0 0.34884,0.53472 0.98287,1.18912m101.59712,1.35717c0.00382,0.74734 0.07384,1.01342 0.15532,0.59074c0.08021,-0.42268 0.07766,-1.0338 -0.00764,-1.35845c-0.0853,-0.32465 -0.1515,0.02164 -0.14769,0.76771m-43.44486,1.69838c0.00255,0.93322 0.06875,1.27442 0.14641,0.7588c0.07766,-0.51562 0.07639,-1.27951 -0.00509,-1.6971c-0.08021,-0.41759 -0.14387,0.00382 -0.14132,0.93831m-115.45023,0.84792c0,0.6544 0.07002,0.92176 0.15532,0.59456c0.0853,-0.3272 0.0853,-0.86192 0,-1.18785c-0.0853,-0.3272 -0.15532,-0.05984 -0.15532,0.59329m116.6037,0.80972c-0.12731,0.33229 -0.21898,1.01215 -0.20116,1.50995c0.02801,0.8441 0.0522,0.82882 0.35648,-0.22917c0.35393,-1.22604 0.22535,-2.27511 -0.15532,-1.28079m-0.80972,6.3199c0,1.02743 0.06366,1.44757 0.14132,0.93449c0.07766,-0.51435 0.07766,-1.35463 0,-1.86771c-0.07766,-0.51308 -0.14132,-0.09294 -0.14132,0.93322m-208.7337,24.18979l-3.38912,3.48078l3.47951,-3.38912c3.23252,-3.14722 3.63483,-3.57118 3.38912,-3.57118c-0.04965,0 -1.61562,1.56597 -3.47951,3.47951m-46.22032,6.19641c0.00127,1.4934 0.06111,2.0625 0.13241,1.26423c0.07257,-0.79826 0.0713,-2.02048 -0.00127,-2.71562c-0.07384,-0.69641 -0.13241,-0.04201 -0.13113,1.45139m-13.01793,29.53701c-0.82373,0.84028 -1.42211,1.52778 -1.32917,1.52778c0.09294,0 0.8441,-0.6875 1.6691,-1.52778c0.825,-0.84028 1.42338,-1.52778 1.32917,-1.52778c-0.09294,0 -0.8441,0.6875 -1.6691,1.52778m293.9276,9.24305c0.60729,0.07512 1.60035,0.07512 2.20636,0c0.60729,-0.07639 0.11076,-0.1375 -1.10255,-0.1375c-1.21458,0 -1.71111,0.06111 -1.10382,0.1375m-219.32119,3.39421c0.60729,0.07512 1.60035,0.07512 2.20764,0c0.60602,-0.07512 0.10949,-0.13623 -1.10382,-0.13623c-1.21331,0 -1.70984,0.06111 -1.10382,0.13623m62.30017,1.69965c0.70023,0.07257 1.84606,0.07257 2.54629,0c0.70023,-0.07384 0.12731,-0.13368 -1.27315,-0.13368c-1.40046,0 -1.97338,0.05984 -1.27315,0.13368m-26.07023,9.68356l-1.68437,1.78241l1.78241,-1.68565c0.98032,-0.92558 1.78241,-1.72766 1.78241,-1.78241c0,-0.25336 -0.31447,0.02928 -1.88044,1.68565m48.56164,-0.42523c0.72951,0.74734 1.40301,1.35845 1.49595,1.35845c0.09421,0 -0.4265,-0.61111 -1.15602,-1.35845c-0.72951,-0.74606 -1.40301,-1.35717 -1.49595,-1.35717c-0.09294,0 0.4265,0.61111 1.15602,1.35717m-105.60244,1.10382l-1.3419,1.44248l1.44375,-1.3419c1.3419,-1.24768 1.59907,-1.54305 1.3419,-1.54305c-0.05602,0 -0.70532,0.6493 -1.44375,1.44248m46.01917,1.10382c1.0147,1.02616 1.92118,1.86643 2.01412,1.86643c0.09294,0 -0.65949,-0.84028 -1.67419,-1.86643c-1.0147,-1.02743 -1.91991,-1.86771 -2.01412,-1.86771c-0.09294,0 0.66076,0.84028 1.67419,1.86771m173.24601,1.35717c0.00255,0.93449 0.06748,1.27569 0.14641,0.76007c0.07766,-0.5169 0.07512,-1.28079 -0.00509,-1.69838c-0.08021,-0.41759 -0.14387,0.00509 -0.14132,0.93831m-106.92015,14.08992c0,1.77349 0.05729,2.49919 0.12731,1.61308c0.07002,-0.88738 0.07002,-2.33877 0,-3.22615c-0.07002,-0.88611 -0.12731,-0.16042 -0.12731,1.61308m-124.2795,4.75266c0,1.02743 0.06366,1.44757 0.14132,0.93449c0.07766,-0.51435 0.07766,-1.35463 0,-1.86771c-0.07766,-0.51308 -0.14132,-0.09294 -0.14132,0.93322m236.99247,1.69838c0,1.58634 0.05856,2.23565 0.12986,1.44248c0.0713,-0.79317 0.0713,-2.09178 0,-2.88622c-0.0713,-0.79317 -0.12986,-0.14387 -0.12986,1.44375m-256.98724,7.29895c0,2.98808 0.0522,4.16446 0.11586,2.61504c0.06238,-1.54942 0.06238,-3.99386 -0.00127,-5.43252c-0.06366,-1.43738 -0.11458,-0.1706 -0.11458,2.81747m-37.14406,0.33993c1.0147,1.02616 1.92118,1.86643 2.01412,1.86643c0.09294,0 -0.65949,-0.84028 -1.67419,-1.86643c-1.0147,-1.02743 -1.91991,-1.86771 -2.01412,-1.86771c-0.09294,0 0.66076,0.84028 1.67419,1.86771m37.42543,9.33599c0,0.65312 0.06875,0.92049 0.15405,0.59456c0.08657,-0.3272 0.08657,-0.86192 0,-1.18912c-0.0853,-0.32593 -0.15405,-0.05856 -0.15405,0.59456m282.729,2.54629c0.63403,0.65312 1.22859,1.18785 1.32153,1.18785c0.09294,0 -0.34884,-0.53472 -0.9816,-1.18785c-0.63403,-0.65312 -1.22859,-1.18785 -1.32153,-1.18785c-0.09421,0 0.34757,0.53472 0.9816,1.18785m2.80856,5.94178c0,0.84028 0.0662,1.18403 0.14769,0.76389c0.08021,-0.42014 0.08021,-1.10764 0,-1.52778c-0.08148,-0.42014 -0.14769,-0.07639 -0.14769,0.76389m14.32418,14.34327l-1.68565,1.78241l1.78241,-1.68437c0.98032,-0.92685 1.78241,-1.72893 1.78241,-1.78241c0,-0.25336 -0.31447,0.02801 -1.87916,1.68437m-326.6462,5.85648c0.00127,1.49467 0.06111,2.0625 0.13368,1.26423c0.0713,-0.79826 0.07002,-2.02048 -0.00255,-2.71562c-0.07257,-0.69514 -0.13241,-0.04201 -0.13113,1.45139m142.1112,3.14085l-0.82245,0.93322l0.87338,-0.76643c0.48125,-0.42141 1.00197,-0.65058 1.15856,-0.50926c0.15532,0.14132 0.17315,0.0662 0.03947,-0.16678c-0.32211,-0.55891 -0.29919,-0.56782 -1.24896,0.50926m-0.1566,4.92326l-1.68437,1.78241l1.78241,-1.68565c1.65636,-1.5647 1.93773,-1.87916 1.68437,-1.87916c-0.05347,0 -0.85555,0.80208 -1.78241,1.78241m153.73376,-1.19294c0.89248,0.07002 2.26747,0.06875 3.05555,-0.00255c0.78808,-0.0713 0.05856,-0.12859 -1.62199,-0.12731c-1.68055,0.00127 -2.32604,0.05984 -1.43356,0.12986m-218.90615,2.12616c1.10891,1.12037 2.09178,2.03703 2.18599,2.03703c0.09294,0 -0.73843,-0.91667 -1.84606,-2.03703c-1.10891,-1.12037 -2.09305,-2.03703 -2.18599,-2.03703c-0.09294,0 0.73715,0.91667 1.84606,2.03703m58.72772,1.10382l-3.04919,3.13958l3.14085,-3.04791c1.72766,-1.67673 3.14085,-3.08993 3.14085,-3.14085c0,-0.24572 -0.40104,0.13241 -3.23252,3.04919m-52.61661,0.25463c0.72951,0.74606 1.40301,1.35717 1.49595,1.35717c0.09294,0 -0.4265,-0.61111 -1.15602,-1.35717c-0.72951,-0.74734 -1.40301,-1.35845 -1.49595,-1.35845c-0.09421,0 0.4265,0.61111 1.15602,1.35845m-0.84919,3.50115c0,0.05856 0.49653,0.55509 1.10382,1.10255l1.10382,0.99815l-0.99815,-1.10382c-0.9294,-1.0287 -1.20949,-1.25914 -1.20949,-0.99687m51.60574,2.43935c-0.825,0.84028 -1.42338,1.52778 -1.33044,1.52778c0.09421,0 0.84537,-0.6875 1.6691,-1.52778c0.825,-0.84028 1.42338,-1.52778 1.33044,-1.52778c-0.09421,0 -0.84537,0.6875 -1.6691,1.52778m-5.28356,0.59456l-0.99815,1.10382l1.10382,-0.99815c1.0287,-0.9294 1.25914,-1.20949 0.99687,-1.20949c-0.05856,0 -0.55509,0.49653 -1.10255,1.10382m-66.86185,32.84719c0.72951,0.74734 1.40301,1.35845 1.49595,1.35845c0.09294,0 -0.4265,-0.61111 -1.15602,-1.35845c-0.72951,-0.74734 -1.40301,-1.35845 -1.49595,-1.35845c-0.09421,0 0.4265,0.61111 1.15602,1.35845m5.09259,5.09259c0.72951,0.74734 1.40301,1.35845 1.49595,1.35845c0.09294,0 -0.4265,-0.61111 -1.15602,-1.35845c-0.72951,-0.74734 -1.40301,-1.35845 -1.49595,-1.35845c-0.09421,0 0.4265,0.61111 1.15602,1.35845m-73.16393,0.84919c0.63403,0.65312 1.22859,1.18785 1.32153,1.18785c0.09421,0 -0.34757,-0.53472 -0.9816,-1.18785c-0.63403,-0.6544 -1.22859,-1.18912 -1.32153,-1.18912c-0.09294,0 0.34884,0.53472 0.9816,1.18912m46.8518,16.89848c0,0.05093 1.18403,1.23495 2.63159,2.63159l2.63159,2.53738l-2.53865,-2.63159c-2.35659,-2.44317 -2.72453,-2.78565 -2.72453,-2.53738m272.45343,3.30127c0.72951,0.74734 1.40301,1.35845 1.49595,1.35845c0.09421,0 -0.4265,-0.61111 -1.15602,-1.35845c-0.72951,-0.74606 -1.40301,-1.35717 -1.49595,-1.35717c-0.09294,0 0.4265,0.61111 1.15602,1.35717m-127.60369,10.41434c0.21516,0.15405 0.46852,0.66204 0.564,1.12928c0.14896,0.73079 0.16551,0.71042 0.1184,-0.14387c-0.03056,-0.55891 -0.275,-1.05162 -0.56273,-1.12928c-0.33993,-0.09167 -0.3794,-0.04329 -0.11968,0.14387m-38.32936,3.40567c0.42014,0.08148 1.10764,0.08148 1.52778,0c0.42014,-0.08021 0.07639,-0.14641 -0.76389,-0.14641c-0.84028,0 -1.18403,0.0662 -0.76389,0.14641m14.60299,0.00127c0.42141,0.08021 1.03252,0.07766 1.35717,-0.00764c0.32465,-0.0853 -0.02037,-0.1515 -0.76771,-0.14769c-0.74606,0.00382 -1.01215,0.07384 -0.58947,0.15532m112.56528,5.19189c0,1.21331 0.06238,1.70984 0.1375,1.10255c0.07512,-0.60602 0.07512,-1.59907 0,-2.20636c-0.07512,-0.60729 -0.1375,-0.11076 -0.1375,1.10382m-222.39839,2.20636c0.00382,0.74734 0.07257,1.01215 0.15405,0.59074c0.08148,-0.42268 0.07766,-1.0338 -0.00637,-1.35845c-0.0853,-0.32465 -0.1515,0.02037 -0.14769,0.76771m242.57904,16.3663c0.42268,0.08148 1.0338,0.07894 1.35845,-0.00637c0.32465,-0.0853 -0.02037,-0.1515 -0.76771,-0.14769c-0.74734,0.00382 -1.01215,0.07257 -0.59074,0.15405m-189.44807,1.01852c0.42014,0.08021 1.10764,0.08021 1.52778,0c0.42014,-0.08148 0.07639,-0.14769 -0.76389,-0.14769c-0.84028,0 -1.18403,0.0662 -0.76389,0.14769m-53.5702,2.22164c0.83136,0.88738 1.55706,1.61308 1.6118,1.61308c0.25463,0 -0.014,-0.30556 -1.51377,-1.71238l-1.6118,-1.51377l1.51377,1.61308m32.42068,8.48807l-1.3419,1.44248l1.44248,-1.3419c1.3419,-1.24768 1.59907,-1.54433 1.3419,-1.54433c-0.05475,0 -0.70405,0.6493 -1.44248,1.44375m82.26057,25.28342c0.60729,0.07512 1.60035,0.07512 2.20764,0c0.60602,-0.07512 0.10949,-0.13623 -1.10382,-0.13623c-1.21331,0 -1.70984,0.06111 -1.10382,0.13623m129.86098,0.00255c0.70023,0.07257 1.84606,0.07257 2.54629,0c0.70023,-0.07384 0.12731,-0.13368 -1.27315,-0.13368c-1.40046,0 -1.97338,0.05984 -1.27315,0.13368" id="path3"/>
  </g>
 </g>
</svg>
