<svg id="svg" version="1.1" xmlns="http://www.w3.org/2000/svg" xmlns:xlink="http://www.w3.org/1999/xlink" width="400" height="400" viewBox="0, 0, 400,400"><g id="svgg"><path id="path0" d="M151.764 60.875 C 149.439 66.811,149.734 78.393,152.420 86.622 C 156.344 98.646,162.016 105.637,183.067 124.397 C 204.699 143.674,211.325 155.334,211.331 174.133 C 211.333 180.814,211.238 181.853,209.987 188.800 C 205.706 212.567,206.830 234.548,212.948 246.695 C 214.002 248.788,213.890 248.725,215.169 247.943 C 232.072 237.609,247.531 217.037,250.907 200.384 C 257.097 169.846,234.910 140.066,181.119 106.715 C 167.158 98.058,157.624 83.560,152.942 63.867 C 152.136 60.476,152.028 60.201,151.764 60.875 M318.651 62.711 C 318.642 62.760,318.532 64.240,318.407 66.000 C 317.840 73.985,314.721 82.962,310.108 89.883 C 303.415 99.927,295.765 106.740,280.400 116.339 C 266.195 125.213,259.919 128.188,244.248 133.473 C 236.885 135.956,235.200 136.617,235.200 137.022 C 235.200 137.137,236.862 138.684,238.893 140.461 C 250.541 150.645,255.128 159.472,256.804 174.932 C 257.160 178.214,257.151 178.193,257.581 176.758 C 260.893 165.704,266.902 157.061,279.357 145.435 C 294.429 131.367,304.791 117.881,313.721 100.709 C 319.470 89.654,322.336 71.850,319.659 63.818 C 319.399 63.038,318.725 62.298,318.651 62.711 M225.517 90.534 C 215.652 93.245,209.943 105.969,214.019 116.157 C 220.485 132.318,239.070 131.455,244.825 114.727 C 249.151 102.155,237.292 87.297,225.517 90.534 M185.743 178.687 C 182.071 179.245,185.410 177.547,146.533 198.632 C 110.757 218.037,111.999 217.443,107.200 217.443 C 89.383 217.444,83.055 194.605,98.200 184.960 C 99.771 183.960,100.146 183.186,99.413 182.453 C 98.129 181.169,92.610 185.395,90.148 189.548 C 81.909 203.444,91.989 220.610,107.993 219.939 C 112.927 219.733,112.150 220.108,148.561 200.352 C 185.103 180.525,183.507 181.313,187.467 181.136 C 200.192 180.566,207.787 193.578,201.740 205.586 C 196.833 215.331,183.629 219.222,174.574 213.593 C 173.133 212.697,172.157 212.686,171.878 213.563 C 171.108 215.989,179.305 218.952,185.733 218.571 C 204.005 217.489,213.291 195.071,200.371 183.232 C 196.588 179.766,190.693 177.934,185.743 178.687 M255.240 206.711 C 252.062 224.724,242.312 239.004,222.677 254.400 C 215.879 259.730,215.025 260.778,213.644 265.478 C 210.272 276.953,212.429 289.558,219.700 300.865 C 221.518 303.692,221.176 303.695,223.560 300.831 C 237.695 283.848,248.396 254.835,254.112 218.000 C 255.768 207.326,256.600 198.998,255.240 206.711 M270.457 217.135 C 267.053 218.226,265.195 222.610,266.697 226.006 C 268.531 230.153,265.719 238.265,258.008 251.067 C 254.451 256.971,253.803 258.372,253.796 260.170 C 253.781 263.828,257.639 267.546,261.845 267.927 C 268.308 268.513,272.895 260.920,274.124 247.600 C 274.569 242.779,275.115 241.215,277.107 239.054 C 280.602 235.262,285.369 238.530,286.253 245.321 C 287.389 254.061,295.281 255.829,299.058 248.189 C 301.056 244.148,302.683 242.309,303.862 242.761 C 305.081 243.229,306.023 248.156,305.635 252.032 C 304.305 265.311,314.814 275.410,322.640 268.374 C 325.821 265.513,325.066 262.143,319.159 252.856 C 315.634 247.313,315.206 246.138,315.207 242.000 C 315.207 238.625,315.864 235.424,317.368 231.467 C 320.228 223.940,317.561 217.005,312.602 219.076 C 311.080 219.713,307.936 222.201,306.500 223.907 C 302.521 228.632,299.109 230.407,294.024 230.396 C 288.724 230.385,285.486 228.626,281.867 223.793 C 277.964 218.580,273.704 216.095,270.457 217.135 " stroke="none" fill="#fcba14" fill-rule="evenodd"></path><path id="path1" d="M244.733 33.255 C 245.063 33.318,245.603 33.318,245.933 33.255 C 246.263 33.191,245.993 33.139,245.333 33.139 C 244.673 33.139,244.403 33.191,244.733 33.255 M254.933 37.467 C 255.431 37.980,255.898 38.400,255.971 38.400 C 256.045 38.400,255.698 37.980,255.200 37.467 C 254.702 36.953,254.235 36.533,254.162 36.533 C 254.089 36.533,254.436 36.953,254.933 37.467 M229.333 37.683 C 229.333 37.729,229.723 38.119,230.200 38.550 L 231.067 39.333 230.283 38.467 C 229.553 37.659,229.333 37.477,229.333 37.683 M234.517 39.267 L 233.733 40.133 234.600 39.350 C 235.077 38.919,235.467 38.529,235.467 38.483 C 235.467 38.277,235.247 38.459,234.517 39.267 M205.143 47.600 C 205.145 48.333,205.197 48.602,205.258 48.196 C 205.319 47.791,205.318 47.191,205.254 46.863 C 205.191 46.535,205.141 46.867,205.143 47.600 M286.600 47.086 C 286.490 47.197,286.400 47.593,286.400 47.964 C 286.400 48.450,286.481 48.559,286.689 48.351 C 286.848 48.192,286.938 47.796,286.889 47.472 C 286.840 47.148,286.710 46.974,286.600 47.086 M181.667 50.800 C 181.670 51.387,181.725 51.595,181.789 51.264 C 181.852 50.932,181.850 50.452,181.783 50.197 C 181.716 49.942,181.664 50.213,181.667 50.800 M272.606 53.867 C 272.606 54.527,272.658 54.797,272.722 54.467 C 272.785 54.137,272.785 53.597,272.722 53.267 C 272.658 52.937,272.606 53.207,272.606 53.867 M271.772 55.067 C 271.747 55.360,271.651 55.900,271.560 56.267 C 271.432 56.780,271.468 56.864,271.716 56.634 C 271.896 56.467,271.990 55.935,271.929 55.434 C 271.868 54.939,271.798 54.773,271.772 55.067 M181.934 56.667 C 181.937 57.253,181.991 57.462,182.055 57.130 C 182.119 56.799,182.117 56.319,182.050 56.064 C 181.983 55.809,181.931 56.080,181.934 56.667 M181.134 58.267 C 181.137 58.853,181.191 59.062,181.255 58.730 C 181.319 58.399,181.317 57.919,181.250 57.664 C 181.183 57.409,181.131 57.680,181.134 58.267 M272.867 60.133 C 272.870 60.720,272.925 60.929,272.989 60.597 C 273.052 60.265,273.050 59.785,272.983 59.530 C 272.916 59.275,272.864 59.547,272.867 60.133 M272.067 61.733 C 272.070 62.320,272.125 62.529,272.189 62.197 C 272.252 61.865,272.250 61.385,272.183 61.130 C 272.116 60.875,272.064 61.147,272.067 61.733 M182.201 62.533 C 182.204 63.120,182.258 63.329,182.322 62.997 C 182.386 62.665,182.383 62.185,182.317 61.930 C 182.250 61.675,182.198 61.947,182.201 62.533 M305.929 62.667 C 305.929 63.180,305.983 63.390,306.050 63.133 C 306.118 62.877,306.118 62.457,306.050 62.200 C 305.983 61.943,305.929 62.153,305.929 62.667 M318.500 62.791 C 318.417 63.006,318.412 63.336,318.487 63.525 C 318.563 63.713,318.634 63.584,318.646 63.238 C 318.661 62.784,318.781 62.654,319.081 62.768 C 319.318 62.859,319.425 62.815,319.331 62.664 C 319.093 62.277,318.672 62.342,318.500 62.791 M181.401 64.133 C 181.404 64.720,181.458 64.929,181.522 64.597 C 181.586 64.265,181.583 63.785,181.517 63.530 C 181.450 63.275,181.398 63.547,181.401 64.133 M173.536 65.255 C 173.868 65.319,174.348 65.317,174.603 65.250 C 174.858 65.183,174.587 65.131,174.000 65.134 C 173.413 65.137,173.205 65.191,173.536 65.255 M185.270 65.522 C 185.601 65.586,186.081 65.583,186.336 65.517 C 186.591 65.450,186.320 65.398,185.733 65.401 C 185.147 65.404,184.938 65.458,185.270 65.522 M273.139 66.400 C 273.139 67.060,273.191 67.330,273.255 67.000 C 273.318 66.670,273.318 66.130,273.255 65.800 C 273.191 65.470,273.139 65.740,273.139 66.400 M186.467 66.324 C 186.870 66.385,187.530 66.385,187.933 66.324 C 188.337 66.263,188.007 66.213,187.200 66.213 C 186.393 66.213,186.063 66.263,186.467 66.324 M178.070 66.589 C 178.401 66.652,178.881 66.650,179.136 66.583 C 179.391 66.516,179.120 66.464,178.533 66.467 C 177.947 66.470,177.738 66.525,178.070 66.589 M272.334 68.133 C 272.337 68.720,272.391 68.929,272.455 68.597 C 272.519 68.265,272.517 67.785,272.450 67.530 C 272.383 67.275,272.331 67.547,272.334 68.133 M320.329 68.267 C 320.329 68.780,320.383 68.990,320.450 68.733 C 320.518 68.477,320.518 68.057,320.450 67.800 C 320.383 67.543,320.329 67.753,320.329 68.267 M182.462 68.533 C 182.462 69.047,182.517 69.257,182.584 69.000 C 182.651 68.743,182.651 68.323,182.584 68.067 C 182.517 67.810,182.462 68.020,182.462 68.533 M309.778 68.444 C 309.680 68.542,309.602 68.752,309.604 68.911 C 309.607 69.093,309.683 69.082,309.811 68.881 C 309.923 68.705,310.791 68.519,311.740 68.466 L 313.467 68.369 311.711 68.318 C 310.746 68.290,309.876 68.347,309.778 68.444 M181.667 70.000 C 181.670 70.587,181.725 70.795,181.789 70.464 C 181.852 70.132,181.850 69.652,181.783 69.397 C 181.716 69.142,181.664 69.413,181.667 70.000 M277.527 69.526 C 278.001 69.585,278.841 69.586,279.394 69.528 C 279.947 69.470,279.560 69.422,278.533 69.421 C 277.507 69.420,277.054 69.467,277.527 69.526 M149.943 72.400 C 149.945 73.133,149.997 73.402,150.058 72.996 C 150.119 72.591,150.118 71.991,150.054 71.663 C 149.991 71.335,149.941 71.667,149.943 72.400 M273.401 72.667 C 273.404 73.253,273.458 73.462,273.522 73.130 C 273.586 72.799,273.583 72.319,273.517 72.064 C 273.450 71.809,273.398 72.080,273.401 72.667 M143.280 73.867 C 143.280 74.673,143.330 75.003,143.391 74.600 C 143.452 74.197,143.452 73.537,143.391 73.133 C 143.330 72.730,143.280 73.060,143.280 73.867 M272.606 74.400 C 272.606 75.060,272.658 75.330,272.722 75.000 C 272.785 74.670,272.785 74.130,272.722 73.800 C 272.658 73.470,272.606 73.740,272.606 74.400 M182.734 74.533 C 182.737 75.120,182.791 75.329,182.855 74.997 C 182.919 74.665,182.917 74.185,182.850 73.930 C 182.783 73.675,182.731 73.947,182.734 74.533 M83.267 74.850 C 83.523 74.918,83.943 74.918,84.200 74.850 C 84.457 74.783,84.247 74.729,83.733 74.729 C 83.220 74.729,83.010 74.783,83.267 74.850 M181.934 76.133 C 181.937 76.720,181.991 76.929,182.055 76.597 C 182.119 76.265,182.117 75.785,182.050 75.530 C 181.983 75.275,181.931 75.547,181.934 76.133 M306.729 76.000 C 306.729 76.513,306.783 76.723,306.850 76.467 C 306.918 76.210,306.918 75.790,306.850 75.533 C 306.783 75.277,306.729 75.487,306.729 76.000 M320.329 76.800 C 320.329 77.313,320.383 77.523,320.450 77.267 C 320.518 77.010,320.518 76.590,320.450 76.333 C 320.383 76.077,320.329 76.287,320.329 76.800 M251.533 76.724 C 251.937 76.785,252.597 76.785,253.000 76.724 C 253.403 76.663,253.073 76.613,252.267 76.613 C 251.460 76.613,251.130 76.663,251.533 76.724 M143.273 77.867 C 143.273 78.527,143.325 78.797,143.388 78.467 C 143.452 78.137,143.452 77.597,143.388 77.267 C 143.325 76.937,143.273 77.207,143.273 77.867 M210.467 77.517 C 210.723 77.584,211.143 77.584,211.400 77.517 C 211.657 77.450,211.447 77.395,210.933 77.395 C 210.420 77.395,210.210 77.450,210.467 77.517 M273.667 79.067 C 273.670 79.653,273.725 79.862,273.789 79.530 C 273.852 79.199,273.850 78.719,273.783 78.464 C 273.716 78.209,273.664 78.480,273.667 79.067 M272.867 80.667 C 272.870 81.253,272.925 81.462,272.989 81.130 C 273.052 80.799,273.050 80.319,272.983 80.064 C 272.916 79.809,272.864 80.080,272.867 80.667 M100.600 80.450 C 100.857 80.518,101.277 80.518,101.533 80.450 C 101.790 80.383,101.580 80.329,101.067 80.329 C 100.553 80.329,100.343 80.383,100.600 80.450 M103.000 80.450 C 103.257 80.518,103.677 80.518,103.933 80.450 C 104.190 80.383,103.980 80.329,103.467 80.329 C 102.953 80.329,102.743 80.383,103.000 80.450 M72.800 81.733 C 72.152 82.393,71.682 82.933,71.756 82.933 C 71.829 82.933,72.419 82.393,73.067 81.733 C 73.714 81.073,74.184 80.533,74.111 80.533 C 74.038 80.533,73.448 81.073,72.800 81.733 M182.201 82.000 C 182.204 82.587,182.258 82.795,182.322 82.464 C 182.386 82.132,182.383 81.652,182.317 81.397 C 182.250 81.142,182.198 81.413,182.201 82.000 M239.850 82.467 L 239.067 83.333 239.933 82.550 C 240.410 82.119,240.800 81.729,240.800 81.683 C 240.800 81.477,240.580 81.659,239.850 82.467 M273.893 85.200 C 273.901 86.131,273.938 86.194,274.180 85.694 C 274.373 85.294,274.370 84.972,274.170 84.627 C 273.931 84.216,273.885 84.313,273.893 85.200 M273.139 86.933 C 273.139 87.593,273.191 87.863,273.255 87.533 C 273.318 87.203,273.318 86.663,273.255 86.333 C 273.191 86.003,273.139 86.273,273.139 86.933 M227.927 90.059 C 228.401 90.118,229.241 90.119,229.794 90.061 C 230.347 90.004,229.960 89.955,228.933 89.954 C 227.907 89.953,227.454 90.000,227.927 90.059 M168.267 95.817 C 168.267 95.863,168.657 96.253,169.133 96.683 L 170.000 97.467 169.217 96.600 C 168.487 95.792,168.267 95.611,168.267 95.817 M300.661 101.133 L 298.267 103.600 300.733 101.206 C 303.024 98.982,303.321 98.667,303.128 98.667 C 303.088 98.667,301.978 99.777,300.661 101.133 M163.733 106.217 C 163.733 106.263,164.123 106.653,164.600 107.083 L 165.467 107.867 164.683 107.000 C 163.953 106.192,163.733 106.011,163.733 106.217 M245.662 107.467 C 245.662 107.980,245.717 108.190,245.784 107.933 C 245.851 107.677,245.851 107.257,245.784 107.000 C 245.717 106.743,245.662 106.953,245.662 107.467 M212.334 108.933 C 212.337 109.520,212.391 109.729,212.455 109.397 C 212.519 109.065,212.517 108.585,212.450 108.330 C 212.383 108.075,212.331 108.347,212.334 108.933 M168.267 111.067 C 168.764 111.580,169.231 112.000,169.305 112.000 C 169.378 112.000,169.031 111.580,168.533 111.067 C 168.036 110.553,167.569 110.133,167.495 110.133 C 167.422 110.133,167.769 110.553,168.267 111.067 M245.662 110.933 C 245.662 111.447,245.717 111.657,245.784 111.400 C 245.851 111.143,245.851 110.723,245.784 110.467 C 245.717 110.210,245.662 110.420,245.662 110.933 M172.933 115.467 C 173.506 116.053,174.035 116.533,174.108 116.533 C 174.182 116.533,173.773 116.053,173.200 115.467 C 172.627 114.880,172.098 114.400,172.025 114.400 C 171.952 114.400,172.360 114.880,172.933 115.467 M243.520 117.739 C 243.201 118.396,242.996 118.933,243.065 118.933 C 243.245 118.933,244.323 116.767,244.202 116.647 C 244.146 116.591,243.840 117.082,243.520 117.739 M176.000 118.267 C 176.498 118.780,176.965 119.200,177.038 119.200 C 177.111 119.200,176.764 118.780,176.267 118.267 C 175.769 117.753,175.302 117.333,175.229 117.333 C 175.155 117.333,175.502 117.753,176.000 118.267 M218.400 123.333 C 219.197 124.140,219.908 124.800,219.982 124.800 C 220.055 124.800,219.463 124.140,218.667 123.333 C 217.870 122.527,217.158 121.867,217.085 121.867 C 217.012 121.867,217.603 122.527,218.400 123.333 M239.733 123.067 C 239.086 123.727,238.616 124.267,238.689 124.267 C 238.762 124.267,239.352 123.727,240.000 123.067 C 240.648 122.407,241.118 121.867,241.044 121.867 C 240.971 121.867,240.381 122.407,239.733 123.067 M182.933 124.350 C 182.933 124.396,183.323 124.786,183.800 125.217 L 184.667 126.000 183.883 125.133 C 183.153 124.325,182.933 124.144,182.933 124.350 M186.400 127.600 C 186.898 128.113,187.365 128.533,187.438 128.533 C 187.511 128.533,187.164 128.113,186.667 127.600 C 186.169 127.087,185.702 126.667,185.629 126.667 C 185.555 126.667,185.902 127.087,186.400 127.600 M192.133 133.067 C 193.889 134.827,195.385 136.267,195.458 136.267 C 195.532 136.267,194.155 134.827,192.400 133.067 C 190.645 131.307,189.148 129.867,189.075 129.867 C 189.002 129.867,190.378 131.307,192.133 133.067 M289.586 135.400 L 288.667 136.400 289.667 135.481 C 290.217 134.976,290.667 134.526,290.667 134.481 C 290.667 134.277,290.441 134.469,289.586 135.400 M222.267 136.800 C 222.840 137.387,223.368 137.867,223.442 137.867 C 223.515 137.867,223.106 137.387,222.533 136.800 C 221.960 136.213,221.432 135.733,221.358 135.733 C 221.285 135.733,221.694 136.213,222.267 136.800 M281.990 143.000 L 280.667 144.400 282.067 143.077 C 282.837 142.349,283.467 141.719,283.467 141.677 C 283.467 141.478,283.220 141.699,281.990 143.000 M242.400 143.867 C 243.345 144.820,244.178 145.600,244.251 145.600 C 244.325 145.600,243.612 144.820,242.667 143.867 C 241.722 142.913,240.889 142.133,240.815 142.133 C 240.742 142.133,241.455 142.913,242.400 143.867 M229.867 144.400 C 230.663 145.207,231.375 145.867,231.448 145.867 C 231.522 145.867,230.930 145.207,230.133 144.400 C 229.337 143.593,228.625 142.933,228.552 142.933 C 228.478 142.933,229.070 143.593,229.867 144.400 M44.600 144.984 C 44.857 145.051,45.277 145.051,45.533 144.984 C 45.790 144.917,45.580 144.862,45.067 144.862 C 44.553 144.862,44.343 144.917,44.600 144.984 M277.987 146.733 L 276.933 147.867 278.067 146.813 C 279.121 145.832,279.323 145.600,279.121 145.600 C 279.077 145.600,278.567 146.110,277.987 146.733 M171.004 146.591 C 171.409 146.653,172.009 146.651,172.337 146.588 C 172.665 146.524,172.333 146.474,171.600 146.476 C 170.867 146.478,170.598 146.530,171.004 146.591 M272.795 151.667 L 270.267 154.267 272.867 151.739 C 274.297 150.348,275.467 149.178,275.467 149.139 C 275.467 148.945,275.143 149.252,272.795 151.667 M281.333 150.800 C 280.686 151.460,280.216 152.000,280.289 152.000 C 280.362 152.000,280.952 151.460,281.600 150.800 C 282.248 150.140,282.718 149.600,282.644 149.600 C 282.571 149.600,281.981 150.140,281.333 150.800 M308.533 151.067 C 309.031 151.580,309.498 152.000,309.571 152.000 C 309.645 152.000,309.298 151.580,308.800 151.067 C 308.302 150.553,307.835 150.133,307.762 150.133 C 307.689 150.133,308.036 150.553,308.533 151.067 M121.003 150.589 C 121.335 150.652,121.815 150.650,122.070 150.583 C 122.325 150.516,122.053 150.464,121.467 150.467 C 120.880 150.470,120.671 150.525,121.003 150.589 M123.136 150.589 C 123.468 150.652,123.948 150.650,124.203 150.583 C 124.458 150.516,124.187 150.464,123.600 150.467 C 123.013 150.470,122.805 150.525,123.136 150.589 M190.133 154.800 C 190.631 155.313,191.098 155.733,191.171 155.733 C 191.245 155.733,190.898 155.313,190.400 154.800 C 189.902 154.287,189.435 153.867,189.362 153.867 C 189.289 153.867,189.636 154.287,190.133 154.800 M103.317 155.533 L 102.533 156.400 103.400 155.617 C 104.208 154.887,104.389 154.667,104.183 154.667 C 104.137 154.667,103.747 155.057,103.317 155.533 M143.189 156.333 C 143.843 157.030,144.413 157.600,144.456 157.600 C 144.656 157.600,144.444 157.361,143.267 156.256 L 142.000 155.067 143.189 156.333 M151.991 158.600 L 150.533 160.133 152.067 158.676 C 153.491 157.322,153.722 157.067,153.524 157.067 C 153.483 157.067,152.793 157.757,151.991 158.600 M290.760 169.867 C 290.760 171.113,290.806 171.623,290.862 171.000 C 290.918 170.377,290.918 169.357,290.862 168.733 C 290.806 168.110,290.760 168.620,290.760 169.867 M196.090 170.400 C 196.090 171.500,196.137 171.950,196.194 171.400 C 196.252 170.850,196.252 169.950,196.194 169.400 C 196.137 168.850,196.090 169.300,196.090 170.400 M211.262 169.867 C 211.262 170.380,211.317 170.590,211.384 170.333 C 211.451 170.077,211.451 169.657,211.384 169.400 C 211.317 169.143,211.262 169.353,211.262 169.867 M98.485 174.133 C 98.485 175.087,98.534 175.477,98.593 175.000 C 98.652 174.523,98.652 173.743,98.593 173.267 C 98.534 172.790,98.485 173.180,98.485 174.133 M309.187 173.667 L 308.133 174.800 309.267 173.746 C 310.321 172.766,310.523 172.533,310.321 172.533 C 310.277 172.533,309.767 173.043,309.187 173.667 M80.329 174.933 C 80.329 175.447,80.383 175.657,80.450 175.400 C 80.518 175.143,80.518 174.723,80.450 174.467 C 80.383 174.210,80.329 174.420,80.329 174.933 M256.831 177.453 C 256.812 178.250,256.896 178.673,257.042 178.520 C 257.177 178.378,257.191 177.799,257.072 177.200 L 256.861 176.133 256.831 177.453 M211.262 178.667 C 211.262 179.180,211.317 179.390,211.384 179.133 C 211.451 178.877,211.451 178.457,211.384 178.200 C 211.317 177.943,211.262 178.153,211.262 178.667 M185.933 178.584 C 186.190 178.651,186.610 178.651,186.867 178.584 C 187.123 178.517,186.913 178.462,186.400 178.462 C 185.887 178.462,185.677 178.517,185.933 178.584 M189.536 178.589 C 189.868 178.652,190.348 178.650,190.603 178.583 C 190.858 178.516,190.587 178.464,190.000 178.467 C 189.413 178.470,189.205 178.525,189.536 178.589 M179.667 180.419 C 178.633 180.980,178.750 181.174,179.800 180.640 C 180.805 180.128,180.983 179.996,180.644 180.011 C 180.510 180.017,180.070 180.200,179.667 180.419 M201.056 183.800 C 201.709 184.497,202.279 185.067,202.322 185.067 C 202.522 185.067,202.311 184.827,201.133 183.722 L 199.867 182.533 201.056 183.800 M173.267 183.886 C 172.270 184.427,172.330 184.652,173.333 184.133 C 173.773 183.906,174.133 183.663,174.133 183.593 C 174.133 183.422,174.105 183.431,173.267 183.886 M199.067 185.600 C 199.640 186.187,200.168 186.667,200.242 186.667 C 200.315 186.667,199.906 186.187,199.333 185.600 C 198.760 185.013,198.232 184.533,198.158 184.533 C 198.085 184.533,198.494 185.013,199.067 185.600 M315.600 185.600 C 316.173 186.187,316.702 186.667,316.775 186.667 C 316.848 186.667,316.440 186.187,315.867 185.600 C 315.294 185.013,314.765 184.533,314.692 184.533 C 314.618 184.533,315.027 185.013,315.600 185.600 M174.867 186.019 C 173.870 186.560,173.930 186.785,174.933 186.267 C 175.373 186.039,175.733 185.796,175.733 185.726 C 175.733 185.555,175.705 185.565,174.867 186.019 M251.795 186.933 C 251.795 187.447,251.850 187.657,251.917 187.400 C 251.984 187.143,251.984 186.723,251.917 186.467 C 251.850 186.210,251.795 186.420,251.795 186.933 M166.867 187.353 C 165.870 187.893,165.930 188.119,166.933 187.600 C 167.373 187.372,167.733 187.129,167.733 187.060 C 167.733 186.888,167.705 186.898,166.867 187.353 M202.052 189.730 C 202.296 190.241,202.543 190.613,202.601 190.555 C 202.723 190.433,201.913 188.800,201.731 188.800 C 201.664 188.800,201.808 189.218,202.052 189.730 M168.467 189.486 C 167.470 190.027,167.530 190.252,168.533 189.733 C 168.973 189.506,169.333 189.263,169.333 189.193 C 169.333 189.022,169.305 189.031,168.467 189.486 M157.533 192.419 C 156.536 192.960,156.597 193.185,157.600 192.667 C 158.040 192.439,158.400 192.196,158.400 192.126 C 158.400 191.955,158.371 191.965,157.533 192.419 M251.795 194.133 C 251.795 194.647,251.850 194.857,251.917 194.600 C 251.984 194.343,251.984 193.923,251.917 193.667 C 251.850 193.410,251.795 193.620,251.795 194.133 M159.133 194.553 C 158.136 195.093,158.197 195.319,159.200 194.800 C 159.640 194.572,160.000 194.329,160.000 194.260 C 160.000 194.088,159.971 194.098,159.133 194.553 M203.810 196.667 C 203.812 197.400,203.863 197.668,203.925 197.263 C 203.986 196.858,203.984 196.258,203.921 195.930 C 203.858 195.602,203.808 195.933,203.810 196.667 M256.280 199.222 C 256.083 200.567,256.056 201.496,256.209 201.649 C 256.362 201.802,256.529 201.013,256.645 199.587 C 256.886 196.617,256.689 196.420,256.280 199.222 M152.733 198.019 C 151.736 198.560,151.797 198.785,152.800 198.267 C 153.240 198.039,153.600 197.796,153.600 197.726 C 153.600 197.555,153.571 197.565,152.733 198.019 M89.688 200.133 C 89.689 201.160,89.737 201.547,89.795 200.994 C 89.852 200.441,89.851 199.601,89.792 199.127 C 89.734 198.654,89.686 199.107,89.688 200.133 M87.016 200.133 C 87.017 201.013,87.067 201.341,87.127 200.862 C 87.186 200.383,87.185 199.663,87.124 199.262 C 87.063 198.861,87.014 199.253,87.016 200.133 M149.800 199.619 C 148.803 200.160,148.864 200.385,149.867 199.867 C 150.307 199.639,150.667 199.396,150.667 199.326 C 150.667 199.155,150.638 199.165,149.800 199.619 M141.800 200.953 C 140.803 201.493,140.864 201.719,141.867 201.200 C 142.307 200.972,142.667 200.729,142.667 200.660 C 142.667 200.488,142.638 200.498,141.800 200.953 M301.450 201.400 L 300.667 202.267 301.533 201.483 C 302.341 200.753,302.523 200.533,302.317 200.533 C 302.271 200.533,301.881 200.923,301.450 201.400 M255.779 202.533 C 255.783 202.827,255.883 203.367,256.000 203.733 L 256.214 204.400 256.221 203.733 C 256.226 203.367,256.126 202.827,256.000 202.533 L 255.771 202.000 255.779 202.533 M143.400 203.086 C 142.403 203.627,142.464 203.852,143.467 203.333 C 143.907 203.106,144.267 202.863,144.267 202.793 C 144.267 202.622,144.238 202.631,143.400 203.086 M135.400 204.419 C 134.403 204.960,134.464 205.185,135.467 204.667 C 135.907 204.439,136.267 204.196,136.267 204.126 C 136.267 203.955,136.238 203.965,135.400 204.419 M255.795 205.867 C 255.795 206.380,255.850 206.590,255.917 206.333 C 255.984 206.077,255.984 205.657,255.917 205.400 C 255.850 205.143,255.795 205.353,255.795 205.867 M132.467 206.019 C 131.470 206.560,131.530 206.785,132.533 206.267 C 132.973 206.039,133.333 205.796,133.333 205.726 C 133.333 205.555,133.305 205.565,132.467 206.019 M207.529 206.667 C 207.529 207.180,207.583 207.390,207.650 207.133 C 207.718 206.877,207.718 206.457,207.650 206.200 C 207.583 205.943,207.529 206.153,207.529 206.667 M137.000 206.553 C 136.003 207.093,136.064 207.319,137.067 206.800 C 137.507 206.572,137.867 206.329,137.867 206.260 C 137.867 206.088,137.838 206.098,137.000 206.553 M134.067 208.153 C 133.070 208.693,133.130 208.919,134.133 208.400 C 134.573 208.172,134.933 207.929,134.933 207.860 C 134.933 207.688,134.905 207.698,134.067 208.153 M88.800 208.369 C 88.800 208.655,89.593 210.133,89.747 210.133 C 89.820 210.133,89.682 209.743,89.440 209.267 C 88.945 208.293,88.800 208.090,88.800 208.369 M126.067 209.486 C 125.070 210.027,125.130 210.252,126.133 209.733 C 126.573 209.506,126.933 209.263,126.933 209.193 C 126.933 209.022,126.905 209.031,126.067 209.486 M197.990 210.467 L 196.667 211.867 198.067 210.543 C 199.368 209.314,199.589 209.067,199.390 209.067 C 199.348 209.067,198.718 209.697,197.990 210.467 M207.291 212.133 C 207.292 213.307,207.339 213.753,207.396 213.126 C 207.452 212.499,207.451 211.539,207.394 210.993 C 207.337 210.447,207.290 210.960,207.291 212.133 M199.991 212.200 L 198.533 213.733 200.067 212.276 C 201.491 210.922,201.722 210.667,201.524 210.667 C 201.483 210.667,200.793 211.357,199.991 212.200 M94.533 212.267 C 95.106 212.853,95.635 213.333,95.708 213.333 C 95.782 213.333,95.373 212.853,94.800 212.267 C 94.227 211.680,93.698 211.200,93.625 211.200 C 93.552 211.200,93.960 211.680,94.533 212.267 M127.667 211.619 C 126.670 212.160,126.730 212.385,127.733 211.867 C 128.173 211.639,128.533 211.396,128.533 211.326 C 128.533 211.155,128.505 211.165,127.667 211.619 M174.987 213.120 C 174.553 213.553,174.584 213.778,175.104 213.978 C 175.448 214.109,175.478 214.068,175.244 213.786 C 175.024 213.521,175.028 213.346,175.260 213.114 C 175.432 212.941,175.513 212.800,175.440 212.800 C 175.367 212.800,175.163 212.944,174.987 213.120 M92.667 214.133 C 93.240 214.720,93.768 215.200,93.842 215.200 C 93.915 215.200,93.506 214.720,92.933 214.133 C 92.360 213.547,91.832 213.067,91.758 213.067 C 91.685 213.067,92.094 213.547,92.667 214.133 M116.733 214.553 C 115.736 215.093,115.797 215.319,116.800 214.800 C 117.240 214.572,117.600 214.329,117.600 214.260 C 117.600 214.088,117.571 214.098,116.733 214.553 M169.187 215.533 L 168.133 216.667 169.267 215.613 C 170.321 214.632,170.523 214.400,170.321 214.400 C 170.277 214.400,169.767 214.910,169.187 215.533 M121.867 216.933 C 122.663 217.740,123.375 218.400,123.448 218.400 C 123.522 218.400,122.930 217.740,122.133 216.933 C 121.337 216.127,120.625 215.467,120.552 215.467 C 120.478 215.467,121.070 216.127,121.867 216.933 M183.667 216.193 C 184.143 216.252,184.923 216.252,185.400 216.193 C 185.877 216.134,185.487 216.085,184.533 216.085 C 183.580 216.085,183.190 216.134,183.667 216.193 M106.067 217.529 C 106.690 217.585,107.710 217.585,108.333 217.529 C 108.957 217.472,108.447 217.427,107.200 217.427 C 105.953 217.427,105.443 217.472,106.067 217.529 M207.288 219.600 C 207.289 220.627,207.337 221.014,207.395 220.461 C 207.452 219.907,207.451 219.067,207.392 218.594 C 207.334 218.121,207.286 218.573,207.288 219.600 M184.070 218.858 C 184.476 218.919,185.076 218.918,185.404 218.854 C 185.732 218.791,185.400 218.741,184.667 218.743 C 183.933 218.745,183.665 218.797,184.070 218.858 M167.726 221.000 L 166.000 222.800 167.800 221.074 C 168.790 220.125,169.600 219.315,169.600 219.274 C 169.600 219.078,169.328 219.328,167.726 221.000 M106.067 220.195 C 106.690 220.251,107.710 220.251,108.333 220.195 C 108.957 220.139,108.447 220.093,107.200 220.093 C 105.953 220.093,105.443 220.139,106.067 220.195 M122.267 221.067 C 122.840 221.653,123.368 222.133,123.442 222.133 C 123.515 222.133,123.106 221.653,122.533 221.067 C 121.960 220.480,121.432 220.000,121.358 220.000 C 121.285 220.000,121.694 220.480,122.267 221.067 M125.867 220.617 C 125.867 220.663,126.257 221.053,126.733 221.483 L 127.600 222.267 126.817 221.400 C 126.087 220.592,125.867 220.411,125.867 220.617 M161.987 222.733 L 160.933 223.867 162.067 222.813 C 163.121 221.832,163.323 221.600,163.121 221.600 C 163.077 221.600,162.567 222.110,161.987 222.733 M250.177 222.278 C 249.730 223.259,249.815 223.468,250.298 222.576 C 250.524 222.160,250.659 221.770,250.598 221.709 C 250.537 221.648,250.347 221.904,250.177 222.278 M307.050 223.000 L 306.267 223.867 307.133 223.083 C 307.941 222.353,308.123 222.133,307.917 222.133 C 307.871 222.133,307.481 222.523,307.050 223.000 M265.939 223.467 C 265.939 224.127,265.991 224.397,266.055 224.067 C 266.118 223.737,266.118 223.197,266.055 222.867 C 265.991 222.537,265.939 222.807,265.939 223.467 M207.529 224.533 C 207.529 225.047,207.583 225.257,207.650 225.000 C 207.718 224.743,207.718 224.323,207.650 224.067 C 207.583 223.810,207.529 224.020,207.529 224.533 M248.400 225.867 C 248.172 226.307,248.046 226.667,248.120 226.667 C 248.193 226.667,248.439 226.307,248.667 225.867 C 248.894 225.427,249.020 225.067,248.947 225.067 C 248.874 225.067,248.628 225.427,248.400 225.867 M318.729 226.133 C 318.729 226.647,318.783 226.857,318.850 226.600 C 318.918 226.343,318.918 225.923,318.850 225.667 C 318.783 225.410,318.729 225.620,318.729 226.133 M304.117 226.467 L 303.333 227.333 304.200 226.550 C 305.008 225.820,305.189 225.600,304.983 225.600 C 304.937 225.600,304.547 225.990,304.117 226.467 M51.986 227.667 L 51.067 228.667 52.067 227.748 C 52.997 226.892,53.189 226.667,52.986 226.667 C 52.941 226.667,52.491 227.117,51.986 227.667 M232.650 233.133 L 231.867 234.000 232.733 233.217 C 233.210 232.786,233.600 232.396,233.600 232.350 C 233.600 232.144,233.380 232.325,232.650 233.133 M239.317 238.733 L 238.533 239.600 239.400 238.817 C 239.877 238.386,240.267 237.996,240.267 237.950 C 240.267 237.744,240.047 237.925,239.317 238.733 M226.250 239.533 L 225.467 240.400 226.333 239.617 C 226.810 239.186,227.200 238.796,227.200 238.750 C 227.200 238.544,226.980 238.725,226.250 239.533 M236.127 242.200 L 234.000 244.400 236.200 242.273 C 238.243 240.297,238.522 240.000,238.327 240.000 C 238.287 240.000,237.297 240.990,236.127 242.200 M231.992 246.333 L 230.267 248.133 232.067 246.408 C 233.057 245.459,233.867 244.649,233.867 244.608 C 233.867 244.411,233.595 244.661,231.992 246.333 M228.786 249.267 L 227.867 250.267 228.867 249.348 C 229.797 248.492,229.989 248.267,229.786 248.267 C 229.741 248.267,229.291 248.717,228.786 249.267 M305.676 249.733 C 305.678 250.467,305.730 250.735,305.791 250.330 C 305.853 249.924,305.851 249.324,305.788 248.996 C 305.724 248.668,305.674 249.000,305.676 249.733 M305.395 256.267 C 305.395 256.780,305.450 256.990,305.517 256.733 C 305.584 256.477,305.584 256.057,305.517 255.800 C 305.450 255.543,305.395 255.753,305.395 256.267 M68.994 256.459 C 69.467 256.518,70.307 256.519,70.861 256.461 C 71.414 256.404,71.027 256.355,70.000 256.354 C 68.973 256.353,68.521 256.400,68.994 256.459 M217.190 258.733 L 215.867 260.133 217.267 258.810 C 218.037 258.082,218.667 257.452,218.667 257.410 C 218.667 257.211,218.420 257.432,217.190 258.733 M89.867 267.333 C 90.364 267.847,90.831 268.267,90.905 268.267 C 90.978 268.267,90.631 267.847,90.133 267.333 C 89.636 266.820,89.169 266.400,89.095 266.400 C 89.022 266.400,89.369 266.820,89.867 267.333 M322.919 268.200 L 322.000 269.200 323.000 268.281 C 323.931 267.426,324.123 267.200,323.919 267.200 C 323.874 267.200,323.424 267.650,322.919 268.200 M212.067 272.933 C 212.070 273.520,212.125 273.729,212.189 273.397 C 212.252 273.065,212.250 272.585,212.183 272.330 C 212.116 272.075,212.064 272.347,212.067 272.933 M308.613 279.200 C 308.613 280.007,308.663 280.337,308.724 279.933 C 308.785 279.530,308.785 278.870,308.724 278.467 C 308.663 278.063,308.613 278.393,308.613 279.200 M212.067 279.867 C 212.070 280.453,212.125 280.662,212.189 280.330 C 212.252 279.999,212.250 279.519,212.183 279.264 C 212.116 279.009,212.064 279.280,212.067 279.867 M235.256 282.543 C 234.641 283.785,234.195 284.800,234.266 284.800 C 234.443 284.800,236.590 280.501,236.471 280.382 C 236.419 280.330,235.872 281.302,235.256 282.543 M205.158 282.533 C 205.159 283.707,205.206 284.153,205.262 283.526 C 205.319 282.899,205.318 281.939,205.261 281.393 C 205.203 280.847,205.157 281.360,205.158 282.533 M177.005 281.793 C 177.484 281.853,178.204 281.851,178.605 281.791 C 179.005 281.730,178.613 281.681,177.733 281.683 C 176.853 281.684,176.525 281.734,177.005 281.793 M183.405 281.793 C 183.884 281.853,184.604 281.851,185.005 281.791 C 185.405 281.730,185.013 281.681,184.133 281.683 C 183.253 281.684,182.925 281.734,183.405 281.793 M99.806 285.600 C 99.806 286.260,99.858 286.530,99.922 286.200 C 99.985 285.870,99.985 285.330,99.922 285.000 C 99.858 284.670,99.806 284.940,99.806 285.600 M287.800 293.258 C 288.203 293.319,288.863 293.319,289.267 293.258 C 289.670 293.197,289.340 293.147,288.533 293.147 C 287.727 293.147,287.397 293.197,287.800 293.258 M216.533 295.569 C 216.533 295.855,217.327 297.333,217.480 297.333 C 217.554 297.333,217.415 296.943,217.173 296.467 C 216.678 295.493,216.533 295.290,216.533 295.569 M221.785 302.808 C 221.374 303.170,221.143 303.467,221.272 303.467 C 221.401 303.467,221.789 303.167,222.133 302.800 C 222.930 301.952,222.754 301.956,221.785 302.808 M270.210 312.667 C 270.212 313.400,270.263 313.668,270.325 313.263 C 270.386 312.858,270.384 312.258,270.321 311.930 C 270.258 311.602,270.208 311.933,270.210 312.667 M118.733 314.050 C 118.990 314.118,119.410 314.118,119.667 314.050 C 119.923 313.983,119.713 313.929,119.200 313.929 C 118.687 313.929,118.477 313.983,118.733 314.050 M270.213 315.467 C 270.213 316.273,270.263 316.603,270.324 316.200 C 270.385 315.797,270.385 315.137,270.324 314.733 C 270.263 314.330,270.213 314.660,270.213 315.467 M222.078 364.494 C 222.488 364.754,225.234 364.721,225.502 364.453 C 225.605 364.351,224.799 364.269,223.711 364.271 C 222.577 364.273,221.880 364.368,222.078 364.494 M296.212 364.494 C 296.622 364.754,299.368 364.721,299.636 364.453 C 299.738 364.351,298.932 364.269,297.844 364.271 C 296.710 364.273,296.014 364.368,296.212 364.494 " stroke="none" fill="#d8dbc3" fill-rule="evenodd"></path><path id="path2" d="M242.200 33.745 C 239.426 34.492,236.338 36.481,233.781 39.169 C 231.946 41.097,232.068 41.072,231.104 39.710 C 227.107 34.062,217.552 32.352,211.581 36.215 C 205.535 40.125,203.803 47.024,206.914 54.794 C 207.365 55.919,207.733 56.884,207.733 56.938 C 207.733 56.991,207.013 57.419,206.133 57.888 C 197.093 62.707,199.992 76.289,210.265 77.248 C 213.041 77.508,214.009 77.060,233.333 66.576 L 251.600 56.667 254.267 56.667 C 264.575 56.667,266.319 70.425,256.593 75.014 C 254.389 76.054,250.991 76.212,248.621 75.385 C 246.452 74.629,246.453 74.625,249.085 71.067 C 250.388 69.307,251.456 67.717,251.460 67.533 C 251.469 67.098,251.028 67.103,250.860 67.540 C 250.042 69.670,239.032 82.845,236.176 85.110 C 233.973 86.857,231.681 86.112,227.528 82.300 C 226.902 81.726,226.302 81.346,226.195 81.457 C 225.572 82.101,231.668 86.362,233.773 86.753 C 235.349 87.046,238.660 84.091,243.953 77.667 C 245.191 76.163,246.226 74.933,246.252 74.933 C 246.278 74.933,246.797 75.173,247.404 75.467 C 254.098 78.701,262.311 74.323,263.458 66.908 C 264.363 61.062,260.175 55.982,254.400 55.920 C 251.831 55.893,251.967 55.828,232.560 66.347 C 213.528 76.664,212.731 77.029,210.044 76.678 C 200.357 75.410,198.003 62.657,206.648 58.276 C 208.309 57.434,208.159 57.410,208.774 58.616 C 209.059 59.175,210.052 60.635,210.980 61.860 C 213.267 64.880,213.258 64.870,213.611 64.752 C 213.791 64.692,213.365 63.973,212.608 63.057 C 205.260 54.170,203.924 44.973,209.122 39.067 C 214.737 32.688,225.441 33.342,230.896 40.398 L 232.059 41.902 233.908 39.896 C 240.267 32.995,247.891 32.081,254.063 37.480 C 257.120 40.154,258.462 46.186,256.904 50.247 C 256.770 50.596,256.820 50.705,257.076 50.619 C 257.860 50.358,258.365 45.869,257.896 43.333 C 256.654 36.621,248.965 31.924,242.200 33.745 M146.597 38.423 C 140.069 39.113,130.536 43.766,130.371 46.343 C 130.355 46.594,130.311 48.780,130.275 51.200 C 130.096 62.949,127.098 68.526,118.018 74.001 C 115.955 75.245,113.234 76.901,111.972 77.681 C 105.071 81.947,97.062 81.469,87.242 76.206 C 83.695 74.305,83.217 74.375,78.584 77.487 C 73.024 81.220,69.586 85.103,67.004 90.564 C 65.475 93.799,65.559 94.976,67.529 97.906 C 71.850 104.333,73.969 111.832,73.094 117.600 C 72.841 119.267,72.352 120.489,70.155 124.933 C 68.706 127.867,67.025 131.407,66.419 132.800 C 63.227 140.149,54.649 145.058,44.981 145.068 C 41.499 145.072,40.493 145.944,38.349 150.817 C 35.646 156.964,34.877 161.259,35.452 167.001 C 35.941 171.886,36.261 172.380,40.000 174.019 C 47.191 177.170,52.643 181.896,55.360 187.333 C 56.610 189.836,56.652 190.027,57.342 196.400 C 57.517 198.013,57.888 200.653,58.168 202.267 C 59.505 209.990,59.600 210.998,59.250 213.769 C 58.418 220.360,55.300 225.424,48.846 230.667 C 45.364 233.495,45.152 234.205,46.259 239.323 C 47.769 246.308,49.898 250.390,54.602 255.321 C 57.109 257.947,57.777 258.159,61.138 257.392 C 72.967 254.693,80.753 256.605,86.952 263.733 C 88.164 265.127,90.553 267.707,92.261 269.467 C 100.270 277.717,101.797 284.517,98.259 296.172 C 97.049 300.159,97.208 300.612,101.245 304.667 C 105.479 308.920,109.556 311.406,114.777 312.919 C 120.118 314.467,120.347 314.409,124.162 310.533 C 131.177 303.406,138.896 299.923,144.267 301.460 C 148.694 302.727,156.306 304.549,159.333 305.066 C 167.426 306.449,172.910 312.021,176.525 322.533 C 178.197 327.394,178.312 327.504,182.746 328.445 C 189.172 329.809,194.483 329.573,200.243 327.670 C 205.215 326.026,205.555 325.623,206.268 320.533 C 207.248 313.534,209.176 308.831,212.494 305.343 C 213.814 303.955,213.804 304.029,212.796 303.063 C 208.309 298.764,204.913 289.467,205.117 282.038 L 205.200 279.029 202.400 279.640 C 132.798 294.822,69.813 234.721,81.494 164.270 C 87.079 130.585,110.549 100.941,141.793 88.109 C 144.744 86.897,144.566 87.206,143.930 84.400 C 140.979 71.383,146.095 51.630,155.511 39.682 L 156.287 38.697 155.277 38.417 C 154.123 38.097,149.655 38.100,146.597 38.423 M286.297 40.600 C 286.206 41.663,285.760 48.473,285.304 55.733 C 284.849 62.993,284.459 68.949,284.438 68.968 C 284.002 69.367,282.651 68.586,282.255 67.707 C 281.669 66.408,281.512 66.410,280.774 67.723 L 280.180 68.779 278.158 68.856 L 276.135 68.933 275.159 78.220 C 274.226 87.097,273.870 89.373,273.864 86.511 C 273.847 79.306,272.213 47.964,271.872 48.306 C 271.769 48.408,269.600 67.490,269.600 68.287 C 269.600 68.405,269.150 68.538,268.600 68.584 C 267.679 68.660,267.533 68.792,266.741 70.267 L 265.882 71.867 265.874 68.733 C 265.870 66.827,265.762 65.600,265.600 65.600 C 265.434 65.600,265.333 67.111,265.333 69.600 C 265.333 74.264,265.388 74.325,266.872 71.333 L 267.996 69.067 269.065 69.067 C 269.742 69.067,270.133 68.945,270.133 68.733 C 270.134 67.777,271.727 54.050,271.853 53.925 C 271.934 53.844,272.000 54.109,272.000 54.514 C 272.000 56.674,273.644 93.200,273.746 93.302 C 274.077 93.632,274.269 92.239,275.413 81.222 L 276.647 69.333 278.564 69.333 C 280.415 69.333,280.499 69.305,281.001 68.512 L 281.522 67.690 282.102 68.674 C 282.523 69.388,282.819 69.622,283.180 69.528 C 283.563 69.428,283.782 69.651,284.131 70.499 C 284.848 72.244,284.954 71.429,285.749 58.000 C 286.148 51.253,286.553 45.644,286.648 45.536 C 286.787 45.378,288.301 66.857,288.274 68.600 C 288.268 68.982,288.504 69.067,289.573 69.067 L 290.880 69.067 291.359 67.733 C 291.956 66.075,292.115 66.071,292.657 67.705 C 293.164 69.231,293.376 69.324,296.333 69.330 L 298.398 69.333 298.762 68.467 L 299.126 67.600 299.305 69.467 C 299.765 74.240,299.806 74.296,300.900 71.592 C 301.523 70.055,301.587 69.992,302.769 69.756 C 303.861 69.538,304.006 69.424,304.120 68.689 C 304.268 67.735,305.335 55.316,305.334 54.556 C 305.334 54.274,305.405 54.116,305.492 54.203 C 305.579 54.290,306.089 61.632,306.625 70.518 C 307.213 80.254,307.706 86.700,307.867 86.738 C 308.068 86.785,310.259 71.679,310.382 69.400 C 310.395 69.157,311.124 69.067,313.082 69.067 C 314.803 69.067,315.706 68.971,315.600 68.800 C 315.345 68.388,309.869 68.452,309.856 68.867 C 309.802 70.531,308.043 82.377,307.926 81.867 C 307.841 81.500,307.346 73.893,306.825 64.962 C 305.634 44.531,305.675 44.653,304.523 58.027 C 303.487 70.050,303.700 68.971,302.327 69.179 C 301.323 69.331,301.144 69.473,300.686 70.475 C 300.093 71.772,300.120 71.848,299.794 67.927 C 299.565 65.171,299.296 64.940,298.623 66.923 C 297.957 68.881,297.962 68.878,295.598 68.623 L 293.535 68.400 292.870 66.600 C 292.505 65.610,292.114 64.800,292.001 64.800 C 291.889 64.800,291.512 65.610,291.165 66.600 C 290.412 68.744,288.800 69.523,288.800 67.742 C 288.800 66.814,287.304 43.594,287.051 40.600 C 286.961 39.537,286.792 38.667,286.675 38.667 C 286.558 38.667,286.388 39.537,286.297 40.600 M193.333 41.269 C 193.333 41.949,192.051 61.386,191.859 63.618 C 191.666 65.867,190.581 66.276,189.889 64.362 C 189.487 63.249,189.077 63.312,188.663 64.549 C 188.359 65.456,188.334 65.468,186.511 65.600 L 184.667 65.733 183.962 72.667 C 183.575 76.480,183.201 79.900,183.132 80.267 C 182.973 81.109,183.045 82.368,182.179 63.755 C 181.737 54.250,181.364 48.409,181.196 48.354 C 181.027 48.298,180.638 51.127,180.170 55.799 C 179.755 59.943,179.351 63.897,179.272 64.586 C 179.130 65.834,179.125 65.840,178.042 65.920 C 177.137 65.987,176.926 66.112,176.783 66.667 C 176.567 67.508,176.306 66.320,176.200 64.021 C 176.121 62.316,175.609 61.934,175.351 63.388 C 174.992 65.414,175.097 65.333,172.822 65.333 L 170.747 65.333 170.111 63.733 C 169.326 61.755,169.191 61.749,168.645 63.667 C 168.272 64.973,167.778 65.994,167.715 65.587 C 167.705 65.521,167.255 60.317,166.715 54.022 C 166.110 46.973,165.624 42.541,165.448 42.483 C 165.255 42.418,164.922 46.221,164.423 54.194 C 163.652 66.520,163.578 67.227,163.172 66.172 C 163.019 65.775,162.786 65.599,162.539 65.694 C 162.267 65.799,161.976 65.462,161.580 64.589 C 160.974 63.249,160.801 63.328,160.416 65.124 C 160.262 65.844,160.249 65.848,157.664 65.924 C 154.180 66.026,154.273 66.511,157.795 66.609 L 160.524 66.685 160.882 65.809 L 161.241 64.933 161.425 65.667 C 161.545 66.140,161.787 66.400,162.109 66.400 C 162.443 66.400,162.750 66.754,163.036 67.467 C 163.634 68.964,163.933 68.798,164.115 66.867 C 164.260 65.338,165.306 49.583,165.354 48.199 C 165.411 46.577,165.690 48.967,166.365 56.853 C 166.772 61.607,167.193 65.639,167.301 65.815 C 167.773 66.577,168.532 66.147,168.856 64.933 C 169.251 63.456,169.347 63.449,170.007 64.850 L 170.533 65.967 172.929 65.899 C 174.246 65.861,175.399 65.710,175.490 65.563 C 175.672 65.268,176.000 67.287,176.000 68.704 C 176.000 70.108,176.488 69.756,176.976 68.000 L 177.421 66.400 178.540 66.400 L 179.659 66.400 179.806 65.133 C 179.886 64.437,180.167 61.620,180.428 58.874 C 180.690 56.129,180.964 53.941,181.036 54.014 C 181.108 54.086,181.491 61.349,181.887 70.154 C 182.797 90.372,182.751 90.242,184.125 76.533 C 185.294 64.864,184.940 66.133,187.029 66.133 C 188.634 66.133,188.753 66.091,188.910 65.467 C 189.125 64.607,189.496 64.614,189.713 65.482 C 189.841 65.991,190.031 66.143,190.464 66.082 C 190.931 66.016,191.098 66.191,191.322 66.981 C 191.475 67.520,191.720 68.000,191.867 68.048 C 192.071 68.113,193.419 51.422,193.582 46.822 C 193.641 45.137,193.902 47.609,194.548 56.000 C 195.339 66.274,195.247 65.781,196.395 65.910 C 197.199 66.001,197.856 65.099,198.514 63.000 C 198.894 61.788,198.180 62.444,197.566 63.870 C 197.071 65.022,196.818 65.326,196.400 65.270 C 195.892 65.203,195.820 64.621,194.883 53.067 C 193.744 39.016,193.930 40.800,193.600 40.800 C 193.453 40.800,193.333 41.011,193.333 41.269 M290.313 145.856 C 283.422 147.714,277.984 153.238,277.656 158.711 L 277.534 160.754 279.007 163.511 C 283.491 171.900,283.143 179.791,277.603 195.345 C 274.420 204.279,274.571 206.993,278.478 211.124 C 287.667 220.840,309.116 216.812,318.544 203.599 C 323.949 196.025,320.557 187.582,309.600 181.337 C 304.915 178.666,304.768 177.828,308.364 174.296 C 311.816 170.905,313.113 168.150,313.495 163.403 C 314.375 152.477,301.605 142.812,290.313 145.856 M167.923 146.957 C 161.828 147.849,155.077 151.769,149.404 157.712 L 146.725 160.517 145.108 158.562 C 134.571 145.823,114.790 144.400,103.613 155.577 C 97.563 161.627,94.881 170.283,96.377 178.933 C 96.962 182.317,97.021 182.481,97.557 182.238 C 97.801 182.127,98.340 182.042,98.755 182.048 C 99.396 182.057,99.486 181.975,99.353 181.496 C 91.754 154.236,127.032 138.536,144.290 161.498 C 146.603 164.575,146.670 164.581,148.920 161.882 C 160.452 148.057,173.856 145.400,185.976 154.538 C 192.740 159.637,195.092 168.048,192.625 178.314 C 192.498 178.841,193.611 179.456,194.709 179.465 C 195.802 179.474,196.218 168.019,195.263 164.206 C 192.509 153.213,179.832 145.215,167.923 146.957 M297.469 157.960 C 302.785 160.436,303.050 168.961,297.913 172.230 C 293.534 175.017,290.667 174.174,290.667 170.100 C 290.667 167.288,290.343 165.617,289.261 162.853 C 288.474 160.840,288.461 160.744,288.880 159.866 C 289.988 157.543,294.448 156.554,297.469 157.960 M99.733 183.960 C 99.733 184.133,99.325 184.470,98.827 184.708 L 97.921 185.140 98.429 186.616 C 100.499 192.633,108.760 205.485,111.501 206.952 C 112.813 207.654,113.666 205.690,112.504 204.641 C 109.351 201.792,103.552 192.713,101.192 186.932 C 99.898 183.762,99.733 183.426,99.733 183.960 M296.572 187.197 C 303.128 189.250,306.304 194.216,303.877 198.618 C 301.229 203.421,293.131 207.209,289.944 205.136 C 289.032 204.542,288.987 203.951,289.631 201.004 C 290.129 198.724,290.232 197.412,290.248 193.147 C 290.259 190.114,290.375 187.920,290.533 187.764 C 291.727 186.583,293.945 186.375,296.572 187.197 M180.268 202.173 C 173.778 212.720,150.271 235.215,145.759 235.197 C 142.873 235.185,132.531 227.389,123.037 218.069 L 120.608 215.685 119.439 216.281 L 118.271 216.877 121.869 220.341 C 134.197 232.213,143.602 238.644,146.950 237.491 C 152.102 235.716,173.805 216.576,172.278 215.154 C 171.672 214.589,171.564 213.610,172.053 213.120 C 172.441 212.732,173.771 212.696,174.000 213.067 C 174.379 213.679,174.972 213.181,177.254 210.333 C 183.221 202.885,184.233 200.800,181.880 200.800 C 181.243 200.800,180.969 201.034,180.268 202.173 M281.600 263.218 C 274.263 264.314,272.012 268.003,273.555 276.405 C 275.107 284.857,274.885 289.781,272.529 299.200 C 268.013 317.252,270.247 326.173,279.779 328.161 C 295.121 331.360,307.059 328.095,311.214 319.564 C 314.310 313.207,305.451 305.530,299.659 309.551 C 294.582 313.077,288.585 313.186,285.078 309.816 C 279.486 304.442,287.455 297.726,294.805 301.619 C 297.423 303.007,298.930 303.320,301.107 302.929 C 307.814 301.726,309.535 296.967,304.933 292.354 C 302.039 289.454,300.259 289.287,295.621 291.481 C 290.101 294.093,285.591 293.978,282.700 291.151 C 278.275 286.825,283.776 280.778,290.072 283.047 C 302.704 287.600,304.210 287.860,306.282 285.852 C 308.630 283.576,309.236 278.166,307.543 274.590 C 304.237 267.611,291.008 261.812,281.600 263.218 " stroke="none" fill="#247cc4" fill-rule="evenodd"></path><path id="path3" d="M217.667 34.050 C 217.923 34.118,218.343 34.118,218.600 34.050 C 218.857 33.983,218.647 33.929,218.133 33.929 C 217.620 33.929,217.410 33.983,217.667 34.050 M219.800 34.050 C 220.057 34.118,220.477 34.118,220.733 34.050 C 220.990 33.983,220.780 33.929,220.267 33.929 C 219.753 33.929,219.543 33.983,219.800 34.050 M244.600 34.058 C 245.003 34.119,245.663 34.119,246.067 34.058 C 246.470 33.997,246.140 33.947,245.333 33.947 C 244.527 33.947,244.197 33.997,244.600 34.058 M254.400 38.000 C 254.898 38.513,255.365 38.933,255.438 38.933 C 255.511 38.933,255.164 38.513,254.667 38.000 C 254.169 37.487,253.702 37.067,253.629 37.067 C 253.555 37.067,253.902 37.487,254.400 38.000 M233.987 38.733 L 232.933 39.867 234.067 38.813 C 235.121 37.832,235.323 37.600,235.121 37.600 C 235.077 37.600,234.567 38.110,233.987 38.733 M147.267 38.317 C 147.523 38.384,147.943 38.384,148.200 38.317 C 148.457 38.250,148.247 38.195,147.733 38.195 C 147.220 38.195,147.010 38.250,147.267 38.317 M286.201 39.867 C 286.204 40.453,286.258 40.662,286.322 40.330 C 286.386 39.999,286.383 39.519,286.317 39.264 C 286.250 39.009,286.198 39.280,286.201 39.867 M286.995 39.733 C 286.995 40.247,287.050 40.457,287.117 40.200 C 287.184 39.943,287.184 39.523,287.117 39.267 C 287.050 39.010,286.995 39.220,286.995 39.733 M193.502 40.713 C 193.669 40.834,193.871 41.173,193.952 41.467 C 194.067 41.887,194.088 41.863,194.049 41.354 C 194.022 40.999,193.820 40.660,193.600 40.601 C 193.336 40.529,193.303 40.567,193.502 40.713 M193.129 42.667 C 193.129 43.180,193.183 43.390,193.250 43.133 C 193.318 42.877,193.318 42.457,193.250 42.200 C 193.183 41.943,193.129 42.153,193.129 42.667 M287.267 43.867 C 287.270 44.453,287.325 44.662,287.389 44.330 C 287.452 43.999,287.450 43.519,287.383 43.264 C 287.316 43.009,287.264 43.280,287.267 43.867 M285.934 44.133 C 285.937 44.720,285.991 44.929,286.055 44.597 C 286.119 44.265,286.117 43.785,286.050 43.530 C 285.983 43.275,285.931 43.547,285.934 44.133 M164.867 45.200 C 164.870 45.787,164.925 45.995,164.989 45.664 C 165.052 45.332,165.050 44.852,164.983 44.597 C 164.916 44.342,164.864 44.613,164.867 45.200 M257.410 45.733 C 257.412 46.467,257.463 46.735,257.525 46.330 C 257.586 45.924,257.584 45.324,257.521 44.996 C 257.458 44.668,257.408 45.000,257.410 45.733 M286.600 45.486 C 286.490 45.597,286.400 46.053,286.400 46.498 C 286.400 47.076,286.482 47.225,286.688 47.019 C 286.846 46.861,286.936 46.406,286.888 46.007 C 286.839 45.608,286.710 45.374,286.600 45.486 M192.867 46.800 C 192.870 47.387,192.925 47.595,192.989 47.264 C 193.052 46.932,193.050 46.452,192.983 46.197 C 192.916 45.942,192.864 46.213,192.867 46.800 M205.954 47.600 C 205.955 48.627,206.004 49.014,206.061 48.461 C 206.119 47.907,206.118 47.067,206.059 46.594 C 206.000 46.121,205.953 46.573,205.954 47.600 M287.529 48.000 C 287.529 48.513,287.583 48.723,287.650 48.467 C 287.718 48.210,287.718 47.790,287.650 47.533 C 287.583 47.277,287.529 47.487,287.529 48.000 M285.662 48.267 C 285.662 48.780,285.717 48.990,285.784 48.733 C 285.851 48.477,285.851 48.057,285.784 47.800 C 285.717 47.543,285.662 47.753,285.662 48.267 M193.395 49.067 C 193.395 49.580,193.450 49.790,193.517 49.533 C 193.584 49.277,193.584 48.857,193.517 48.600 C 193.450 48.343,193.395 48.553,193.395 49.067 M164.595 49.333 C 164.595 49.847,164.650 50.057,164.717 49.800 C 164.784 49.543,164.784 49.123,164.717 48.867 C 164.650 48.610,164.595 48.820,164.595 49.333 M272.347 49.867 C 272.347 50.673,272.397 51.003,272.458 50.600 C 272.519 50.197,272.519 49.537,272.458 49.133 C 272.397 48.730,272.347 49.060,272.347 49.867 M193.929 49.600 C 193.929 50.113,193.983 50.323,194.050 50.067 C 194.118 49.810,194.118 49.390,194.050 49.133 C 193.983 48.877,193.929 49.087,193.929 49.600 M305.934 49.733 C 305.937 50.320,305.991 50.529,306.055 50.197 C 306.119 49.865,306.117 49.385,306.050 49.130 C 305.983 48.875,305.931 49.147,305.934 49.733 M130.227 51.200 C 130.227 52.447,130.272 52.957,130.329 52.333 C 130.385 51.710,130.385 50.690,130.329 50.067 C 130.272 49.443,130.227 49.953,130.227 51.200 M286.995 50.133 C 286.995 50.647,287.050 50.857,287.117 50.600 C 287.184 50.343,287.184 49.923,287.117 49.667 C 287.050 49.410,286.995 49.620,286.995 50.133 M286.201 50.533 C 286.204 51.120,286.258 51.329,286.322 50.997 C 286.386 50.665,286.383 50.185,286.317 49.930 C 286.250 49.675,286.198 49.947,286.201 50.533 M192.601 50.800 C 192.604 51.387,192.658 51.595,192.722 51.264 C 192.786 50.932,192.783 50.452,192.717 50.197 C 192.650 49.942,192.598 50.213,192.601 50.800 M165.129 51.467 C 165.129 51.980,165.183 52.190,165.250 51.933 C 165.318 51.677,165.318 51.257,165.250 51.000 C 165.183 50.743,165.129 50.953,165.129 51.467 M287.795 52.000 C 287.795 52.513,287.850 52.723,287.917 52.467 C 287.984 52.210,287.984 51.790,287.917 51.533 C 287.850 51.277,287.795 51.487,287.795 52.000 M181.676 52.933 C 181.678 53.667,181.730 53.935,181.791 53.530 C 181.853 53.124,181.851 52.524,181.788 52.196 C 181.724 51.868,181.674 52.200,181.676 52.933 M285.395 52.533 C 285.395 53.047,285.450 53.257,285.517 53.000 C 285.584 52.743,285.584 52.323,285.517 52.067 C 285.450 51.810,285.395 52.020,285.395 52.533 M193.129 53.067 C 193.129 53.580,193.183 53.790,193.250 53.533 C 193.318 53.277,193.318 52.857,193.250 52.600 C 193.183 52.343,193.129 52.553,193.129 53.067 M164.329 53.333 C 164.329 53.847,164.383 54.057,164.450 53.800 C 164.518 53.543,164.518 53.123,164.450 52.867 C 164.383 52.610,164.329 52.820,164.329 53.333 M287.262 54.133 C 287.262 54.647,287.317 54.857,287.384 54.600 C 287.451 54.343,287.451 53.923,287.384 53.667 C 287.317 53.410,287.262 53.620,287.262 54.133 M306.201 54.267 C 306.204 54.853,306.258 55.062,306.322 54.730 C 306.386 54.399,306.383 53.919,306.317 53.664 C 306.250 53.409,306.198 53.680,306.201 54.267 M180.996 55.467 C 181.076 56.420,181.185 57.250,181.237 57.311 C 181.423 57.526,181.277 55.058,181.065 54.400 C 180.936 54.000,180.909 54.427,180.996 55.467 M285.934 54.800 C 285.937 55.387,285.991 55.595,286.055 55.264 C 286.119 54.932,286.117 54.452,286.050 54.197 C 285.983 53.942,285.931 54.213,285.934 54.800 M192.329 54.933 C 192.329 55.447,192.383 55.657,192.450 55.400 C 192.518 55.143,192.518 54.723,192.450 54.467 C 192.383 54.210,192.329 54.420,192.329 54.933 M164.862 55.467 C 164.862 55.980,164.917 56.190,164.984 55.933 C 165.051 55.677,165.051 55.257,164.984 55.000 C 164.917 54.743,164.862 54.953,164.862 55.467 M272.610 56.133 C 272.612 56.867,272.663 57.135,272.725 56.730 C 272.786 56.324,272.784 55.724,272.721 55.396 C 272.658 55.068,272.608 55.400,272.610 56.133 M288.062 56.000 C 288.062 56.513,288.117 56.723,288.184 56.467 C 288.251 56.210,288.251 55.790,288.184 55.533 C 288.117 55.277,288.062 55.487,288.062 56.000 M285.134 56.667 C 285.137 57.253,285.191 57.462,285.255 57.130 C 285.319 56.799,285.317 56.319,285.250 56.064 C 285.183 55.809,285.131 56.080,285.134 56.667 M305.667 56.667 C 305.670 57.253,305.725 57.462,305.789 57.130 C 305.852 56.799,305.850 56.319,305.783 56.064 C 305.716 55.809,305.664 56.080,305.667 56.667 M192.862 57.067 C 192.862 57.580,192.917 57.790,192.984 57.533 C 193.051 57.277,193.051 56.857,192.984 56.600 C 192.917 56.343,192.862 56.553,192.862 57.067 M164.062 57.333 C 164.062 57.847,164.117 58.057,164.184 57.800 C 164.251 57.543,164.251 57.123,164.184 56.867 C 164.117 56.610,164.062 56.820,164.062 57.333 M195.262 57.867 C 195.262 58.380,195.317 58.590,195.384 58.333 C 195.451 58.077,195.451 57.657,195.384 57.400 C 195.317 57.143,195.262 57.353,195.262 57.867 M287.534 58.267 C 287.537 58.853,287.591 59.062,287.655 58.730 C 287.719 58.399,287.717 57.919,287.650 57.664 C 287.583 57.409,287.531 57.680,287.534 58.267 M181.943 58.800 C 181.945 59.533,181.997 59.802,182.058 59.396 C 182.119 58.991,182.118 58.391,182.054 58.063 C 181.991 57.735,181.941 58.067,181.943 58.800 M306.467 58.533 C 306.470 59.120,306.525 59.329,306.589 58.997 C 306.652 58.665,306.650 58.185,306.583 57.930 C 306.516 57.675,306.464 57.947,306.467 58.533 M192.062 58.933 C 192.062 59.447,192.117 59.657,192.184 59.400 C 192.251 59.143,192.251 58.723,192.184 58.467 C 192.117 58.210,192.062 58.420,192.062 58.933 M272.080 59.467 C 272.080 60.273,272.130 60.603,272.191 60.200 C 272.252 59.797,272.252 59.137,272.191 58.733 C 272.130 58.330,272.080 58.660,272.080 59.467 M285.667 59.067 C 285.670 59.653,285.725 59.862,285.789 59.530 C 285.852 59.199,285.850 58.719,285.783 58.464 C 285.716 58.209,285.664 58.480,285.667 59.067 M164.601 59.600 C 164.604 60.187,164.658 60.395,164.722 60.064 C 164.786 59.732,164.783 59.252,164.717 58.997 C 164.650 58.742,164.598 59.013,164.601 59.600 M203.986 60.200 L 203.067 61.200 204.067 60.281 C 204.997 59.426,205.189 59.200,204.986 59.200 C 204.941 59.200,204.491 59.650,203.986 60.200 M288.334 60.133 C 288.337 60.720,288.391 60.929,288.455 60.597 C 288.519 60.265,288.517 59.785,288.450 59.530 C 288.383 59.275,288.331 59.547,288.334 60.133 M284.867 60.933 C 284.870 61.520,284.925 61.729,284.989 61.397 C 285.052 61.065,285.050 60.585,284.983 60.330 C 284.916 60.075,284.864 60.347,284.867 60.933 M192.595 61.067 C 192.595 61.580,192.650 61.790,192.717 61.533 C 192.784 61.277,192.784 60.857,192.717 60.600 C 192.650 60.343,192.595 60.553,192.595 61.067 M305.929 61.067 C 305.929 61.580,305.983 61.790,306.050 61.533 C 306.118 61.277,306.118 60.857,306.050 60.600 C 305.983 60.343,305.929 60.553,305.929 61.067 M163.801 61.467 C 163.804 62.053,163.858 62.262,163.922 61.930 C 163.986 61.599,163.983 61.119,163.917 60.864 C 163.850 60.609,163.798 60.880,163.801 61.467 M181.410 62.000 C 181.412 62.733,181.463 63.002,181.525 62.596 C 181.586 62.191,181.584 61.591,181.521 61.263 C 181.458 60.935,181.408 61.267,181.410 62.000 M272.880 62.400 C 272.880 63.207,272.930 63.537,272.991 63.133 C 273.052 62.730,273.052 62.070,272.991 61.667 C 272.930 61.263,272.880 61.593,272.880 62.400 M287.795 62.400 C 287.795 62.913,287.850 63.123,287.917 62.867 C 287.984 62.610,287.984 62.190,287.917 61.933 C 287.850 61.677,287.795 61.887,287.795 62.400 M191.795 62.933 C 191.795 63.447,191.850 63.657,191.917 63.400 C 191.984 63.143,191.984 62.723,191.917 62.467 C 191.850 62.210,191.795 62.420,191.795 62.933 M306.734 63.067 C 306.737 63.653,306.791 63.862,306.855 63.530 C 306.919 63.199,306.917 62.719,306.850 62.464 C 306.783 62.209,306.731 62.480,306.734 63.067 M285.395 63.200 C 285.395 63.713,285.450 63.923,285.517 63.667 C 285.584 63.410,285.584 62.990,285.517 62.733 C 285.450 62.477,285.395 62.687,285.395 63.200 M164.329 63.733 C 164.329 64.247,164.383 64.457,164.450 64.200 C 164.518 63.943,164.518 63.523,164.450 63.267 C 164.383 63.010,164.329 63.220,164.329 63.733 M182.210 64.667 C 182.212 65.400,182.263 65.668,182.325 65.263 C 182.386 64.858,182.384 64.258,182.321 63.930 C 182.258 63.602,182.208 63.933,182.210 64.667 M288.595 64.267 C 288.595 64.780,288.650 64.990,288.717 64.733 C 288.784 64.477,288.784 64.057,288.717 63.800 C 288.650 63.543,288.595 63.753,288.595 64.267 M192.329 65.067 C 192.329 65.580,192.383 65.790,192.450 65.533 C 192.518 65.277,192.518 64.857,192.450 64.600 C 192.383 64.343,192.329 64.553,192.329 65.067 M284.595 65.067 C 284.595 65.580,284.650 65.790,284.717 65.533 C 284.784 65.277,284.784 64.857,284.717 64.600 C 284.650 64.343,284.595 64.553,284.595 65.067 M272.347 65.867 C 272.347 66.673,272.397 67.003,272.458 66.600 C 272.519 66.197,272.519 65.537,272.458 65.133 C 272.397 64.730,272.347 65.060,272.347 65.867 M306.201 65.467 C 306.204 66.053,306.258 66.262,306.322 65.930 C 306.386 65.599,306.383 65.119,306.317 64.864 C 306.250 64.609,306.198 64.880,306.201 65.467 M163.446 65.666 C 163.366 66.240,163.407 66.566,163.541 66.432 C 163.670 66.304,163.732 65.854,163.680 65.432 C 163.592 64.728,163.573 64.746,163.446 65.666 M176.329 65.600 C 176.329 66.113,176.383 66.323,176.450 66.067 C 176.518 65.810,176.518 65.390,176.450 65.133 C 176.383 64.877,176.329 65.087,176.329 65.600 M187.467 65.333 L 186.533 65.530 187.384 65.565 C 187.852 65.584,188.309 65.480,188.400 65.333 C 188.491 65.187,188.528 65.082,188.482 65.102 C 188.437 65.121,187.980 65.225,187.467 65.333 M265.184 65.679 C 265.111 65.869,265.085 67.759,265.127 69.879 L 265.202 73.733 265.334 69.533 C 265.464 65.402,265.448 64.990,265.184 65.679 M176.968 65.811 C 176.896 65.927,177.279 65.978,177.819 65.925 C 179.294 65.779,179.470 65.645,178.216 65.621 C 177.601 65.609,177.039 65.695,176.968 65.811 M195.428 65.934 C 195.562 66.069,195.956 66.134,196.303 66.079 C 196.836 65.995,196.799 65.958,196.058 65.835 C 195.528 65.747,195.280 65.786,195.428 65.934 M288.062 66.400 C 288.062 66.913,288.117 67.123,288.184 66.867 C 288.251 66.610,288.251 66.190,288.184 65.933 C 288.117 65.677,288.062 65.887,288.062 66.400 M171.933 66.062 C 172.557 66.118,173.577 66.118,174.200 66.062 C 174.823 66.006,174.313 65.960,173.067 65.960 C 171.820 65.960,171.310 66.006,171.933 66.062 M181.676 67.867 C 181.678 68.600,181.730 68.868,181.791 68.463 C 181.853 68.058,181.851 67.458,181.788 67.130 C 181.724 66.802,181.674 67.133,181.676 67.867 M285.129 67.467 C 285.129 67.980,285.183 68.190,285.250 67.933 C 285.318 67.677,285.318 67.257,285.250 67.000 C 285.183 66.743,285.129 66.953,285.129 67.467 M307.001 67.600 C 307.004 68.187,307.058 68.395,307.122 68.064 C 307.186 67.732,307.183 67.252,307.117 66.997 C 307.050 66.742,306.998 67.013,307.001 67.600 M164.040 67.695 C 164.007 68.430,163.917 68.559,163.533 68.413 C 163.159 68.270,163.133 68.302,163.400 68.571 C 163.889 69.063,164.333 68.500,164.194 67.566 C 164.085 66.835,164.078 66.841,164.040 67.695 M175.801 67.867 C 175.804 68.453,175.858 68.662,175.922 68.330 C 175.986 67.999,175.983 67.519,175.917 67.264 C 175.850 67.009,175.798 67.280,175.801 67.867 M273.143 68.667 C 273.145 69.400,273.197 69.668,273.258 69.263 C 273.319 68.858,273.318 68.258,273.254 67.930 C 273.191 67.602,273.141 67.933,273.143 68.667 M276.174 68.733 C 276.106 68.843,276.729 68.899,277.558 68.858 C 280.163 68.728,280.477 68.615,278.349 68.573 C 277.221 68.551,276.242 68.623,276.174 68.733 M296.470 68.722 C 296.801 68.786,297.281 68.783,297.536 68.717 C 297.791 68.650,297.520 68.598,296.933 68.601 C 296.347 68.604,296.138 68.658,296.470 68.722 M304.000 69.138 C 304.000 69.399,303.715 69.608,303.267 69.676 L 302.533 69.787 303.275 69.827 C 303.982 69.865,304.550 69.261,304.166 68.877 C 304.075 68.786,304.000 68.903,304.000 69.138 M267.905 69.272 C 267.835 69.384,268.248 69.432,268.822 69.377 C 269.397 69.322,269.867 69.230,269.867 69.172 C 269.867 68.973,268.032 69.067,267.905 69.272 M289.000 69.255 C 289.330 69.318,289.870 69.318,290.200 69.255 C 290.530 69.191,290.260 69.139,289.600 69.139 C 288.940 69.139,288.670 69.191,289.000 69.255 M306.467 70.000 C 306.470 70.587,306.525 70.795,306.589 70.464 C 306.652 70.132,306.650 69.652,306.583 69.397 C 306.516 69.142,306.464 69.413,306.467 70.000 M311.676 69.264 C 312.451 69.318,313.651 69.317,314.342 69.262 C 315.034 69.208,314.400 69.163,312.933 69.164 C 311.467 69.165,310.901 69.210,311.676 69.264 M182.480 70.667 C 182.480 71.473,182.530 71.803,182.591 71.400 C 182.652 70.997,182.652 70.337,182.591 69.933 C 182.530 69.530,182.480 69.860,182.480 70.667 M272.613 72.000 C 272.613 72.807,272.663 73.137,272.724 72.733 C 272.785 72.330,272.785 71.670,272.724 71.267 C 272.663 70.863,272.613 71.193,272.613 72.000 M307.267 71.867 C 307.270 72.453,307.325 72.662,307.389 72.330 C 307.452 71.999,307.450 71.519,307.383 71.264 C 307.316 71.009,307.264 71.280,307.267 71.867 M181.943 74.000 C 181.945 74.733,181.997 75.002,182.058 74.596 C 182.119 74.191,182.118 73.591,182.054 73.263 C 181.991 72.935,181.941 73.267,181.943 74.000 M306.734 74.267 C 306.737 74.853,306.791 75.062,306.855 74.730 C 306.919 74.399,306.917 73.919,306.850 73.664 C 306.783 73.409,306.731 73.680,306.734 74.267 M273.413 74.933 C 273.413 75.740,273.463 76.070,273.524 75.667 C 273.585 75.263,273.585 74.603,273.524 74.200 C 273.463 73.797,273.413 74.127,273.413 74.933 M182.743 76.667 C 182.745 77.400,182.797 77.668,182.858 77.263 C 182.919 76.858,182.918 76.258,182.854 75.930 C 182.791 75.602,182.741 75.933,182.743 76.667 M307.534 76.400 C 307.537 76.987,307.591 77.195,307.655 76.864 C 307.719 76.532,307.717 76.052,307.650 75.797 C 307.583 75.542,307.531 75.813,307.534 76.400 M251.000 75.917 C 251.257 75.984,251.677 75.984,251.933 75.917 C 252.190 75.850,251.980 75.795,251.467 75.795 C 250.953 75.795,250.743 75.850,251.000 75.917 M210.333 76.722 C 210.663 76.785,211.203 76.785,211.533 76.722 C 211.863 76.658,211.593 76.606,210.933 76.606 C 210.273 76.606,210.003 76.658,210.333 76.722 M272.880 78.400 C 272.880 79.207,272.930 79.537,272.991 79.133 C 273.052 78.730,273.052 78.070,272.991 77.667 C 272.930 77.263,272.880 77.593,272.880 78.400 M307.001 78.800 C 307.004 79.387,307.058 79.595,307.122 79.264 C 307.186 78.932,307.183 78.452,307.117 78.197 C 307.050 77.942,306.998 78.213,307.001 78.800 M182.210 79.867 C 182.212 80.600,182.263 80.868,182.325 80.463 C 182.386 80.058,182.384 79.458,182.321 79.130 C 182.258 78.802,182.208 79.133,182.210 79.867 M273.680 81.333 C 273.680 82.140,273.730 82.470,273.791 82.067 C 273.852 81.663,273.852 81.003,273.791 80.600 C 273.730 80.197,273.680 80.527,273.680 81.333 M307.737 80.822 C 307.740 81.323,307.861 81.913,308.008 82.133 C 308.194 82.413,308.222 82.172,308.100 81.333 C 307.883 79.840,307.732 79.627,307.737 80.822 M238.133 83.067 C 237.041 84.167,236.207 85.067,236.280 85.067 C 236.353 85.067,237.307 84.167,238.400 83.067 C 239.493 81.967,240.327 81.067,240.253 81.067 C 240.180 81.067,239.226 81.967,238.133 83.067 M227.467 82.267 C 227.964 82.780,228.431 83.200,228.505 83.200 C 228.578 83.200,228.231 82.780,227.733 82.267 C 227.236 81.753,226.769 81.333,226.695 81.333 C 226.622 81.333,226.969 81.753,227.467 82.267 M307.267 83.333 C 307.270 83.920,307.325 84.129,307.389 83.797 C 307.452 83.465,307.450 82.985,307.383 82.730 C 307.316 82.475,307.264 82.747,307.267 83.333 M273.143 84.667 C 273.145 85.400,273.197 85.668,273.258 85.263 C 273.319 84.858,273.318 84.258,273.254 83.930 C 273.191 83.602,273.141 83.933,273.143 84.667 M182.462 85.333 C 182.462 85.847,182.517 86.057,182.584 85.800 C 182.651 85.543,182.651 85.123,182.584 84.867 C 182.517 84.610,182.462 84.820,182.462 85.333 M274.049 85.969 C 273.949 86.230,273.877 86.764,273.891 87.155 C 273.913 87.818,273.932 87.806,274.171 86.975 C 274.449 86.012,274.348 85.188,274.049 85.969 M273.413 90.933 C 273.413 91.740,273.463 92.070,273.524 91.667 C 273.585 91.263,273.585 90.603,273.524 90.200 C 273.463 89.797,273.413 90.127,273.413 90.933 M109.462 109.933 L 106.800 112.667 109.533 110.005 C 112.072 107.533,112.388 107.200,112.195 107.200 C 112.156 107.200,110.926 108.430,109.462 109.933 M73.158 114.800 C 73.159 115.973,73.206 116.420,73.262 115.793 C 73.319 115.166,73.318 114.206,73.261 113.660 C 73.203 113.113,73.157 113.627,73.158 114.800 M62.933 138.000 C 62.286 138.660,61.816 139.200,61.889 139.200 C 61.962 139.200,62.552 138.660,63.200 138.000 C 63.848 137.340,64.318 136.800,64.244 136.800 C 64.171 136.800,63.581 137.340,62.933 138.000 M293.800 145.260 C 294.277 145.319,295.057 145.319,295.533 145.260 C 296.010 145.200,295.620 145.152,294.667 145.152 C 293.713 145.152,293.323 145.200,293.800 145.260 M121.533 147.926 C 122.010 147.985,122.790 147.985,123.267 147.926 C 123.743 147.867,123.353 147.819,122.400 147.819 C 121.447 147.819,121.057 147.867,121.533 147.926 M170.467 149.261 C 171.017 149.318,171.917 149.318,172.467 149.261 C 173.017 149.203,172.567 149.156,171.467 149.156 C 170.367 149.156,169.917 149.203,170.467 149.261 M149.990 156.867 L 148.667 158.267 150.067 156.943 C 150.837 156.216,151.467 155.586,151.467 155.543 C 151.467 155.344,151.220 155.566,149.990 156.867 M188.133 156.533 C 188.706 157.120,189.235 157.600,189.308 157.600 C 189.382 157.600,188.973 157.120,188.400 156.533 C 187.827 155.947,187.298 155.467,187.225 155.467 C 187.152 155.467,187.560 155.947,188.133 156.533 M105.187 157.400 L 104.133 158.533 105.267 157.479 C 106.321 156.499,106.523 156.267,106.321 156.267 C 106.277 156.267,105.767 156.777,105.187 157.400 M141.333 158.267 C 142.130 159.073,142.842 159.733,142.915 159.733 C 142.988 159.733,142.397 159.073,141.600 158.267 C 140.803 157.460,140.092 156.800,140.018 156.800 C 139.945 156.800,140.537 157.460,141.333 158.267 M277.410 159.333 C 277.412 160.067,277.463 160.335,277.525 159.930 C 277.586 159.524,277.584 158.924,277.521 158.596 C 277.458 158.268,277.408 158.600,277.410 159.333 M193.429 170.400 C 193.429 171.793,193.474 172.363,193.529 171.667 C 193.584 170.970,193.584 169.830,193.529 169.133 C 193.474 168.437,193.429 169.007,193.429 170.400 M95.813 174.133 C 95.813 174.940,95.863 175.270,95.924 174.867 C 95.985 174.463,95.985 173.803,95.924 173.400 C 95.863 172.997,95.813 173.327,95.813 174.133 M281.960 175.467 C 281.960 176.713,282.006 177.223,282.062 176.600 C 282.118 175.977,282.118 174.957,282.062 174.333 C 282.006 173.710,281.960 174.220,281.960 175.467 M80.108 181.200 C 80.108 183.547,80.149 184.471,80.199 183.254 C 80.248 182.037,80.248 180.117,80.198 178.987 C 80.148 177.858,80.108 178.853,80.108 181.200 M50.933 181.467 C 51.730 182.273,52.442 182.933,52.515 182.933 C 52.588 182.933,51.997 182.273,51.200 181.467 C 50.403 180.660,49.692 180.000,49.618 180.000 C 49.545 180.000,50.137 180.660,50.933 181.467 M80.329 188.800 C 80.329 189.313,80.383 189.523,80.450 189.267 C 80.518 189.010,80.518 188.590,80.450 188.333 C 80.383 188.077,80.329 188.287,80.329 188.800 M302.400 190.800 C 302.898 191.313,303.365 191.733,303.438 191.733 C 303.511 191.733,303.164 191.313,302.667 190.800 C 302.169 190.287,301.702 189.867,301.629 189.867 C 301.555 189.867,301.902 190.287,302.400 190.800 M304.606 195.467 C 304.606 196.127,304.658 196.397,304.722 196.067 C 304.785 195.737,304.785 195.197,304.722 194.867 C 304.658 194.537,304.606 194.807,304.606 195.467 M315.857 206.733 L 314.533 208.133 315.933 206.810 C 316.703 206.082,317.333 205.452,317.333 205.410 C 317.333 205.211,317.086 205.432,315.857 206.733 M59.291 211.333 C 59.292 212.507,59.339 212.953,59.396 212.326 C 59.452 211.699,59.451 210.739,59.394 210.193 C 59.337 209.647,59.290 210.160,59.291 211.333 M170.913 213.800 L 170.267 214.533 170.953 213.931 C 171.331 213.600,171.740 213.420,171.863 213.531 C 171.985 213.642,171.999 213.583,171.894 213.400 C 171.641 212.961,171.659 212.954,170.913 213.800 M170.790 217.667 L 169.467 219.067 170.867 217.743 C 172.168 216.514,172.389 216.267,172.190 216.267 C 172.148 216.267,171.518 216.897,170.790 217.667 M291.541 216.730 C 292.242 216.785,293.322 216.784,293.941 216.728 C 294.560 216.672,293.987 216.627,292.667 216.628 C 291.347 216.629,290.840 216.675,291.541 216.730 M119.600 218.400 C 120.471 219.280,121.243 220.000,121.317 220.000 C 121.390 220.000,120.737 219.280,119.867 218.400 C 118.996 217.520,118.223 216.800,118.150 216.800 C 118.077 216.800,118.729 217.520,119.600 218.400 M165.728 219.267 L 163.333 221.733 165.800 219.339 C 167.157 218.022,168.267 216.912,168.267 216.872 C 168.267 216.679,167.952 216.976,165.728 219.267 M124.400 219.467 C 124.973 220.053,125.502 220.533,125.575 220.533 C 125.648 220.533,125.240 220.053,124.667 219.467 C 124.094 218.880,123.565 218.400,123.492 218.400 C 123.418 218.400,123.827 218.880,124.400 219.467 M123.733 222.217 C 123.733 222.263,124.123 222.653,124.600 223.083 L 125.467 223.867 124.683 223.000 C 123.953 222.192,123.733 222.011,123.733 222.217 M164.267 224.133 C 163.619 224.793,163.149 225.333,163.222 225.333 C 163.296 225.333,163.886 224.793,164.533 224.133 C 165.181 223.473,165.651 222.933,165.578 222.933 C 165.504 222.933,164.914 223.473,164.267 224.133 M160.117 224.600 L 159.333 225.467 160.200 224.683 C 161.008 223.953,161.189 223.733,160.983 223.733 C 160.937 223.733,160.547 224.123,160.117 224.600 M107.600 250.400 C 108.173 250.987,108.702 251.467,108.775 251.467 C 108.848 251.467,108.440 250.987,107.867 250.400 C 107.294 249.813,106.765 249.333,106.692 249.333 C 106.618 249.333,107.027 249.813,107.600 250.400 M111.600 254.400 C 112.173 254.987,112.702 255.467,112.775 255.467 C 112.848 255.467,112.440 254.987,111.867 254.400 C 111.294 253.813,110.765 253.333,110.692 253.333 C 110.618 253.333,111.027 253.813,111.600 254.400 M54.133 255.067 C 54.631 255.580,55.098 256.000,55.171 256.000 C 55.245 256.000,54.898 255.580,54.400 255.067 C 53.902 254.553,53.435 254.133,53.362 254.133 C 53.289 254.133,53.636 254.553,54.133 255.067 M90.933 268.340 C 90.933 268.380,91.863 269.310,93.000 270.407 L 95.067 272.400 93.073 270.333 C 91.222 268.414,90.933 268.145,90.933 268.340 M304.933 270.933 C 305.506 271.520,306.035 272.000,306.108 272.000 C 306.182 272.000,305.773 271.520,305.200 270.933 C 304.627 270.347,304.098 269.867,304.025 269.867 C 303.952 269.867,304.360 270.347,304.933 270.933 M204.706 279.113 C 204.875 279.234,205.074 279.633,205.149 280.000 C 205.266 280.574,205.279 280.558,205.242 279.887 C 205.218 279.448,205.026 279.061,204.800 279.000 C 204.533 278.928,204.502 278.966,204.706 279.113 M174.600 281.788 C 174.930 281.852,175.470 281.852,175.800 281.788 C 176.130 281.725,175.860 281.673,175.200 281.673 C 174.540 281.673,174.270 281.725,174.600 281.788 M186.070 281.789 C 186.401 281.852,186.881 281.850,187.136 281.783 C 187.391 281.716,187.120 281.664,186.533 281.667 C 185.947 281.670,185.738 281.725,186.070 281.789 M274.485 285.867 C 274.485 286.820,274.534 287.210,274.593 286.733 C 274.652 286.257,274.652 285.477,274.593 285.000 C 274.534 284.523,274.485 284.913,274.485 285.867 M99.801 287.600 C 99.804 288.187,99.858 288.395,99.922 288.064 C 99.986 287.732,99.983 287.252,99.917 286.997 C 99.850 286.742,99.798 287.013,99.801 287.600 M290.336 300.455 C 290.668 300.519,291.148 300.517,291.403 300.450 C 291.658 300.383,291.387 300.331,290.800 300.334 C 290.213 300.337,290.005 300.391,290.336 300.455 M141.533 301.255 C 141.863 301.318,142.403 301.318,142.733 301.255 C 143.063 301.191,142.793 301.139,142.133 301.139 C 141.473 301.139,141.203 301.191,141.533 301.255 M99.456 303.000 C 100.109 303.697,100.679 304.267,100.722 304.267 C 100.922 304.267,100.711 304.027,99.533 302.922 L 98.267 301.733 99.456 303.000 M124.921 309.667 L 123.867 310.800 125.000 309.746 C 126.054 308.766,126.256 308.533,126.054 308.533 C 126.011 308.533,125.501 309.043,124.921 309.667 M189.533 329.526 C 190.010 329.585,190.790 329.585,191.267 329.526 C 191.743 329.467,191.353 329.419,190.400 329.419 C 189.447 329.419,189.057 329.467,189.533 329.526 M291.533 329.528 C 292.083 329.585,292.983 329.585,293.533 329.528 C 294.083 329.470,293.633 329.423,292.533 329.423 C 291.433 329.423,290.983 329.470,291.533 329.528 " stroke="none" fill="#73a7ce" fill-rule="evenodd"></path></g></svg>